<svg width="173" height="149" viewBox="0 0 173 149" fill="none" xmlns="http://www.w3.org/2000/svg">
<path d="M88.0265 136.021C87.5799 135.02 85.4202 134.189 83.0966 134.115C82.8345 133.86 82.5221 133.663 82.1793 133.537C81.8366 133.41 81.4711 133.356 81.1065 133.38C80.4184 133.348 79.7432 133.574 79.2125 134.013L77.1207 133.957C76.8598 133.698 76.5468 133.499 76.2027 133.371C75.8586 133.243 75.4912 133.19 75.125 133.216C74.4349 133.182 73.7572 133.408 73.2254 133.849L71.1449 133.793C70.8835 133.533 70.5698 133.332 70.2247 133.203C69.8796 133.074 69.511 133.021 69.1435 133.046C68.4497 133.012 67.7688 133.242 67.2382 133.691L65.169 133.634C64.9085 133.371 64.5944 133.167 64.248 133.036C63.9017 132.906 63.5313 132.851 63.162 132.876C62.4654 132.842 61.7819 133.074 61.2511 133.527L59.1932 133.47C58.9326 133.207 58.6185 133.003 58.2722 132.872C57.9259 132.742 57.5555 132.687 57.1861 132.712C56.485 132.676 55.7968 132.911 55.2639 133.368L53.2173 133.312C52.9578 133.045 52.6433 132.838 52.2958 132.705C51.9482 132.572 51.5758 132.517 51.2046 132.543C50.5007 132.506 49.8099 132.743 49.2768 133.204L47.2415 133.153C46.9853 132.881 46.672 132.668 46.3241 132.53C45.9762 132.392 45.6022 132.333 45.2288 132.356C44.5219 132.318 43.8281 132.557 43.2953 133.023L41.2713 132.967C41.0123 132.695 40.6965 132.485 40.3466 132.35C39.9967 132.215 39.6213 132.159 39.2473 132.186H39.1568C37.5625 130.576 36.3963 128.593 35.7647 126.417C35.3523 125.111 35.3015 123.717 35.6177 122.384H69.771C70.3691 122.405 70.9643 122.291 71.5117 122.049C72.0591 121.807 72.5445 121.444 72.9314 120.987C73.2838 120.528 73.5167 119.988 73.6095 119.416C73.7022 118.845 73.6518 118.259 73.4628 117.712L62.5175 81.2689C62.0818 80.0538 61.2861 79.0005 60.2365 78.2497C59.187 77.4988 57.9335 77.086 56.6434 77.0663H9.88251C9.28074 77.1077 8.6964 77.2862 8.17414 77.5882C7.65188 77.8901 7.20551 78.3075 6.86915 78.8084C6.51149 79.2947 6.27384 79.8587 6.17558 80.4544C6.07733 81.0501 6.12126 81.6606 6.30379 82.2361L18.2498 118.215C19.0187 120.523 21.7155 122.401 24.2653 122.401H31.0948C30.8582 124.105 30.9853 125.84 31.4679 127.492C32.0026 129.384 32.8512 131.174 33.9781 132.786L32.3216 132.746C29.8001 132.751 27.322 133.404 25.1246 134.641C23.8525 135.467 22.931 136.519 22.784 137.316C22.7536 137.444 22.751 137.577 22.7764 137.706C22.8017 137.835 22.8545 137.956 22.931 138.063C23.5303 138.855 25.9953 139.324 28.0192 139.324H82.4577C84.4704 139.324 86.9806 139.059 87.6534 138.612C88.3261 138.165 88.4788 137.051 88.0265 136.021Z" fill="#3B2D55"/>
<path d="M166.843 65.267C166.843 72.6201 162.733 78.8419 157.102 80.8442C158.798 100.715 155.124 121.716 150.618 133.379C149.086 137.339 145.846 139.454 142.363 138.764C141.978 138.683 141.6 138.571 141.233 138.43C140.846 138.589 140.444 138.711 140.034 138.792C139.441 138.915 138.835 138.962 138.231 138.934L137.79 138.883H137.575H137.496H137.422H137.332C137.07 138.836 136.811 138.771 136.557 138.69L136.127 138.555L135.743 138.391C135.489 138.289 135.257 138.142 135.025 138.023C134.935 137.972 134.85 137.91 134.759 137.853C134.131 138.271 133.437 138.58 132.707 138.77C132.124 138.922 131.523 139 130.921 139.002H130.48H130.259H130.157H130.106H130.016L129.654 138.945H129.564H129.451L129.23 138.894C129.089 138.854 128.936 138.821 128.8 138.775L128.41 138.634C128.159 138.538 127.914 138.429 127.675 138.306C127.444 138.181 127.217 138.046 127.003 137.91C126.788 137.774 126.584 137.616 126.403 137.457C126.222 137.299 126.166 137.248 126.053 137.141C124.744 138.392 123.006 139.094 121.196 139.103H120.806L120.495 139.075H120.343L120.15 139.047L119.766 138.979C119.506 138.934 119.297 138.854 119.059 138.792C118.822 138.73 118.607 138.623 118.381 138.538C117.624 138.202 116.933 137.735 116.34 137.158C116.227 137.271 116.114 137.373 115.984 137.48C115.16 138.163 114.194 138.653 113.157 138.917C112.601 139.047 112.032 139.115 111.461 139.12C111.331 139.12 111.218 139.12 111.065 139.12L110.59 139.075C110.434 139.064 110.279 139.039 110.127 139.002C109.974 138.968 109.821 138.945 109.674 138.905C109.083 138.736 108.513 138.497 107.978 138.193L107.645 137.983C107.098 138.342 106.504 138.624 105.881 138.821C105.328 138.983 104.759 139.081 104.185 139.115C104.049 139.115 103.947 139.115 103.783 139.115H103.297C103.144 139.107 102.991 139.09 102.839 139.064C102.686 139.035 102.534 139.024 102.381 138.985C101.978 138.898 101.583 138.776 101.2 138.623C100.392 138.935 99.5329 139.094 98.6668 139.092C97.0391 139.089 95.4623 138.525 94.2019 137.495C92.9414 136.464 92.0744 135.031 91.7468 133.436C91.7468 133.283 89.5645 120.591 88.3829 116.529C86.8507 111.275 83.86 108.045 80.3548 104.335C76.4877 100.211 72.1118 95.5334 69.2737 87.1453C68.2457 84.1061 67.5907 80.9532 67.3232 77.7559C67.2441 78.2537 67.1819 78.7571 67.1367 79.2605C62.953 76.1722 60.7764 70.5951 60.7764 65.4819C60.7764 58.4625 64.4964 52.4726 69.7034 50.2101C69.6795 50.1553 69.6606 50.0985 69.6469 50.0404C69.1972 47.6165 69.2734 45.1242 69.8704 42.7324C70.4674 40.3405 71.5711 38.1049 73.1069 36.177C78.5739 29.2368 89.3044 25.7186 105.004 25.7186C125.323 25.7186 136.976 27.2458 143.963 30.8092C152.291 35.0853 153.439 42.1782 153.439 49.2089C160.851 49.1354 166.843 56.3584 166.843 65.267ZM156.633 76.4267C161.026 76.2796 164.548 71.1494 164.548 64.8597C164.548 58.4795 160.902 53.2871 156.418 53.2871C155.42 53.3226 154.441 53.5765 153.552 54.0309C152.662 54.4853 151.882 55.1292 151.268 55.9172C151.023 56.206 150.795 56.5081 150.584 56.8222C150.354 57.156 150.144 57.5036 149.956 57.863C148.841 60.0249 148.27 62.4268 148.294 64.8597C148.294 70.3576 150.996 74.9674 154.609 76.1722C154.932 76.2772 155.263 76.3567 155.598 76.4097C155.87 76.4454 156.144 76.4643 156.418 76.4663L156.633 76.4267ZM148.78 132.672C153.19 121.258 156.78 100.76 155.186 81.342C154.549 81.4511 153.904 81.506 153.258 81.506C145.756 81.506 139.689 74.2377 139.689 65.267C139.689 59.2035 142.46 53.9545 146.57 51.1264C136.552 35.0684 117.623 29.2481 97.5473 36.7652C75.34 45.0799 64.2251 65.9118 71.1111 86.2968C73.8079 94.2834 77.8502 98.5991 81.7569 102.773C85.2677 106.518 88.5807 110.059 90.2373 115.783C91.4528 119.946 93.5616 132.355 93.6294 132.882C93.8729 134.067 94.5309 135.127 95.4851 135.872C96.4394 136.616 97.6275 136.996 98.8364 136.943C97.953 136.084 97.308 135.01 96.965 133.826C96.9135 133.671 96.8738 133.512 96.8463 133.351C96.8463 133.198 96.7728 133.023 96.7558 132.887L96.6315 132.05C96.5523 131.484 96.4732 130.919 96.3884 130.398C96.2301 129.307 96.0718 128.232 95.9191 127.186C95.6025 125.104 95.3538 123.158 95.105 121.484C94.6414 118.147 94.3644 115.918 94.3644 115.918C94.3397 115.748 94.3829 115.575 94.4847 115.436C94.5866 115.297 94.7389 115.204 94.9088 115.177C95.0787 115.149 95.2526 115.19 95.3929 115.289C95.5333 115.389 95.6289 115.54 95.659 115.709C95.659 115.709 95.7325 116.06 95.8456 116.688C96.0322 117.638 96.3318 119.233 96.6993 121.213C96.9933 122.876 97.3608 124.804 97.717 126.869C97.8941 127.91 98.0826 128.977 98.2823 130.07C98.3784 130.636 98.4689 131.162 98.565 131.716L98.712 132.548C98.712 132.684 98.7572 132.78 98.7855 132.904C98.805 133.02 98.8353 133.133 98.8759 133.244C99.1472 134.143 99.6618 134.949 100.363 135.574C100.627 135.812 100.918 136.021 101.228 136.196L101.488 136.343C101.75 136.471 102.022 136.575 102.302 136.654C102.449 136.701 102.598 136.738 102.749 136.767C102.855 136.79 102.963 136.807 103.071 136.818C103.178 136.818 103.286 136.852 103.382 136.852H103.568H103.665C103.761 136.852 103.913 136.852 104.026 136.852C104.438 136.828 104.846 136.755 105.242 136.637C105.503 136.555 105.756 136.451 105.999 136.326C105.613 135.852 105.286 135.331 105.027 134.776C104.842 134.361 104.696 133.929 104.592 133.487L104.541 133.266L104.501 133.023C104.501 132.865 104.456 132.695 104.433 132.548L104.366 131.711C104.315 131.185 104.269 130.664 104.224 130.144C104.222 130.114 104.222 130.083 104.224 130.053C104.122 128.95 104.032 127.87 103.936 126.829C103.874 126.173 103.817 125.54 103.766 124.923C103.653 123.549 103.551 122.259 103.455 121.105C103.184 117.757 103.031 115.517 103.031 115.517C103.02 115.342 103.079 115.17 103.195 115.039C103.31 114.907 103.473 114.827 103.648 114.816C103.813 114.804 103.976 114.856 104.105 114.961C104.233 115.066 104.316 115.217 104.337 115.381C104.337 115.381 104.388 115.737 104.473 116.365C104.597 117.321 104.812 118.922 105.038 120.941C105.236 122.61 105.491 124.556 105.722 126.643C105.722 126.773 105.756 126.909 105.768 127.039C105.875 127.955 105.988 128.9 106.096 129.867C106.141 130.251 106.186 130.642 106.226 131.032C106.226 131.196 106.265 131.36 106.288 131.524L106.384 132.355L106.44 132.706V132.882L106.486 133.051C106.679 133.824 107.051 134.541 107.571 135.144C107.662 135.251 107.752 135.348 107.854 135.449C107.998 135.597 108.153 135.733 108.317 135.857C108.517 136.005 108.725 136.143 108.939 136.27L109.194 136.4C109.506 136.549 109.832 136.67 110.166 136.762C110.272 136.788 110.38 136.809 110.488 136.824C110.586 136.851 110.687 136.868 110.788 136.875L111.076 136.909H111.444C111.851 136.906 112.257 136.856 112.654 136.762C113.383 136.573 114.062 136.227 114.644 135.749C114.791 135.625 114.921 135.5 115.045 135.376C114.856 135.051 114.695 134.711 114.565 134.358C114.476 134.145 114.404 133.926 114.35 133.702C114.235 133.259 114.162 132.806 114.129 132.35C114.129 132.242 114.129 132.118 114.129 132.016V131.728C114.129 131.49 114.129 131.258 114.129 131.026C114.129 129.838 114.09 128.679 114.073 127.57C114.073 126.037 114.022 124.589 114.011 123.26C114.011 120.777 113.971 118.735 113.977 117.265V115.002C113.986 114.837 114.057 114.681 114.176 114.566C114.294 114.45 114.452 114.384 114.617 114.379C114.783 114.374 114.944 114.431 115.069 114.539C115.194 114.647 115.275 114.798 115.294 114.963C115.294 115.087 115.345 115.89 115.424 117.225C115.514 118.673 115.616 120.732 115.735 123.209C115.837 125.189 115.922 127.44 116.023 129.844L116.074 131.026C116.074 131.241 116.074 131.45 116.074 131.671V131.96C116.074 132.056 116.074 132.129 116.074 132.208C116.081 132.374 116.102 132.539 116.136 132.701C116.158 132.864 116.194 133.024 116.244 133.181C116.244 133.181 116.244 133.238 116.244 133.272C116.281 133.403 116.327 133.531 116.379 133.656C116.499 133.967 116.651 134.265 116.832 134.544C117.012 134.832 117.22 135.101 117.454 135.348C117.473 135.368 117.494 135.387 117.516 135.404C117.972 135.874 118.518 136.247 119.121 136.501C119.285 136.558 119.438 136.637 119.602 136.682C119.766 136.728 119.941 136.784 120.088 136.801L120.32 136.841H120.427H120.586H120.891H121.123C121.792 136.844 122.455 136.713 123.074 136.457C123.692 136.201 124.253 135.823 124.724 135.348C124.746 135.328 124.767 135.308 124.786 135.285C125.025 135.041 125.238 134.772 125.42 134.482C125.597 134.202 125.747 133.904 125.866 133.594C125.917 133.47 125.957 133.334 125.996 133.204C126.036 133.074 126.092 132.836 126.121 132.672C126.159 132.497 126.181 132.319 126.188 132.141V131.897V131.609C126.188 131.388 126.188 131.179 126.188 130.964L126.239 129.782C126.335 127.378 126.426 125.127 126.522 123.147C126.646 120.67 126.748 118.622 126.833 117.163C126.912 115.839 126.963 115.036 126.969 114.9C126.974 114.726 127.048 114.562 127.175 114.442C127.237 114.383 127.311 114.337 127.392 114.306C127.472 114.276 127.558 114.261 127.644 114.264C127.73 114.267 127.815 114.286 127.894 114.322C127.972 114.357 128.043 114.407 128.102 114.47C128.161 114.533 128.207 114.607 128.238 114.687C128.269 114.768 128.283 114.854 128.28 114.94V117.202C128.28 118.65 128.28 120.715 128.246 123.198C128.246 124.527 128.212 125.975 128.19 127.508C128.19 128.639 128.15 129.771 128.133 130.964C128.133 131.196 128.133 131.428 128.133 131.665V132.152V132.293C128.125 132.506 128.102 132.717 128.065 132.927C127.998 133.395 127.878 133.854 127.709 134.296C127.577 134.647 127.416 134.988 127.229 135.314C127.354 135.445 127.486 135.57 127.624 135.687C127.76 135.806 127.907 135.896 128.054 136.009C128.201 136.123 128.365 136.202 128.529 136.292C128.693 136.383 128.868 136.462 129.055 136.518L129.326 136.62C129.417 136.62 129.501 136.66 129.586 136.688L129.722 136.722H129.784H129.875L130.236 136.779H130.327H130.361H130.519H130.83C131.259 136.772 131.686 136.717 132.102 136.615C132.439 136.533 132.765 136.413 133.075 136.258C133.385 136.099 133.678 135.91 133.951 135.693C134.116 135.57 134.273 135.435 134.42 135.291C134.52 135.196 134.612 135.094 134.697 134.986C134.911 134.741 135.101 134.476 135.262 134.194C135.325 134.098 135.37 133.99 135.426 133.888C135.483 133.786 135.528 133.673 135.568 133.566L135.687 133.238L135.771 132.932C135.831 132.69 135.874 132.445 135.901 132.197L136.003 131.366C136.003 131.202 136.037 131.038 136.06 130.874C136.105 130.483 136.144 130.093 136.19 129.708C136.303 128.752 136.41 127.808 136.518 126.88C136.518 126.75 136.552 126.614 136.563 126.484C136.795 124.397 137.055 122.451 137.253 120.783C137.501 118.769 137.71 117.169 137.818 116.207C137.897 115.579 137.948 115.223 137.948 115.223C137.966 115.049 138.052 114.89 138.187 114.781C138.322 114.671 138.496 114.619 138.669 114.637C138.842 114.655 139.001 114.741 139.111 114.877C139.22 115.012 139.272 115.185 139.254 115.359C139.254 115.359 139.107 117.621 138.836 120.947C138.734 122.078 138.638 123.39 138.519 124.765C138.468 125.381 138.412 126.021 138.349 126.671C138.259 127.712 138.163 128.792 138.061 129.895C138.061 129.923 138.061 129.957 138.061 129.986C138.016 130.506 137.965 131.026 137.92 131.552L137.846 132.389V132.491V132.542V132.644L137.812 132.848V133.062C137.81 133.079 137.81 133.097 137.812 133.113C137.812 133.181 137.778 133.243 137.767 133.306L137.637 133.815L137.473 134.273C137.428 134.407 137.373 134.537 137.309 134.663L137.281 134.725C137.213 134.867 137.145 135.02 137.066 135.161C136.852 135.533 136.608 135.886 136.337 136.219C136.404 136.256 136.474 136.289 136.546 136.315L136.817 136.434L137.072 136.513C137.285 136.582 137.502 136.636 137.722 136.677H137.795H137.846H137.999L138.31 136.711H138.768C139.043 136.709 139.318 136.678 139.587 136.62C139.74 136.62 139.893 136.552 140.04 136.513C140.415 136.401 140.775 136.245 141.114 136.049C141.423 135.874 141.713 135.667 141.979 135.432C142.323 135.121 142.627 134.768 142.884 134.38C142.991 134.171 143.127 133.979 143.217 133.758C143.257 133.651 143.313 133.543 143.347 133.441L143.449 133.136C143.504 133.068 143.555 132.996 143.602 132.921L143.647 132.712V132.61V132.565L143.794 131.733C143.884 131.168 143.98 130.63 144.076 130.087C144.261 128.998 144.45 127.93 144.642 126.886C144.998 124.81 145.36 122.881 145.654 121.23C146.021 119.227 146.321 117.632 146.507 116.705L146.694 115.726C146.735 115.567 146.835 115.428 146.973 115.338C147.11 115.248 147.277 115.213 147.439 115.239C147.602 115.265 147.749 115.351 147.852 115.48C147.954 115.609 148.005 115.771 147.994 115.935C147.994 115.935 147.712 118.164 147.248 121.507C147.011 123.204 146.751 125.121 146.44 127.203C146.287 128.249 146.123 129.324 145.965 130.415C145.886 130.981 145.806 131.547 145.722 132.073L145.603 132.904V132.955V133.057V133.159L145.558 133.368C145.533 133.515 145.499 133.661 145.456 133.803L145.298 134.307C145.241 134.471 145.173 134.612 145.111 134.765C144.979 135.063 144.828 135.352 144.659 135.63C144.354 136.107 143.997 136.549 143.596 136.948C146.151 136.982 147.972 134.765 148.78 132.672ZM149.911 49.5257C149.86 49.3627 149.836 49.1929 149.837 49.0223C149.837 40.7642 147.797 36.6465 142.318 33.8353C135.964 30.5717 124.453 29.118 105.004 29.118C90.6726 29.118 80.6205 32.2629 75.9393 38.2019C74.7417 39.702 73.8748 41.4385 73.3954 43.2975C72.916 45.1565 72.835 47.0958 73.1577 48.9883C73.1546 49.0203 73.1546 49.0525 73.1577 49.0845C73.5503 49.0439 73.9447 49.0231 74.3393 49.0223C74.9349 48.9549 75.5377 49.0467 76.0863 49.2881C75.4305 48.9431 73.8814 51.7542 72.4397 54.8595C77.5732 45.9679 86.178 38.9259 96.8746 34.9213C117.923 27.0365 137.795 33.1792 148.288 50.1592C148.805 49.9088 149.34 49.697 149.888 49.5257H149.911Z" fill="#3B2D55"/>
<path d="M164.565 64.8597C164.565 71.1494 161.026 76.2796 156.65 76.4267H156.452C156.178 76.4247 155.904 76.4058 155.632 76.3701C155.297 76.317 154.966 76.2376 154.643 76.1325C151.03 74.956 148.328 70.3462 148.328 64.8201C148.304 62.3872 148.874 59.9853 149.99 57.8233C150.178 57.4639 150.387 57.1164 150.617 56.7826C150.828 56.4685 151.057 56.1664 151.301 55.8776C151.916 55.0895 152.695 54.4457 153.585 53.9913C154.475 53.5369 155.453 53.283 156.452 53.2474C160.918 53.287 164.565 58.4794 164.565 64.8597Z" fill="#CDDCE2"/>
<path d="M155.185 81.3424C156.78 100.76 153.189 121.258 148.78 132.673C147.971 134.766 146.151 136.983 143.544 136.915C143.946 136.516 144.302 136.074 144.607 135.597C144.777 135.319 144.928 135.03 145.06 134.732C145.122 134.579 145.19 134.437 145.246 134.273L145.404 133.77C145.447 133.627 145.481 133.482 145.506 133.334L145.551 133.125V133.023V132.922V132.871L145.67 132.039C145.755 131.474 145.834 130.908 145.913 130.382C146.072 129.29 146.236 128.216 146.388 127.169C146.699 125.088 146.954 123.142 147.197 121.473C147.66 118.131 147.943 115.902 147.943 115.902C147.954 115.738 147.903 115.575 147.8 115.446C147.697 115.318 147.55 115.232 147.388 115.206C147.225 115.179 147.059 115.215 146.921 115.305C146.783 115.395 146.684 115.533 146.643 115.693L146.456 116.671C146.269 117.621 145.97 119.217 145.602 121.196C145.308 122.853 144.947 124.782 144.59 126.852C144.409 127.893 144.221 128.96 144.025 130.054C143.929 130.619 143.833 131.151 143.742 131.7L143.595 132.531V132.577V132.678L143.601 132.922C143.581 133.049 143.548 133.174 143.505 133.295L143.403 133.6C143.369 133.702 143.313 133.81 143.273 133.917C143.183 134.138 143.047 134.33 142.94 134.539C142.683 134.926 142.379 135.28 142.035 135.591C141.769 135.826 141.479 136.033 141.17 136.208C140.831 136.404 140.471 136.56 140.096 136.672C139.949 136.711 139.796 136.751 139.643 136.779C139.374 136.837 139.099 136.867 138.824 136.87H138.366L138.055 136.836H137.902H137.851H137.778C137.558 136.795 137.341 136.74 137.128 136.672L136.873 136.592L136.602 136.474C136.53 136.447 136.46 136.415 136.393 136.378C136.664 136.045 136.908 135.691 137.122 135.32C137.201 135.178 137.269 135.026 137.337 134.884L137.365 134.822C137.429 134.696 137.484 134.566 137.529 134.432L137.693 133.974L137.823 133.465C137.823 133.402 137.823 133.34 137.868 133.272C137.866 133.255 137.866 133.238 137.868 133.221V133.006L137.902 132.803V132.701V132.65V132.548L137.976 131.711C138.021 131.185 138.072 130.665 138.117 130.144C138.117 130.144 138.117 130.082 138.117 130.054C138.219 128.951 138.315 127.871 138.405 126.83C138.468 126.179 138.524 125.54 138.575 124.924C138.694 123.549 138.79 122.26 138.892 121.106C139.163 117.757 139.31 115.517 139.31 115.517C139.328 115.344 139.276 115.171 139.167 115.036C139.057 114.9 138.898 114.814 138.725 114.796C138.552 114.778 138.378 114.83 138.243 114.94C138.108 115.049 138.022 115.208 138.004 115.382C138.004 115.382 137.953 115.738 137.874 116.366C137.744 117.327 137.535 118.928 137.309 120.942C137.111 122.61 136.851 124.556 136.619 126.643C136.619 126.773 136.591 126.909 136.574 127.039C136.466 127.955 136.359 128.9 136.246 129.867C136.2 130.252 136.161 130.642 136.116 131.032C136.116 131.196 136.076 131.36 136.059 131.524L135.957 132.356C135.93 132.604 135.887 132.849 135.827 133.091L135.742 133.397L135.624 133.725C135.584 133.832 135.533 133.94 135.482 134.047C135.432 134.155 135.381 134.256 135.318 134.353C135.157 134.635 134.967 134.9 134.753 135.144C134.668 135.253 134.576 135.355 134.476 135.45C134.329 135.594 134.172 135.728 134.007 135.852C133.734 136.069 133.441 136.258 133.131 136.417C132.821 136.572 132.495 136.692 132.158 136.773C131.742 136.876 131.315 136.931 130.886 136.938H130.575H130.417H130.383H130.292L129.931 136.881H129.84H129.778L129.642 136.847C129.557 136.819 129.473 136.807 129.382 136.779L129.111 136.677C128.924 136.621 128.76 136.519 128.585 136.451C128.41 136.383 128.263 136.264 128.11 136.168C127.957 136.072 127.816 135.965 127.68 135.846C127.542 135.729 127.41 135.604 127.285 135.473C127.472 135.147 127.633 134.806 127.765 134.454C127.934 134.013 128.054 133.554 128.121 133.086C128.158 132.876 128.181 132.665 128.189 132.452V132.311V131.824C128.189 131.587 128.189 131.355 128.189 131.123C128.189 129.935 128.229 128.776 128.246 127.667C128.246 126.134 128.291 124.686 128.302 123.357C128.302 120.874 128.342 118.832 128.336 117.361V115.099C128.339 115.013 128.324 114.927 128.294 114.846C128.263 114.766 128.217 114.692 128.158 114.629C128.099 114.566 128.028 114.516 127.95 114.48C127.871 114.445 127.786 114.425 127.7 114.423C127.614 114.42 127.528 114.435 127.448 114.465C127.367 114.496 127.293 114.542 127.231 114.601C127.168 114.66 127.118 114.731 127.082 114.81C127.047 114.888 127.027 114.973 127.025 115.059C127.025 115.184 126.968 115.987 126.889 117.322C126.804 118.77 126.702 120.829 126.578 123.306C126.482 125.286 126.391 127.537 126.295 129.941L126.244 131.123C126.244 131.338 126.244 131.547 126.244 131.768V132.056V132.299C126.237 132.478 126.215 132.656 126.177 132.831C126.148 132.995 126.103 133.182 126.052 133.363C126.001 133.544 125.973 133.629 125.922 133.753C125.803 134.063 125.653 134.361 125.476 134.641C125.294 134.93 125.081 135.2 124.842 135.444C124.823 135.466 124.802 135.487 124.78 135.506C124.309 135.982 123.748 136.359 123.13 136.616C122.511 136.872 121.848 137.003 121.179 137H120.987H120.681H120.523H120.416L120.184 136.96C120.037 136.96 119.862 136.875 119.698 136.841C119.534 136.807 119.381 136.717 119.217 136.66C118.614 136.406 118.068 136.033 117.611 135.563C117.589 135.546 117.569 135.527 117.549 135.506C117.316 135.26 117.107 134.991 116.927 134.703C116.747 134.424 116.595 134.126 116.475 133.815C116.422 133.69 116.377 133.561 116.339 133.431C116.339 133.397 116.339 133.368 116.339 133.34C116.29 133.183 116.254 133.022 116.232 132.859C116.197 132.697 116.177 132.533 116.17 132.367C116.17 132.288 116.17 132.215 116.17 132.118V131.83C116.17 131.609 116.17 131.4 116.17 131.185L116.119 130.003C116.017 127.599 115.932 125.348 115.831 123.368C115.712 120.891 115.61 118.843 115.52 117.384C115.44 116.06 115.395 115.257 115.39 115.121C115.37 114.957 115.29 114.806 115.165 114.698C115.039 114.59 114.878 114.533 114.713 114.538C114.547 114.543 114.39 114.609 114.271 114.725C114.153 114.84 114.082 114.996 114.072 115.161V117.424C114.072 118.872 114.072 120.936 114.106 123.419C114.106 124.748 114.14 126.196 114.168 127.729C114.168 128.86 114.202 129.992 114.225 131.185C114.225 131.417 114.225 131.649 114.225 131.886V132.175C114.225 132.277 114.225 132.401 114.225 132.509C114.257 132.965 114.331 133.418 114.445 133.861C114.5 134.084 114.572 134.304 114.66 134.517C114.79 134.869 114.951 135.21 115.141 135.535C115.016 135.659 114.886 135.784 114.739 135.908C114.158 136.386 113.478 136.732 112.749 136.921C112.353 137.015 111.947 137.065 111.539 137.068H111.172L110.884 137.034C110.782 137.027 110.682 137.01 110.584 136.983C110.476 136.967 110.368 136.947 110.262 136.921C109.927 136.829 109.602 136.708 109.289 136.559L109.035 136.428C108.82 136.302 108.613 136.164 108.413 136.016C108.248 135.892 108.093 135.756 107.949 135.608C107.848 135.506 107.757 135.41 107.667 135.303C107.146 134.7 106.774 133.983 106.581 133.21L106.536 133.04V132.865L106.479 132.514L106.383 131.683C106.383 131.519 106.344 131.355 106.321 131.191C106.282 130.8 106.236 130.41 106.191 130.026C106.084 129.07 105.971 128.125 105.863 127.197C105.863 127.067 105.835 126.932 105.818 126.802C105.586 124.714 105.332 122.769 105.134 121.1C104.885 119.081 104.67 117.48 104.569 116.524C104.484 115.896 104.433 115.54 104.433 115.54C104.412 115.376 104.328 115.225 104.2 115.12C104.072 115.015 103.909 114.963 103.743 114.974C103.569 114.986 103.406 115.066 103.29 115.198C103.175 115.329 103.116 115.501 103.127 115.676C103.127 115.676 103.28 117.938 103.551 121.264C103.647 122.395 103.749 123.708 103.862 125.082C103.913 125.699 103.969 126.332 104.031 126.988C104.128 128.029 104.218 129.109 104.32 130.212C104.317 130.242 104.317 130.273 104.32 130.303C104.365 130.823 104.41 131.343 104.461 131.87L104.529 132.707C104.529 132.854 104.574 133.023 104.597 133.182L104.636 133.425L104.687 133.646C104.795 134.098 104.947 134.54 105.14 134.963C105.399 135.518 105.725 136.039 106.112 136.513C105.868 136.638 105.615 136.742 105.354 136.824C104.916 136.898 104.469 136.917 104.026 136.881C103.913 136.881 103.76 136.881 103.664 136.881H103.568H103.381C103.285 136.881 103.178 136.881 103.07 136.847C102.962 136.836 102.855 136.819 102.748 136.796C102.597 136.767 102.448 136.729 102.301 136.683C102.021 136.604 101.749 136.499 101.487 136.372L101.227 136.225C100.917 136.05 100.627 135.841 100.362 135.603C99.6613 134.978 99.1467 134.171 98.8754 133.272C98.8347 133.162 98.8045 133.049 98.7849 132.933C98.7849 132.808 98.7341 132.712 98.7115 132.577L98.5645 131.745C98.4683 131.179 98.3779 130.642 98.2818 130.099C98.0896 129.009 97.9011 127.942 97.7164 126.898C97.3602 124.822 96.9928 122.893 96.6988 121.241C96.3313 119.245 96.0316 117.65 95.8451 116.716C95.732 116.089 95.6585 115.738 95.6585 115.738C95.6283 115.568 95.5327 115.418 95.3924 115.318C95.252 115.218 95.0781 115.178 94.9082 115.205C94.7383 115.233 94.5861 115.326 94.4842 115.465C94.3824 115.604 94.3391 115.777 94.3638 115.947C94.3638 115.947 94.6409 118.176 95.1045 121.513C95.3476 123.21 95.602 125.133 95.9186 127.214C96.0712 128.261 96.2295 129.336 96.3878 130.427C96.4726 130.993 96.5518 131.558 96.6309 132.079L96.7553 132.916C96.7553 133.052 96.8175 133.227 96.8458 133.38C96.8733 133.541 96.913 133.7 96.9645 133.855C97.3075 135.039 97.9524 136.113 98.8358 136.971C97.627 137.024 96.4389 136.645 95.4846 135.9C94.5303 135.156 93.8724 134.096 93.6289 132.91C93.5384 132.384 91.4296 119.974 90.2367 115.811C88.5746 110.104 85.2615 106.564 81.7563 102.802C77.8497 98.6279 73.8074 94.3178 71.1106 86.3256C64.2245 65.9632 75.3395 45.1087 97.5468 36.794C117.623 29.2769 136.557 35.0971 146.558 51.1665C142.448 53.955 139.677 59.2323 139.677 65.307C139.677 74.2778 145.755 81.5461 153.246 81.5461C153.897 81.5336 154.546 81.4655 155.185 81.3424ZM128.432 90.1662C128.583 89.6291 128.622 89.0666 128.546 88.5138C128.47 87.9611 128.282 87.4299 127.991 86.9534C127.061 85.3855 125.553 84.2459 123.791 83.7803C123.654 83.1564 123.482 82.5408 123.276 81.9363C123.158 81.5857 123.056 81.3142 122.988 81.1275L122.875 80.8447C122.783 80.6002 122.599 80.402 122.361 80.2938C122.124 80.1856 121.853 80.1763 121.609 80.2678C121.364 80.3593 121.166 80.5442 121.058 80.7818C120.95 81.0194 120.94 81.2902 121.032 81.5348L121.122 81.7949C121.184 81.959 121.269 82.2078 121.36 82.5246C121.613 83.3996 121.802 84.2918 121.925 85.1943C122.004 85.76 122.072 86.3652 122.106 87.0156C122.145 87.6938 122.145 88.3737 122.106 89.0519C122.046 89.7725 121.941 90.4885 121.789 91.1956C121.627 91.9206 121.407 92.6317 121.134 93.3223C120.857 94.0072 120.516 94.6644 120.116 95.285C119.729 95.8815 119.282 96.4368 118.782 96.9423C118.316 97.4132 117.8 97.8323 117.244 98.1923C116.743 98.5152 116.213 98.7898 115.661 99.0125C114.821 99.3505 113.941 99.5786 113.043 99.6912C112.71 99.7308 112.478 99.7535 112.28 99.7591H111.992C111.818 99.7644 111.653 99.8385 111.534 99.9653C111.415 100.092 111.35 100.261 111.356 100.435C111.361 100.609 111.435 100.774 111.562 100.893C111.688 101.013 111.857 101.077 112.031 101.071H112.32C112.489 101.071 112.812 101.071 113.173 101.071C114.071 101.012 114.959 100.849 115.819 100.585C115.882 100.675 115.963 100.752 116.057 100.811C117.345 101.559 118.802 101.965 120.291 101.993C120.672 101.996 121.052 101.953 121.422 101.863C121.731 101.808 122.026 101.689 122.287 101.514C122.548 101.339 122.769 101.111 122.937 100.845C123.158 100.479 123.302 100.071 123.36 99.6467C123.417 99.2225 123.387 98.791 123.271 98.379C123.009 97.4757 122.461 96.6818 121.71 96.1165C122.146 95.4684 122.525 94.7832 122.841 94.069C123.085 93.5169 123.295 92.9501 123.469 92.3721C123.763 92.3721 124.068 92.3721 124.384 92.3721C126.041 92.4117 127.81 92.0667 128.432 90.1662ZM106.949 95.2568C110.234 92.6897 112.637 89.1604 113.82 85.1614C115.004 81.1625 114.91 76.8935 113.551 72.9506C112.193 69.0076 109.638 65.5875 106.242 63.1677C102.847 60.7479 98.7813 59.4492 94.6126 59.4528C91.4256 59.4557 88.2854 60.2199 85.4532 61.6819C82.621 63.1439 80.1788 65.2615 78.3297 67.8584C76.4806 70.4553 75.2781 73.4565 74.8223 76.6121C74.3665 79.7678 74.6705 82.9868 75.7091 86.0012C76.7477 89.0156 78.4909 91.7382 80.7935 93.9426C83.0961 96.147 85.8916 97.7694 88.9474 98.6748C92.0032 99.5801 95.2309 99.7423 98.362 99.1478C101.493 98.5533 104.437 97.2193 106.949 95.2568Z" fill="#57D1E5"/>
<path d="M127.992 86.9529C128.282 87.4294 128.471 87.9606 128.546 88.5133C128.622 89.0661 128.584 89.6285 128.433 90.1656C127.811 92.0661 126.041 92.4281 124.407 92.4281C124.091 92.4281 123.785 92.4281 123.491 92.4281C123.317 93.0062 123.108 93.5729 122.864 94.125C122.547 94.8393 122.169 95.5244 121.733 96.1725C122.484 96.7378 123.032 97.5318 123.293 98.435C123.409 98.8471 123.44 99.2785 123.382 99.7027C123.325 100.127 123.181 100.535 122.96 100.901C122.792 101.167 122.57 101.395 122.309 101.57C122.049 101.745 121.754 101.864 121.445 101.919C121.075 102.009 120.695 102.052 120.314 102.049C118.825 102.021 117.368 101.615 116.079 100.867C115.986 100.808 115.905 100.732 115.842 100.641C114.982 100.905 114.094 101.068 113.196 101.127C112.834 101.127 112.512 101.161 112.342 101.127H112.054C111.88 101.133 111.711 101.069 111.585 100.949C111.458 100.83 111.384 100.665 111.378 100.491C111.373 100.317 111.437 100.148 111.557 100.021C111.676 99.8946 111.841 99.8204 112.015 99.8152H112.303C112.501 99.8152 112.733 99.8152 113.066 99.7473C113.964 99.6347 114.844 99.4065 115.684 99.0685C116.236 98.8459 116.766 98.5712 117.267 98.2484C117.823 97.8883 118.338 97.4692 118.804 96.9984C119.304 96.4929 119.752 95.9375 120.139 95.3411C120.539 94.7204 120.88 94.0633 121.156 93.3784C121.43 92.6877 121.65 91.9766 121.812 91.2516C121.963 90.5446 122.069 89.8285 122.129 89.1079C122.168 88.4297 122.168 87.7499 122.129 87.0717C122.095 86.4212 122.027 85.816 121.948 85.2504C121.825 84.3479 121.636 83.4556 121.382 82.5806C121.292 82.2639 121.207 82.015 121.145 81.851L121.055 81.5908C121.009 81.4697 120.988 81.3409 120.993 81.2117C120.997 81.0825 121.027 80.9555 121.081 80.8378C121.134 80.7202 121.21 80.6142 121.305 80.526C121.399 80.4378 121.51 80.3691 121.631 80.3238C121.752 80.2785 121.881 80.2575 122.01 80.2619C122.139 80.2664 122.266 80.2963 122.384 80.3499C122.501 80.4034 122.607 80.4797 122.696 80.5742C122.784 80.6687 122.852 80.7797 122.898 80.9007L123.011 81.1835C123.079 81.3702 123.18 81.6417 123.299 81.9924C123.505 82.5968 123.677 83.2125 123.814 83.8363C125.558 84.2935 127.056 85.4111 127.992 86.9529ZM126.567 89.5491C126.687 88.9842 126.579 88.3948 126.267 87.9088C125.768 87.0776 125.023 86.4216 124.136 86.0309C124.229 87.0998 124.229 88.1748 124.136 89.2437C124.102 89.6396 124.045 90.0299 123.977 90.4258C125.668 90.4993 126.341 90.2392 126.567 89.5491ZM121.552 100.013C121.658 99.8343 121.726 99.6356 121.753 99.4294C121.779 99.2231 121.763 99.0137 121.705 98.814C121.532 98.2608 121.19 97.776 120.727 97.4282C120.484 97.6997 120.235 97.9599 119.969 98.2031C119.395 98.7343 118.766 99.2027 118.092 99.6002L117.702 99.8152C118.753 100.276 119.912 100.436 121.049 100.279C121.242 100.251 121.42 100.157 121.552 100.013Z" fill="#3B2D55"/>
<path d="M126.267 87.9092C126.579 88.3953 126.687 88.9846 126.567 89.5495C126.341 90.2396 125.668 90.4828 123.949 90.4262C124.017 90.0303 124.074 89.64 124.108 89.2441C124.2 88.1752 124.2 87.1003 124.108 86.0314C125.005 86.4171 125.76 87.0736 126.267 87.9092Z" fill="white"/>
<path d="M121.71 98.8142C121.768 99.0139 121.784 99.2234 121.758 99.4296C121.732 99.6359 121.664 99.8345 121.558 100.013C121.426 100.158 121.248 100.252 121.054 100.279C119.917 100.437 118.759 100.276 117.708 99.8154L118.098 99.6005C118.771 99.2029 119.4 98.7346 119.975 98.2034C120.24 97.9602 120.489 97.7 120.732 97.4285C121.196 97.7762 121.538 98.2611 121.71 98.8142Z" fill="white"/>
<path d="M110.381 67.1392C113.641 71.3265 115.109 76.6366 114.463 81.9052C113.816 87.1738 111.108 91.9709 106.932 95.2449C103.813 97.6832 100.041 99.1413 96.0936 99.4348C92.1462 99.7284 88.2003 98.8443 84.7551 96.8943C81.3099 94.9443 78.52 92.016 76.7383 88.4796C74.9566 84.9433 74.263 80.9578 74.7453 77.0272C75.2276 73.0965 76.8642 69.3971 79.4479 66.397C82.0317 63.3968 85.4467 61.2306 89.2611 60.1722C93.0754 59.1138 97.1178 59.2108 100.877 60.4509C104.636 61.691 107.944 64.0185 110.381 67.1392ZM105.722 93.6895C108.683 91.3745 110.847 88.1926 111.914 84.5878C112.98 80.983 112.895 77.1351 111.671 73.5809C110.446 70.0267 108.143 66.9436 105.083 64.7616C102.024 62.5797 98.3591 61.4078 94.6015 61.4094C91.7272 61.4106 88.8948 62.0988 86.34 63.4165C83.7852 64.7342 81.582 66.6434 79.9138 68.9851C78.2455 71.3268 77.1605 74.0333 76.749 76.8793C76.3375 79.7253 76.6114 82.6285 77.548 85.3472C78.4846 88.0659 80.0568 90.5215 82.1336 92.5095C84.2104 94.4974 86.7319 95.9604 89.488 96.7764C92.2441 97.5925 95.1552 97.7382 97.979 97.2012C100.803 96.6643 103.457 95.4603 105.722 93.6895Z" fill="#3B2D55"/>
<path d="M108.832 68.3499C111.765 72.1281 113.084 76.9146 112.501 81.663C111.917 86.4114 109.478 90.7354 105.717 93.6898C102.904 95.8881 99.5023 97.2024 95.9428 97.4665C92.3832 97.7307 88.8253 96.9328 85.7189 95.1739C82.6126 93.4149 80.0974 90.7739 78.4914 87.5848C76.8854 84.3956 76.2608 80.8017 76.6965 77.2573C77.1322 73.713 78.6087 70.3776 80.9392 67.6728C83.2698 64.9681 86.3497 63.0155 89.7895 62.0621C93.2293 61.1086 96.8744 61.1971 100.264 62.3163C103.653 63.4356 106.635 65.5353 108.832 68.3499Z" fill="white"/>
<path d="M92.8942 83.2256C95.5005 84.1929 97.909 91.0312 95.2009 92.9996C91.967 95.3413 84.6117 93.5143 81.0669 85.754C77.5221 77.9936 80.9425 71.2344 84.8266 70.3125C88.083 69.5432 91.6844 75.8386 90.7119 78.4461C90.0731 80.143 87.8512 81.6589 88.2244 82.4734C88.5975 83.2879 91.1755 82.5808 92.8942 83.2256Z" fill="#3B2D55"/>
<path d="M11.3073 79.6171H57.7063C58.1183 79.6172 58.5193 79.7505 58.8494 79.9972C59.1795 80.2438 59.421 80.5906 59.5381 80.9859L70.2347 116.897C70.3167 117.182 70.3318 117.481 70.2789 117.772C70.2259 118.063 70.1064 118.338 69.9295 118.576C69.7526 118.813 69.5233 119.006 69.2594 119.139C68.9956 119.273 68.7043 119.344 68.4086 119.346L23.2194 119.262C22.819 119.261 22.429 119.134 22.1044 118.9C21.7798 118.665 21.537 118.335 21.4102 117.955L9.51506 82.1341C9.41972 81.8483 9.39323 81.544 9.43775 81.2461C9.48228 80.9481 9.59656 80.6649 9.77127 80.4195C9.94599 80.1742 10.1762 79.9736 10.4431 79.8341C10.71 79.6947 11.0061 79.6203 11.3073 79.6171Z" fill="#7772AF"/>
<path d="M41.8023 94.7872H35.8942C35.8307 94.783 35.7671 94.7948 35.7093 94.8216C35.6516 94.8484 35.6015 94.8893 35.5637 94.9407C35.526 94.992 35.5018 95.052 35.4933 95.1151C35.4849 95.1783 35.4925 95.2425 35.5155 95.302L39.7161 110.331H46.5795L42.4694 95.302C42.4236 95.1585 42.3353 95.0324 42.2161 94.9404C42.0969 94.8485 41.9526 94.7951 41.8023 94.7872V94.7872Z" stroke="white" stroke-width="2.46903" stroke-linecap="round" stroke-linejoin="round"/>
<path d="M33.3564 101.529H27.4993C27.4357 101.524 27.372 101.536 27.3142 101.563C27.2564 101.589 27.2064 101.631 27.169 101.682C27.1316 101.734 27.108 101.794 27.1005 101.857C27.093 101.921 27.1018 101.985 27.1261 102.044L29.512 110.33H36.3754L34.0405 102.044C33.9937 101.898 33.9028 101.77 33.7803 101.678C33.6578 101.585 33.5097 101.534 33.3564 101.529V101.529Z" stroke="white" stroke-width="2.46903" stroke-linecap="round" stroke-linejoin="round"/>
<path d="M49.5199 84.9449H43.5666C43.503 84.9415 43.4396 84.9538 43.3818 84.9806C43.3241 85.0075 43.2737 85.048 43.2353 85.0988C43.1968 85.1496 43.1713 85.209 43.1611 85.2719C43.1508 85.3348 43.1562 85.3992 43.1766 85.4596L49.9213 110.347H56.7847L50.187 85.4596C50.142 85.3157 50.0538 85.1892 49.9345 85.0971C49.8151 85.0051 49.6704 84.9519 49.5199 84.9449Z" stroke="white" stroke-width="2.46903" stroke-linecap="round" stroke-linejoin="round"/>
<path d="M59.7979 114.018H28.0981" stroke="white" stroke-width="2.46903" stroke-miterlimit="10" stroke-linecap="round"/>
</svg>
