<svg width="175" height="139" viewBox="0 0 175 139" fill="none" xmlns="http://www.w3.org/2000/svg">
<path d="M25.9399 129.427H9.14355V81.4484L25.9399 72.2188V129.427Z" fill="#F2F2F2"/>
<path d="M25.9189 129.427H34.4843L34.7708 77.0848L25.9189 72.2188V129.427Z" fill="#E5E5E4"/>
<path d="M71.6963 128.692H88.4926V81.4484L71.6963 72.2188V128.692Z" fill="#E5E5E4"/>
<path d="M71.7174 129.427H63.1521L62.8655 77.0848L71.7174 72.2188V129.427Z" fill="#D2D2D2"/>
<path d="M34.6646 59.974V128.559H48.7278V50.5857L34.6646 59.974Z" fill="#D2D2D2"/>
<path d="M62.7963 59.974V128.559H48.7278V50.5857L62.7963 59.974Z" fill="#E5E5E4"/>
<path d="M48.6482 128.834H34.585V59.9321L48.6482 50.4856" stroke="#3B2D55" stroke-width="2.91" stroke-miterlimit="10" stroke-linecap="round"/>
<path d="M34.6115 76.9523L25.9188 72.1392L9.23926 81.2366V128.834H35.052" stroke="#3B2D55" stroke-width="2.91" stroke-miterlimit="10" stroke-linecap="round"/>
<path d="M47.6824 128.834H62.7115V59.9321L48.6482 50.4856" stroke="#3B2D55" stroke-width="2.91" stroke-miterlimit="10" stroke-linecap="round"/>
<path d="M63.0618 76.9523L71.7492 72.1392L88.4288 81.2366V128.834H62.6213" stroke="#3B2D55" stroke-width="2.91" stroke-miterlimit="10" stroke-linecap="round"/>
<path d="M48.6907 50.5225V129.358" stroke="#3B2D55" stroke-width="2.49" stroke-miterlimit="10"/>
<path d="M8.97925 88.3721L9.41441 89.3294L23.6634 82.8872V81.7341L8.97925 88.3721Z" fill="#3B2D55" stroke="#3B2D55" stroke-width="1.34" stroke-miterlimit="10"/>
<path d="M9.03247 96.4911L9.3615 97.4854L23.6636 92.7622V91.6567L9.03247 96.4911Z" fill="#3B2D55" stroke="#3B2D55" stroke-width="1.34" stroke-miterlimit="10"/>
<path d="M9.08545 104.435L9.30834 105.461L23.6635 102.383V101.309L9.08545 104.435Z" fill="#3B2D55" stroke="#3B2D55" stroke-width="1.34" stroke-miterlimit="10"/>
<path d="M9.13843 112.215L9.25518 113.257L23.6634 111.671V110.613L9.13843 112.215Z" fill="#3B2D55" stroke="#3B2D55" stroke-width="1.34" stroke-miterlimit="10"/>
<path d="M23.6633 119.737H9.37183V120.789H23.6633V119.737Z" fill="#3B2D55" stroke="#3B2D55" stroke-width="1.34" stroke-miterlimit="10"/>
<path d="M39.0959 64.0205V123.799" stroke="#3B2D55" stroke-width="2.5" stroke-miterlimit="10" stroke-linecap="round"/>
<path d="M43.4846 61.397V123.799" stroke="#3B2D55" stroke-width="2.5" stroke-miterlimit="10" stroke-linecap="round"/>
<path d="M58.1899 64.0205V123.799" stroke="#3B2D55" stroke-width="2.5" stroke-miterlimit="10" stroke-linecap="round"/>
<path d="M53.8013 61.397V123.799" stroke="#3B2D55" stroke-width="2.5" stroke-miterlimit="10" stroke-linecap="round"/>
<path d="M81.8906 110.586L82.9467 110.703V105.683L81.8906 105.456V110.586Z" fill="#3B2D55" stroke="#3B2D55" stroke-width="1.34" stroke-miterlimit="10"/>
<path d="M81.8906 96.9507V102.235L82.9467 102.462V97.2945L81.8906 96.9507Z" fill="#3B2D55" stroke="#3B2D55" stroke-width="1.34" stroke-miterlimit="10"/>
<path d="M81.8906 118.684H82.9467V113.871L81.8906 113.755V118.684Z" fill="#3B2D55" stroke="#3B2D55" stroke-width="1.34" stroke-miterlimit="10"/>
<path d="M81.8906 93.6294L82.9467 93.9785V88.7316L81.8906 88.2556V93.6294Z" fill="#3B2D55" stroke="#3B2D55" stroke-width="1.34" stroke-miterlimit="10"/>
<path d="M78.5525 86.7482L77.5017 86.2722V92.1803L78.5525 92.5293V86.7482Z" fill="#3B2D55" stroke="#3B2D55" stroke-width="1.34" stroke-miterlimit="10"/>
<path d="M78.5525 95.8455L77.5017 95.5017V101.293L78.5525 101.521V95.8455Z" fill="#3B2D55" stroke="#3B2D55" stroke-width="1.34" stroke-miterlimit="10"/>
<path d="M78.5525 113.39L77.5017 113.273V118.684H78.5525V113.39Z" fill="#3B2D55" stroke="#3B2D55" stroke-width="1.34" stroke-miterlimit="10"/>
<path d="M78.5525 104.742L77.5017 104.515V110.1L78.5525 110.216V104.742Z" fill="#3B2D55" stroke="#3B2D55" stroke-width="1.34" stroke-miterlimit="10"/>
<path d="M170.999 55.7585C170.999 62.4282 167.592 68.1511 162.736 70.5947C164.201 74.0697 166.36 81.3899 161.674 87.0282C160.024 89.0064 157.636 90.2388 155.02 90.9898C152.037 106.857 148.588 123.021 148.333 124.211C147.937 125.958 146.886 127.488 145.395 128.487C143.904 129.486 142.087 129.879 140.314 129.585C139.715 129.487 139.131 129.309 138.579 129.056C138.488 129.105 138.394 129.147 138.298 129.183C138.149 129.241 138.006 129.305 137.857 129.352C137.564 129.449 137.264 129.525 136.96 129.58C136.368 129.698 135.763 129.735 135.161 129.691C135.013 129.691 134.869 129.659 134.726 129.643H134.509H134.455H134.429H134.355H134.264C134.006 129.591 133.751 129.524 133.5 129.442L133.076 129.299L132.699 129.13C132.455 129.017 132.217 128.89 131.988 128.749C131.754 128.617 131.553 128.458 131.34 128.31C131.34 128.31 131.314 128.284 131.298 128.279C130.524 128.887 129.631 129.326 128.676 129.569C128.094 129.717 127.494 129.788 126.893 129.781L126.458 129.754H126.235H126.182H126.092H125.996L125.635 129.696H125.55H125.439L125.216 129.638L124.786 129.522L124.404 129.379C124.154 129.281 123.91 129.169 123.672 129.046C123.438 128.919 123.221 128.786 123.003 128.649C122.786 128.511 122.595 128.353 122.414 128.194C122.064 127.895 121.744 127.562 121.459 127.2C121.331 127.353 121.209 127.506 121.077 127.649C120.421 128.345 119.631 128.9 118.753 129.281C117.875 129.662 116.929 129.861 115.972 129.865H115.584H115.276H115.122L114.931 129.834L114.549 129.765C114.311 129.715 114.075 129.653 113.843 129.58C113.615 129.511 113.392 129.416 113.169 129.331C112.297 128.947 111.512 128.391 110.861 127.697C110.728 127.554 110.606 127.401 110.484 127.247C110.198 127.609 109.876 127.942 109.524 128.242C108.717 128.921 107.769 129.414 106.748 129.686C106.189 129.825 105.616 129.9 105.039 129.908H104.652L104.169 129.865C104.014 129.854 103.859 129.831 103.707 129.797C103.564 129.765 103.41 129.744 103.262 129.701C102.662 129.544 102.084 129.313 101.542 129.014C101.227 128.831 100.926 128.626 100.64 128.4C99.5369 129.282 98.1877 129.803 96.7765 129.892H96.5855C96.5166 129.897 96.4474 129.897 96.3785 129.892H95.8956C95.7391 129.885 95.5832 129.869 95.4286 129.844C95.2771 129.829 95.1265 129.806 94.9775 129.775C94.4172 129.663 93.8721 129.486 93.3536 129.247C92.8034 129.5 92.2214 129.677 91.6235 129.775C91.2482 129.838 90.8684 129.87 90.4878 129.871C88.8919 129.867 87.3446 129.323 86.099 128.329C84.8535 127.334 83.9835 125.948 83.6313 124.396C83.2599 122.64 75.9735 88.488 73.4209 70.6159C68.1777 67.9184 65.4287 61.6242 65.4287 55.9331C65.4287 48.9778 69.1435 43.0539 74.3124 40.8007C74.3124 40.7425 74.27 40.6896 74.2594 40.6314C73.8101 38.2271 73.8852 35.7546 74.4794 33.3818C75.0737 31.009 76.1733 28.7913 77.7035 26.8795C83.1431 20.0036 93.8206 16.5127 109.439 16.5127C129.658 16.5127 141.254 18.0307 148.179 21.585C156.468 25.8164 157.609 32.851 157.609 39.8222C165.044 39.764 170.999 46.9308 170.999 55.7585ZM168.733 55.3565C168.733 49.0095 165.103 43.8843 160.645 43.8843C159.785 43.9051 158.937 44.0947 158.15 44.4423C157.363 44.7899 156.653 45.2887 156.06 45.91C155.816 46.1533 155.582 46.4389 155.354 46.6875C155.122 46.9757 154.906 47.2759 154.707 47.5867C153.271 49.9225 152.535 52.618 152.584 55.3565C152.584 59.9052 154.462 63.8192 157.169 65.7022C157.465 65.9016 157.775 66.0784 158.098 66.2311C158.401 66.3805 158.717 66.5026 159.042 66.5961C159.571 66.7527 160.12 66.8329 160.671 66.8341C165.103 66.8341 168.759 61.6877 168.759 55.3565H168.733ZM159.642 85.3621C163.474 80.7764 161.526 74.4399 160.279 71.5097C159.633 71.6698 158.974 71.7742 158.31 71.8218C157.604 76.545 156.617 82.2362 155.534 88.0966C157.117 87.5539 158.533 86.6118 159.642 85.3621ZM153.417 88.7366C154.553 82.6382 155.593 76.6879 156.33 71.8112C149.405 71.1183 143.965 64.2053 143.965 55.7744C143.965 49.512 146.969 44.0905 151.347 41.4248C144.316 31.2061 131.664 24.9331 115.966 24.9331C91.5545 24.9331 74.5088 40.0549 74.5088 61.6983C74.5088 72.0704 85.4357 123.286 85.5471 123.804C85.8306 125.059 86.5846 126.159 87.6549 126.879C88.7252 127.599 90.031 127.884 91.3051 127.676C90.9468 127.323 90.6283 126.933 90.3552 126.512C90.0022 125.966 89.7271 125.373 89.5379 124.751C89.4891 124.596 89.4484 124.439 89.4159 124.28L89.3628 124.042L89.3362 123.926V123.82L89.1983 123L88.9276 121.36C88.7472 120.303 88.5721 119.213 88.3969 118.187C88.0467 116.124 87.7548 114.199 87.4895 112.543C86.9588 109.243 86.651 107.032 86.651 107.032C86.636 106.948 86.6378 106.861 86.6564 106.777C86.6749 106.694 86.7099 106.614 86.7591 106.544C86.8587 106.402 87.0106 106.306 87.1817 106.276C87.3527 106.245 87.5287 106.284 87.671 106.383C87.8133 106.483 87.9103 106.634 87.9405 106.805L88.1475 107.772C88.3439 108.714 88.6782 110.285 89.0709 112.263C89.3946 113.908 89.7926 115.817 90.1747 117.87C90.3764 118.899 90.5798 119.957 90.785 121.043C90.8912 121.572 90.9973 122.127 91.0981 122.672L91.2573 123.487V123.592V123.677L91.2998 123.846C91.3316 123.957 91.3476 124.079 91.39 124.185C91.6785 125.073 92.203 125.866 92.9078 126.48C93.0523 126.602 93.2028 126.717 93.3589 126.824C93.5786 126.97 93.8072 127.103 94.0435 127.221C94.1264 127.262 94.2114 127.299 94.2982 127.332C94.623 127.46 94.9586 127.559 95.3012 127.628H95.4126H95.6249C95.7268 127.644 95.8296 127.653 95.9327 127.655H96.2193C96.2758 127.66 96.3326 127.66 96.3891 127.655H96.5802C96.9892 127.626 97.3935 127.549 97.7848 127.427C98.3049 127.276 98.7962 127.04 99.2389 126.729C98.7426 126.016 98.3828 125.218 98.1775 124.375C98.1358 124.22 98.1021 124.063 98.0767 123.904C98.0767 123.746 98.0289 123.582 98.0077 123.428L97.9228 122.603C97.8963 122.307 97.8644 122.016 97.8379 121.725C97.8114 121.434 97.7901 121.196 97.7636 120.958C97.6521 119.869 97.546 118.8 97.4399 117.785C97.4399 117.531 97.3921 117.256 97.3656 117.029C97.1904 115.241 97.0472 113.575 96.9092 112.115C96.6067 108.799 96.4316 106.582 96.4316 106.582C96.4119 106.411 96.4615 106.238 96.5694 106.103C96.6774 105.967 96.8349 105.88 97.0074 105.86C97.1798 105.841 97.353 105.89 97.4888 105.998C97.6247 106.105 97.712 106.262 97.7318 106.434C97.7318 106.434 97.7848 106.789 97.875 107.407C98.0077 108.36 98.2359 109.946 98.5013 111.94C98.7188 113.591 98.9895 115.516 99.2442 117.584C99.3079 118.086 99.3716 118.599 99.4353 119.112C99.4989 119.626 99.5732 120.213 99.6475 120.768C99.6847 121.091 99.7271 121.419 99.7643 121.746C99.7961 121.969 99.8227 122.185 99.8492 122.408L99.95 123.233L100.014 123.582C100.03 123.698 100.055 123.813 100.088 123.926C100.198 124.387 100.377 124.829 100.619 125.237C100.804 125.549 101.023 125.84 101.271 126.105C101.326 126.17 101.384 126.232 101.447 126.29C101.629 126.468 101.826 126.63 102.036 126.777C102.2 126.888 102.365 126.993 102.534 127.094C102.923 127.302 103.337 127.46 103.766 127.565C103.867 127.591 103.978 127.607 104.079 127.628C104.178 127.65 104.28 127.666 104.381 127.676L104.663 127.702H105.034C105.44 127.694 105.844 127.643 106.239 127.549C106.899 127.371 107.517 127.064 108.056 126.645C108.595 126.226 109.046 125.705 109.38 125.11C109.304 124.92 109.242 124.723 109.195 124.523C109.132 124.304 109.082 124.082 109.046 123.857C109.008 123.635 108.983 123.41 108.972 123.185C108.972 123.074 108.972 122.952 108.972 122.852V122.566C108.972 122.286 108.972 122.037 108.972 121.741C108.972 121.149 108.961 120.567 108.94 119.996C108.908 117.88 108.876 115.928 108.86 114.178C108.86 111.723 108.823 109.671 108.828 108.243V105.985C108.824 105.812 108.889 105.645 109.008 105.52C109.128 105.395 109.292 105.322 109.465 105.318C109.638 105.314 109.806 105.379 109.932 105.498C110.057 105.617 110.13 105.78 110.134 105.953C110.134 106.075 110.187 106.868 110.267 108.185C110.352 109.613 110.458 111.66 110.574 114.114C110.681 116.277 110.776 118.758 110.893 121.424C110.893 121.524 110.893 121.625 110.893 121.731C110.893 121.836 110.893 122.069 110.893 122.26C110.893 122.344 110.893 122.429 110.893 122.519V122.804C110.893 122.9 110.893 122.968 110.893 123.053C110.893 123.138 110.893 123.27 110.93 123.381C110.927 123.432 110.927 123.483 110.93 123.534C110.956 123.697 110.994 123.858 111.041 124.016C111.082 124.174 111.133 124.33 111.195 124.481C111.289 124.707 111.395 124.928 111.514 125.142C111.724 125.511 111.977 125.853 112.267 126.163C112.736 126.655 113.302 127.046 113.928 127.311C114.088 127.364 114.241 127.438 114.406 127.48C114.565 127.529 114.726 127.57 114.889 127.602L115.112 127.644H115.229H115.382H115.69H115.918C116.599 127.648 117.274 127.514 117.901 127.249C118.527 126.984 119.094 126.595 119.564 126.105C119.858 125.798 120.112 125.457 120.323 125.089C120.443 124.876 120.547 124.655 120.636 124.428C120.755 124.133 120.84 123.826 120.891 123.513C120.908 123.462 120.919 123.408 120.923 123.354C120.923 123.238 120.923 123.106 120.955 122.984V122.746V122.461C120.955 122.371 120.955 122.286 120.955 122.196C120.955 122.022 120.955 121.852 120.955 121.667C120.955 121.482 120.955 121.429 120.955 121.318C121.066 118.673 121.156 116.203 121.268 114.051C121.385 111.597 121.485 109.55 121.576 108.122C121.655 106.805 121.698 106.006 121.703 105.889C121.707 105.717 121.78 105.553 121.905 105.434C122.031 105.315 122.199 105.251 122.372 105.255C122.545 105.259 122.709 105.332 122.829 105.457C122.948 105.582 123.013 105.749 123.008 105.921V108.18C123.008 109.608 123.008 111.66 122.977 114.114C122.977 115.87 122.924 117.817 122.892 119.932C122.892 120.504 122.892 121.085 122.86 121.672C122.86 121.947 122.86 122.201 122.86 122.498V122.979V123.122C122.852 123.333 122.829 123.543 122.791 123.751C122.731 124.19 122.622 124.621 122.467 125.036C122.772 125.572 123.167 126.052 123.635 126.454C123.762 126.57 123.916 126.665 124.059 126.782C124.203 126.898 124.362 126.972 124.532 127.062C124.703 127.151 124.881 127.228 125.062 127.295L125.333 127.395L125.593 127.464L125.72 127.501H125.784H125.874L126.235 127.559H126.325H126.516H126.824C127.251 127.56 127.677 127.51 128.092 127.411C128.714 127.263 129.3 126.996 129.817 126.623C130.026 126.474 130.224 126.312 130.412 126.137C130.472 126.077 130.529 126.013 130.581 125.946C130.829 125.682 131.051 125.395 131.245 125.089V125.058C131.303 124.957 131.351 124.851 131.404 124.751C131.465 124.651 131.513 124.545 131.547 124.433L131.675 124.111L131.76 123.809C131.818 123.568 131.864 123.325 131.898 123.079L132.004 122.254C132.03 122.032 132.057 121.815 132.089 121.593C132.126 121.265 132.168 120.937 132.211 120.615C132.28 120.086 132.349 119.504 132.418 118.959C132.487 118.414 132.55 117.933 132.609 117.431C132.863 115.362 133.139 113.437 133.352 111.787C133.617 109.793 133.845 108.206 133.983 107.254C134.068 106.635 134.121 106.281 134.121 106.281C134.141 106.109 134.228 105.952 134.364 105.844C134.5 105.737 134.673 105.687 134.845 105.707C135.018 105.727 135.175 105.814 135.283 105.949C135.391 106.085 135.441 106.257 135.421 106.429C135.421 106.429 135.246 108.645 134.949 111.967C134.806 113.421 134.662 115.087 134.487 116.875C134.487 117.124 134.44 117.378 134.413 117.631C134.307 118.689 134.201 119.747 134.095 120.805L134.015 121.572C134.015 121.863 133.957 122.154 133.93 122.45L133.845 123.275V123.349V123.402V123.502L133.813 123.714L133.781 123.915C133.781 123.984 133.744 124.079 133.723 124.164L133.59 124.661L133.421 125.116C133.368 125.268 133.304 125.417 133.23 125.56L133.012 125.994C132.895 126.189 132.773 126.375 132.64 126.56C132.752 126.634 132.863 126.713 132.985 126.787C133.147 126.885 133.313 126.973 133.484 127.052L133.755 127.173L134.01 127.253C134.221 127.326 134.437 127.384 134.657 127.427H134.715H134.774H134.928L135.241 127.464C135.629 127.483 136.018 127.465 136.403 127.411H136.514C136.73 127.373 136.942 127.322 137.151 127.258L137.464 127.141H137.512C137.601 127.109 137.688 127.072 137.772 127.03C138.014 126.922 138.243 126.789 138.457 126.634C138.611 126.523 138.765 126.412 138.913 126.29C139.26 125.986 139.567 125.639 139.826 125.259C140.068 124.875 140.264 124.465 140.41 124.037L140.436 123.963L140.463 123.862L140.511 123.661L140.558 123.455V123.407V123.37V123.296L140.712 122.482C140.818 121.953 140.919 121.392 141.025 120.853C141.232 119.795 141.439 118.737 141.636 117.679C142.023 115.627 142.421 113.717 142.745 112.073C143.143 110.094 143.467 108.523 143.668 107.582C143.796 106.963 143.87 106.614 143.87 106.614C143.9 106.444 143.997 106.292 144.139 106.193C144.282 106.094 144.458 106.055 144.629 106.085C144.8 106.115 144.952 106.212 145.051 106.354C145.151 106.496 145.19 106.671 145.159 106.842C145.159 106.842 144.841 109.052 144.321 112.353C144.056 114.008 143.79 115.934 143.413 117.996C143.244 119.028 143.069 120.112 142.883 121.17L142.612 122.81L142.474 123.629V123.735L142.442 123.883L142.395 124.09L142.347 124.291V124.396L142.31 124.518L142.145 125.015C142.087 125.179 142.012 125.311 141.949 125.465C141.814 125.76 141.66 126.046 141.487 126.322C141.211 126.739 140.894 127.129 140.542 127.485C141.819 127.693 143.126 127.407 144.198 126.685C145.269 125.963 146.023 124.861 146.306 123.603C146.364 123.323 149.798 107.244 152.812 91.2913C150.725 91.7301 148.602 91.9779 146.47 92.0318C145.207 92.0318 144.013 91.9789 142.952 91.8996C141.699 93.4863 138.865 94.6023 135.565 94.6023C131.107 94.6023 127.493 92.5713 127.493 90.0695C127.493 87.5677 131.107 85.5367 135.565 85.5367C139.566 85.5367 142.888 87.1763 143.525 89.3237C146.834 89.5958 150.164 89.3982 153.417 88.7366ZM154.128 40.1554C154.079 39.9941 154.054 39.8266 154.054 39.6582C154.054 31.4705 152.027 27.3926 146.576 24.6052C140.251 21.3735 128.798 19.9295 109.428 19.9295C95.2163 19.9295 85.234 23.0237 80.5533 28.8788C79.343 30.368 78.4658 32.0978 77.9808 33.9523C77.4957 35.8068 77.4138 37.7432 77.7407 39.6318C77.7437 39.6617 77.7437 39.6918 77.7407 39.7217C78.1281 39.6847 78.5261 39.6582 78.9188 39.6582C79.1152 39.6582 79.2956 39.6582 79.4495 39.6582C80.9987 37.5208 82.7783 35.5592 84.7564 33.8084C92.6106 26.8266 103.681 22.9814 115.929 22.9814C128.177 22.9814 139.248 26.8266 147.107 33.8084C149.352 35.7982 151.338 38.0601 153.019 40.5415C153.412 40.3987 153.767 40.2665 154.128 40.1554Z" fill="#3B2D55"/>
<path d="M160.645 43.9004C165.102 43.9004 168.732 49.0468 168.732 55.3727C168.732 61.6985 165.102 66.8502 160.645 66.8502C160.093 66.849 159.544 66.7688 159.015 66.6122C158.69 66.5188 158.374 66.3966 158.071 66.2472C157.748 66.0945 157.438 65.9177 157.142 65.7183C154.436 63.8618 152.557 59.9002 152.557 55.3727C152.508 52.6341 153.244 49.9386 154.68 47.6028C154.88 47.292 155.096 46.9919 155.327 46.7037C155.555 46.4286 155.789 46.1747 156.033 45.9262C156.629 45.3017 157.344 44.8011 158.135 44.4534C158.927 44.1057 159.78 43.9178 160.645 43.9004Z" fill="#CDDCE2"/>
<path d="M156.331 71.7957C155.593 76.6882 154.553 82.6385 153.417 88.7211C150.164 89.3844 146.834 89.5839 143.525 89.3135C142.888 87.1661 139.566 85.5264 135.565 85.5264C131.107 85.5264 127.493 87.5575 127.493 90.0593C127.493 92.5611 131.107 94.5921 135.565 94.5921C138.866 94.5921 141.699 93.4814 142.952 91.8893C144.013 91.9687 145.207 92.0216 146.47 92.0216C148.624 92.0426 150.776 91.8655 152.897 91.4926C149.883 107.445 146.449 123.524 146.391 123.804C146.106 125.059 145.352 126.158 144.282 126.878C143.212 127.597 141.907 127.883 140.633 127.676C140.985 127.319 141.301 126.93 141.577 126.512C141.75 126.237 141.904 125.951 142.039 125.656C142.103 125.502 142.177 125.37 142.235 125.206L142.4 124.709L142.437 124.587V124.481L142.485 124.28L142.533 124.074L142.564 123.926V123.82L142.702 123L142.973 121.361C143.154 120.303 143.329 119.213 143.504 118.187C143.854 116.124 144.146 114.199 144.411 112.544C144.942 109.243 145.25 107.032 145.25 107.032C145.265 106.948 145.263 106.861 145.244 106.778C145.226 106.694 145.191 106.615 145.142 106.545C145.092 106.474 145.03 106.414 144.957 106.368C144.885 106.322 144.804 106.291 144.719 106.276C144.634 106.261 144.548 106.263 144.464 106.281C144.38 106.3 144.3 106.335 144.23 106.384C144.159 106.433 144.099 106.495 144.053 106.568C144.007 106.64 143.975 106.72 143.96 106.805C143.96 106.805 143.886 107.154 143.759 107.773C143.557 108.714 143.228 110.285 142.835 112.263C142.511 113.908 142.113 115.818 141.726 117.87C141.53 118.901 141.323 119.959 141.116 121.043C141.01 121.572 140.909 122.128 140.803 122.672L140.649 123.487V123.561V123.598V123.646L140.601 123.852L140.553 124.053L140.527 124.153L140.5 124.227C140.354 124.656 140.158 125.066 139.916 125.449C139.657 125.83 139.35 126.177 139.004 126.481C138.855 126.602 138.701 126.713 138.547 126.824C138.333 126.98 138.104 127.113 137.863 127.221C137.778 127.263 137.691 127.3 137.603 127.332H137.555L137.242 127.449C137.033 127.513 136.82 127.564 136.605 127.602H136.493C136.109 127.656 135.719 127.674 135.331 127.655L135.018 127.618H134.864H134.795H134.737C134.517 127.575 134.301 127.517 134.089 127.443L133.835 127.364L133.564 127.242C133.393 127.164 133.226 127.075 133.065 126.978C132.943 126.904 132.832 126.824 132.72 126.75C132.853 126.565 132.975 126.38 133.092 126.184L133.309 125.751C133.384 125.607 133.448 125.459 133.5 125.306L133.67 124.852L133.803 124.354C133.803 124.27 133.851 124.175 133.861 124.106L133.893 123.905L133.925 123.693V123.593V123.54V123.466L134.01 122.641C134.036 122.344 134.068 122.054 134.095 121.763L134.174 120.996C134.28 119.906 134.387 118.838 134.493 117.822C134.519 117.568 134.546 117.293 134.567 117.066C134.742 115.278 134.885 113.612 135.029 112.158C135.326 108.836 135.501 106.62 135.501 106.62C135.521 106.448 135.471 106.275 135.363 106.14C135.255 106.004 135.098 105.917 134.925 105.898C134.753 105.878 134.58 105.928 134.444 106.035C134.308 106.143 134.221 106.3 134.201 106.472C134.201 106.472 134.148 106.826 134.063 107.445C133.925 108.397 133.697 109.984 133.431 111.978C133.214 113.628 132.943 115.553 132.688 117.621C132.63 118.124 132.561 118.637 132.497 119.15C132.434 119.663 132.359 120.25 132.29 120.805C132.248 121.128 132.205 121.456 132.168 121.784C132.136 122.006 132.11 122.223 132.083 122.445L131.977 123.27C131.944 123.516 131.898 123.759 131.839 124L131.754 124.302L131.627 124.624C131.592 124.735 131.544 124.842 131.484 124.941C131.431 125.042 131.383 125.148 131.324 125.248V125.28C131.131 125.586 130.909 125.873 130.661 126.137C130.609 126.204 130.552 126.268 130.491 126.327C130.304 126.502 130.106 126.665 129.897 126.814C129.379 127.186 128.793 127.454 128.172 127.602C127.757 127.701 127.331 127.75 126.904 127.75H126.596H126.405H126.315L125.954 127.692H125.864H125.8L125.673 127.655L125.413 127.586L125.142 127.486C124.96 127.419 124.783 127.341 124.611 127.253C124.441 127.163 124.288 127.062 124.139 126.973C123.99 126.883 123.842 126.761 123.714 126.645C123.246 126.243 122.851 125.763 122.547 125.227C122.702 124.812 122.81 124.381 122.871 123.942C122.909 123.734 122.932 123.524 122.94 123.312V123.17V122.688C122.94 122.408 122.94 122.159 122.94 121.863C122.94 121.276 122.94 120.694 122.971 120.123C123.003 118.007 123.04 116.05 123.056 114.305C123.056 111.851 123.093 109.799 123.088 108.37V106.112C123.092 105.939 123.028 105.772 122.908 105.647C122.789 105.522 122.624 105.45 122.451 105.446C122.278 105.441 122.111 105.506 121.985 105.625C121.86 105.744 121.787 105.908 121.783 106.08C121.783 106.202 121.735 106.995 121.655 108.312C121.565 109.74 121.464 111.787 121.348 114.241C121.236 116.394 121.146 118.859 121.034 121.509C121.034 121.62 121.034 121.742 121.034 121.858C121.034 121.974 121.034 122.191 121.034 122.387C121.034 122.477 121.034 122.561 121.034 122.651V122.937V123.175C121.034 123.297 121.034 123.429 121.003 123.545C120.999 123.599 120.988 123.652 120.971 123.704C120.92 124.017 120.834 124.324 120.716 124.619C120.627 124.846 120.522 125.067 120.403 125.28C120.192 125.648 119.937 125.989 119.644 126.296C119.173 126.786 118.607 127.175 117.98 127.44C117.353 127.704 116.679 127.839 115.998 127.835H115.77H115.462H115.308H115.192L114.969 127.792C114.806 127.761 114.644 127.72 114.486 127.671C114.321 127.628 114.167 127.554 114.008 127.501C113.381 127.236 112.816 126.846 112.347 126.354C112.056 126.044 111.804 125.701 111.593 125.333C111.475 125.119 111.368 124.898 111.275 124.672C111.213 124.52 111.161 124.365 111.121 124.206C111.073 124.048 111.036 123.888 111.01 123.725C111.007 123.674 111.007 123.623 111.01 123.572C111.01 123.461 110.983 123.355 110.973 123.244C110.962 123.133 110.973 123.09 110.973 122.995V122.709C110.973 122.62 110.973 122.535 110.973 122.45C110.973 122.276 110.973 122.106 110.973 121.921C110.973 121.736 110.973 121.715 110.973 121.615C110.856 118.97 110.76 116.468 110.654 114.305C110.537 111.851 110.431 109.804 110.346 108.376C110.267 107.059 110.219 106.26 110.214 106.144C110.209 105.971 110.137 105.807 110.011 105.688C109.886 105.569 109.718 105.505 109.545 105.509C109.372 105.513 109.208 105.586 109.088 105.711C108.969 105.836 108.904 106.003 108.908 106.175V108.434C108.908 109.862 108.908 111.914 108.94 114.368C108.94 116.124 108.988 118.071 109.02 120.187C109.02 120.758 109.03 121.34 109.051 121.932C109.051 122.207 109.051 122.461 109.051 122.757V123.043C109.051 123.143 109.051 123.265 109.051 123.376C109.063 123.601 109.088 123.825 109.126 124.048C109.162 124.272 109.212 124.495 109.274 124.714C109.322 124.914 109.384 125.11 109.46 125.301C109.125 125.895 108.675 126.417 108.136 126.836C107.596 127.254 106.978 127.562 106.318 127.739C105.923 127.833 105.52 127.885 105.114 127.893H104.742L104.461 127.866C104.359 127.857 104.258 127.841 104.158 127.819C104.058 127.819 103.946 127.782 103.845 127.755C103.417 127.65 103.003 127.492 102.614 127.285C102.444 127.184 102.28 127.078 102.115 126.967C101.906 126.821 101.709 126.658 101.526 126.481C101.464 126.423 101.405 126.361 101.351 126.296C101.102 126.031 100.883 125.74 100.698 125.428C100.457 125.02 100.278 124.578 100.168 124.116C100.135 124.004 100.11 123.889 100.093 123.773L100.03 123.424L99.9289 122.598C99.9289 122.376 99.8758 122.159 99.844 121.937C99.8068 121.609 99.7644 121.281 99.7272 120.959C99.6529 120.43 99.5839 119.848 99.515 119.303C99.446 118.758 99.3876 118.277 99.3239 117.775C99.0692 115.707 98.7932 113.781 98.5809 112.131C98.3156 110.137 98.0874 108.55 97.9547 107.598C97.8645 106.979 97.8114 106.625 97.8114 106.625C97.7917 106.453 97.7043 106.296 97.5685 106.189C97.4326 106.081 97.2595 106.032 97.0871 106.051C96.9146 106.071 96.7571 106.158 96.6491 106.293C96.5411 106.429 96.4915 106.601 96.5113 106.773C96.5113 106.773 96.6864 108.989 96.9889 112.306C97.1268 113.765 97.2701 115.432 97.4453 117.219C97.4718 117.468 97.4983 117.722 97.5196 117.976C97.6257 119.033 97.7318 120.091 97.8433 121.149C97.8698 121.403 97.8963 121.678 97.9176 121.916C97.9388 122.154 97.976 122.498 98.0025 122.794L98.0874 123.619C98.0874 123.773 98.1352 123.937 98.1564 124.095C98.1818 124.254 98.2155 124.411 98.2572 124.566C98.4625 125.409 98.8223 126.207 99.3186 126.92C98.8984 127.232 98.4308 127.475 97.9335 127.639C97.5422 127.761 97.1379 127.838 96.7288 127.866H96.5378C96.4813 127.871 96.4245 127.871 96.368 127.866H96.0814C95.9783 127.865 95.8754 127.856 95.7736 127.84H95.5613H95.4499C95.1073 127.771 94.7716 127.672 94.4469 127.544C94.3601 127.511 94.275 127.474 94.1921 127.433C93.9559 127.315 93.7273 127.182 93.5076 127.036C93.3515 126.929 93.2009 126.814 93.0565 126.692C92.3517 126.078 91.8271 125.285 91.5387 124.397C91.4962 124.291 91.4803 124.169 91.4485 124.058L91.406 123.889V123.804V123.699L91.2468 122.884C91.146 122.355 91.0399 121.794 90.9337 121.255C90.7285 120.176 90.5251 119.118 90.3234 118.081C89.9413 116.029 89.5433 114.12 89.2196 112.475C88.8216 110.497 88.4925 108.926 88.2962 107.984L88.0892 107.016C88.059 106.846 87.962 106.695 87.8197 106.595C87.6774 106.496 87.5013 106.457 87.3303 106.488C87.1593 106.518 87.0073 106.614 86.9078 106.756C86.8083 106.898 86.7694 107.073 86.7996 107.244C86.7996 107.244 87.1181 109.455 87.6381 112.755C87.9035 114.411 88.1954 116.336 88.5456 118.399C88.7154 119.43 88.8906 120.514 89.0763 121.572L89.3469 123.212L89.4849 124.032V124.138L89.5115 124.254L89.5645 124.492C89.5971 124.651 89.6378 124.808 89.6866 124.963C89.8758 125.585 90.1509 126.177 90.5038 126.724C90.777 127.145 91.0955 127.535 91.4538 127.888C90.1797 128.096 88.8739 127.811 87.8036 127.091C86.7333 126.371 85.9793 125.271 85.6958 124.016C85.5844 123.487 74.6575 72.2823 74.6575 61.9102C74.6575 40.2668 91.7032 25.145 116.115 25.145C131.813 25.145 144.464 31.4021 151.496 41.6209C147.118 44.2654 144.114 49.708 144.114 55.9704C143.965 64.1898 149.405 71.1028 156.331 71.7957ZM141.471 69.68C141.534 68.7588 141.446 67.8335 141.211 66.9402C140.961 65.9833 140.525 65.0847 139.927 64.2956L139.683 63.9941C139.598 63.8884 139.534 63.8249 139.46 63.7403L139.402 63.6768L139.348 63.6239L139.306 63.5816C139.253 63.5234 139.189 63.4652 139.131 63.4123C139.002 63.3052 138.863 63.2096 138.717 63.1267C138.151 62.8212 137.505 62.694 136.865 62.7618C136.33 62.813 135.805 62.9376 135.305 63.132C134.847 63.3054 134.402 63.5104 133.973 63.7455C133.152 64.1966 132.36 64.6965 131.6 65.2424C130.104 66.3002 128.708 67.4533 127.355 68.5799C126.002 69.7065 124.675 70.8436 123.391 71.9173C120.827 74.07 118.402 76.0112 116.221 77.5186C114.495 78.7493 112.666 79.8305 110.755 80.7503C110.065 81.0729 109.508 81.2792 109.126 81.4273C108.744 81.5754 108.537 81.6283 108.537 81.6283C108.377 81.6797 108.242 81.7896 108.161 81.9358C108.079 82.0821 108.056 82.2539 108.096 82.4164C108.14 82.5833 108.248 82.7261 108.398 82.8134C108.547 82.9007 108.725 82.9253 108.892 82.8818H108.919L109.556 82.6914C109.97 82.5592 110.575 82.3529 111.317 82.0409C112.06 81.7288 112.952 81.3162 113.934 80.7873C114.348 80.5652 114.788 80.3166 115.229 80.0468C116.932 82.2524 118.365 82.8078 119.368 82.8078C119.711 82.8103 120.051 82.7419 120.366 82.6068C123.364 81.3586 123.019 77.2859 122.351 75.0961C123.078 74.5302 123.821 73.9484 124.569 73.3507L127.307 71.1557C128.284 72.679 129.541 74.2763 131.351 74.2763C131.594 74.2731 131.836 74.2447 132.073 74.1917C132.646 76.4713 133.134 78.6716 133.967 79.4809C133.803 79.5973 133.644 79.6978 133.49 79.7877C133.033 80.0623 132.537 80.2673 132.02 80.3959C131.89 80.4249 131.759 80.4444 131.627 80.4541H131.494H131.441C131.278 80.4745 131.128 80.5556 131.023 80.6812C130.917 80.8068 130.862 80.9676 130.87 81.1314C130.879 81.2953 130.948 81.45 131.066 81.5647C131.184 81.6794 131.34 81.7455 131.505 81.75H131.701C131.829 81.75 132.02 81.75 132.264 81.6971C132.937 81.5797 133.586 81.3527 134.185 81.0253C136.191 79.8819 137.88 78.2586 139.099 76.3021C139.953 75.0286 140.609 73.6342 141.047 72.1659C141.281 71.3537 141.425 70.5183 141.477 69.6747L141.471 69.68ZM121.528 57.7952C121.529 53.8687 120.362 50.0301 118.174 46.765C115.985 43.4998 112.875 40.9547 109.235 39.4516C105.596 37.9485 101.591 37.555 97.7269 38.3207C93.8629 39.0865 90.3136 40.9772 87.5279 43.7536C84.7422 46.53 82.8452 50.0675 82.0769 53.9186C81.3085 57.7697 81.7034 61.7614 83.2115 65.3888C84.7196 69.0161 87.2732 72.1163 90.5493 74.2971C93.8254 76.4779 97.6769 77.6413 101.616 77.6402C106.896 77.6346 111.957 75.542 115.69 71.8216C119.423 68.1011 121.522 63.0567 121.528 57.7952Z" fill="#57D1E5"/>
<path d="M141.216 66.9349C141.451 67.8282 141.539 68.7534 141.476 69.6747C141.423 70.5293 141.276 71.3755 141.036 72.1977C140.599 73.6659 139.942 75.0603 139.088 76.3338C137.869 78.2904 136.18 79.9136 134.174 81.0571C133.575 81.3844 132.926 81.6114 132.253 81.7288C132.009 81.7605 131.818 81.7764 131.69 81.7817H131.494C131.33 81.7773 131.173 81.7111 131.055 81.5964C130.937 81.4817 130.868 81.327 130.86 81.1632C130.852 80.9994 130.906 80.8385 131.012 80.7129C131.118 80.5874 131.267 80.5062 131.43 80.4858H131.483H131.616C131.748 80.4761 131.88 80.4566 132.009 80.4276C132.526 80.299 133.022 80.094 133.479 79.8194C133.633 79.7295 133.792 79.629 133.956 79.5126C133.134 78.7034 132.635 76.5031 132.062 74.2234C131.825 74.2764 131.583 74.3048 131.34 74.308C129.53 74.308 128.273 72.7213 127.296 71.1874L124.558 73.3824C123.81 73.9801 123.067 74.5619 122.34 75.1279C122.998 77.3176 123.353 81.3903 120.355 82.6385C120.04 82.7736 119.7 82.842 119.357 82.8395C118.354 82.8395 116.921 82.2841 115.218 80.0786C114.777 80.3483 114.337 80.6075 113.923 80.819C112.941 81.348 112.055 81.7605 111.307 82.0726C110.558 82.3846 109.959 82.6015 109.545 82.7232L108.908 82.9136H108.881C108.714 82.957 108.536 82.9324 108.387 82.8451C108.237 82.7578 108.129 82.615 108.085 82.4481C108.045 82.2856 108.068 82.1138 108.15 81.9676C108.232 81.8213 108.366 81.7114 108.526 81.66C108.526 81.66 108.749 81.5913 109.115 81.459C109.481 81.3268 110.054 81.1047 110.744 80.782C112.659 79.8593 114.492 78.7746 116.221 77.5397C118.402 76.0323 120.827 74.0912 123.39 71.9385C124.675 70.8806 125.991 69.7329 127.355 68.601C128.719 67.4691 130.12 66.3372 131.6 65.2635C132.36 64.7176 133.152 64.2177 133.972 63.7667C134.408 63.5306 134.861 63.3256 135.326 63.1531C135.826 62.9588 136.351 62.8342 136.886 62.7829C137.526 62.7151 138.172 62.8424 138.738 63.1478C138.884 63.2308 139.023 63.3263 139.152 63.4335C139.21 63.4863 139.274 63.5445 139.327 63.6027L139.369 63.645L139.423 63.6979L139.481 63.7614C139.555 63.846 139.619 63.9095 139.704 64.0153L139.948 64.3168C140.537 65.0992 140.968 65.9885 141.216 66.9349ZM133.203 70.7749C133.704 69.445 133.704 67.9791 133.203 66.6493L132.784 66.9349C131.871 67.5696 130.985 68.2466 130.098 68.9289L128.83 69.9339C130.024 71.8115 130.735 72.4357 131.547 72.314C131.623 72.3033 131.698 72.2856 131.77 72.2611C132.098 72.1234 132.394 71.9206 132.64 71.6651C132.886 71.4095 133.078 71.1066 133.203 70.7749ZM119.723 81.1258C121.315 80.4541 121.347 77.9999 120.933 76.1751C119.607 77.1695 118.328 78.0845 117.118 78.8779L116.614 79.2006C117.813 80.7238 118.975 81.4538 119.723 81.1258Z" fill="#3B2D55"/>
<path d="M133.203 66.6438C133.704 67.9736 133.704 69.4395 133.203 70.7694C133.08 71.0997 132.891 71.4017 132.647 71.6571C132.404 71.9126 132.111 72.1162 131.786 72.2556C131.713 72.2801 131.639 72.2978 131.563 72.3085C130.751 72.4302 130.04 71.8061 128.846 69.9284L130.114 68.9234C131.001 68.2411 131.887 67.5641 132.8 66.9294L133.203 66.6438Z" fill="white"/>
<path d="M120.933 76.1646C121.347 77.9893 121.326 80.4435 119.723 81.1152C118.975 81.4326 117.823 80.7133 116.614 79.19L117.118 78.8673C118.344 78.0845 119.607 77.1695 120.933 76.1646Z" fill="white"/>
<path d="M101.606 37.95C105.544 37.951 109.393 39.1158 112.666 41.297C115.94 43.4783 118.491 46.578 119.998 50.2043C121.504 53.8306 121.898 57.8206 121.129 61.6698C120.36 65.519 118.463 69.0546 115.678 71.8294C112.893 74.6043 109.345 76.4938 105.483 77.2591C101.621 78.0244 97.6174 77.6311 93.9794 76.1289C90.3414 74.6268 87.2319 72.0832 85.0443 68.8198C82.8566 65.5564 81.689 61.7198 81.689 57.795C81.6946 52.5326 83.7949 47.4874 87.529 43.7668C91.263 40.0461 96.3257 37.9542 101.606 37.95ZM119.559 57.795C119.56 54.2545 118.507 50.7933 116.535 47.8491C114.562 44.9048 111.757 42.6099 108.475 41.2546C105.194 39.8992 101.582 39.5443 98.0982 40.2347C94.6141 40.9252 91.4137 42.63 88.9018 45.1335C86.39 47.637 84.6795 50.8267 83.9867 54.2992C83.2939 57.7717 83.65 61.3709 85.0099 64.6417C86.3698 67.9124 88.6724 70.7078 91.6265 72.6741C94.5806 74.6404 98.0534 75.6894 101.606 75.6883C106.365 75.6827 110.929 73.7958 114.294 70.4413C117.66 67.0869 119.553 62.5389 119.559 57.795Z" fill="#3B2D55"/>
<path d="M101.606 39.9019C105.156 39.9029 108.627 40.9532 111.579 42.92C114.53 44.8868 116.831 47.6817 118.189 50.9514C119.547 54.2211 119.901 57.8186 119.208 61.2893C118.515 64.7599 116.804 67.9477 114.293 70.4496C111.782 72.9515 108.583 74.6551 105.101 75.3451C101.619 76.0351 98.009 75.6805 94.7288 74.326C91.4486 72.9715 88.645 70.6781 86.6725 67.7357C84.7 64.7932 83.6472 61.3339 83.6472 57.7952C83.6528 53.0504 85.5469 48.5016 88.9137 45.147C92.2805 41.7924 96.845 39.9061 101.606 39.9019Z" fill="white"/>
<path d="M103.564 55.7324C101.6 53.786 102.232 46.6244 105.496 45.9633C109.386 45.1752 115.297 49.8402 115.324 58.2977C115.351 66.7551 109.486 71.4519 105.57 70.6902C102.301 70.0502 101.627 62.894 103.58 60.937C104.864 59.6517 107.491 59.2127 107.486 58.3188C107.48 57.4249 104.854 57.0071 103.564 55.7324Z" fill="#3B2D55"/>
</svg>
