<svg width="197" height="144" viewBox="0 0 197 144" fill="none" xmlns="http://www.w3.org/2000/svg">
<path d="M44.5439 68.4932H44.4454C42.0175 68.4444 39.7037 67.452 37.9934 65.7256C36.2831 63.9993 35.3106 61.6745 35.2814 59.243C35.2523 56.8116 36.1688 54.4641 37.8372 52.6972C39.5056 50.9302 41.795 49.8824 44.2211 49.7753V49.5671C44.226 46.7416 44.8685 43.9536 46.1004 41.4116C47.3323 38.8695 49.122 36.639 51.3356 34.8866C53.5492 33.1343 56.1296 31.9053 58.8841 31.2916C61.6385 30.6779 64.4959 30.6953 67.2427 31.3425C68.0321 24.5452 71.279 18.2724 76.3708 13.7081C81.4625 9.14379 88.0467 6.6037 94.8806 6.56729C101.715 6.53088 108.325 9.00067 113.465 13.5105C118.605 18.0203 121.919 24.2581 122.78 31.0466C123.697 30.911 124.623 30.8432 125.549 30.8438C128.842 30.8391 132.077 31.7063 134.926 33.3577C137.776 35.009 140.138 37.3857 141.774 40.2466C142.108 40.2466 142.426 40.2082 142.732 40.2082C146.432 40.2811 149.956 41.804 152.547 44.4499C155.137 47.0957 156.589 50.6534 156.589 54.3589C156.589 58.0644 155.137 61.6221 152.547 64.268C149.956 66.9138 146.432 68.4367 142.732 68.5096H44.5439V68.4932Z" fill="white"/>
<path d="M95.0307 7.67111C101.773 7.66887 108.27 10.2017 113.236 14.7682C118.202 19.3347 121.274 25.6018 121.845 32.3286C125.614 31.5117 129.548 31.9559 133.041 33.593C136.535 35.2302 139.395 37.9698 141.183 41.3917C141.701 41.3263 142.222 41.2915 142.743 41.2876C146.204 41.2876 149.524 42.6644 151.972 45.1152C154.419 47.566 155.794 50.8901 155.794 54.356C155.794 57.822 154.419 61.146 151.972 63.5969C149.524 66.0477 146.204 67.4245 142.743 67.4245H44.544C42.387 67.3611 40.34 66.4562 38.8397 64.903C37.3395 63.3498 36.5046 61.2711 36.5131 59.1103C36.5217 56.9495 37.3731 54.8775 38.8856 53.3362C40.3981 51.795 42.4522 50.9065 44.6097 50.8602C44.8614 50.8602 45.1131 50.8602 45.3539 50.8985C45.3211 50.4602 45.2992 50.0218 45.2992 49.578C45.3001 46.808 45.9518 44.0771 47.2014 41.6059C48.4511 39.1347 50.2638 36.9924 52.4931 35.3523C54.7223 33.7122 57.3056 32.6201 60.0342 32.1643C62.7628 31.7086 65.5602 31.9019 68.2004 32.7286C68.6701 25.9269 71.6986 19.5566 76.675 14.9031C81.6515 10.2496 88.2053 7.65924 95.0143 7.65467L95.0307 7.67111ZM95.0143 5.46289C88.0913 5.46771 81.3974 7.94693 76.1376 12.4543C70.8778 16.9616 67.3976 23.201 66.3235 30.0492C65.2028 29.8562 64.0678 29.7591 62.9307 29.7588C57.8176 29.7645 52.9047 31.7491 49.219 35.2977C45.5333 38.8464 43.3602 43.6842 43.1541 48.7999C40.5634 49.1735 38.2075 50.5083 36.5535 52.5396C34.8996 54.5709 34.0684 57.1504 34.2247 59.7666C34.381 62.3828 35.5135 64.8446 37.3975 66.664C39.2815 68.4833 41.7796 69.5273 44.3963 69.5889H142.787C146.821 69.5817 150.688 67.9698 153.536 65.1079C156.384 62.2461 157.979 58.3687 157.972 54.3286C157.965 50.2886 156.355 46.417 153.497 43.5654C150.639 40.7138 146.767 39.1159 142.732 39.1232H142.371C140.598 36.2543 138.122 33.8872 135.177 32.2472C132.233 30.6071 128.919 29.7486 125.549 29.7533C124.936 29.7533 124.318 29.7533 123.7 29.841C122.58 23.0366 119.083 16.8518 113.832 12.3897C108.581 7.92761 101.918 5.47853 95.0307 5.47933L95.0143 5.46289Z" fill="#3B2D55"/>
<path d="M32.5268 126.334C32.6586 127.151 32.6279 127.985 32.4366 128.79C32.2453 129.595 31.8971 130.354 31.412 131.023C30.9269 131.693 30.3145 132.26 29.6099 132.692C28.9053 133.123 28.1224 133.412 27.3063 133.54C25.7181 133.801 24.0901 133.448 22.7526 132.551C21.4152 131.655 20.4685 130.282 20.1049 128.712C20.1049 128.712 8.52563 74.8109 8.52563 63.7698C8.52563 40.7068 26.9834 24.4329 52.971 24.4329C78.9586 24.4329 97.4055 40.7068 97.4055 63.7698C97.4055 74.8109 85.8208 128.712 85.8208 128.712C85.4571 130.281 84.5113 131.653 83.1751 132.549C81.8388 133.446 80.2121 133.8 78.6248 133.54C77.8082 133.412 77.0247 133.125 76.3195 132.693C75.6143 132.261 75.0013 131.695 74.5156 131.025C74.03 130.355 73.6813 129.596 73.4896 128.791C73.298 127.986 73.2671 127.151 73.3988 126.334" fill="#57D1E5"/>
<path d="M32.5268 126.334C32.6586 127.151 32.6279 127.985 32.4366 128.79C32.2453 129.595 31.8971 130.354 31.412 131.023C30.9269 131.693 30.3145 132.26 29.6099 132.692C28.9053 133.123 28.1224 133.412 27.3063 133.54C25.7181 133.801 24.0901 133.448 22.7526 132.551C21.4152 131.655 20.4685 130.282 20.1049 128.712C20.1049 128.712 8.52563 74.8109 8.52563 63.7698C8.52563 40.7068 26.9834 24.4329 52.971 24.4329C78.9586 24.4329 97.4055 40.7068 97.4055 63.7698C97.4055 74.8109 85.8208 128.712 85.8208 128.712C85.4571 130.281 84.5113 131.653 83.1751 132.549C81.8388 133.446 80.2121 133.8 78.6248 133.54C77.8082 133.412 77.0247 133.125 76.3195 132.693C75.6143 132.261 75.0013 131.695 74.5156 131.025C74.03 130.355 73.6813 129.596 73.4896 128.791C73.298 127.986 73.2671 127.151 73.3988 126.334" stroke="#3B2D55" stroke-width="3.73" stroke-linecap="round" stroke-linejoin="round"/>
<path d="M82.9808 110.888L79.8233 128.422C79.5139 130.025 78.599 131.446 77.2692 132.391C75.9393 133.335 74.2969 133.729 72.684 133.491C71.0712 133.253 69.6121 132.401 68.6108 131.113C67.6094 129.825 67.1429 128.2 67.3083 126.576" fill="#57D1E5"/>
<path d="M83.6484 111.008C83.4295 112.548 83.1887 114.082 82.9534 115.622L82.2201 120.224C81.9793 121.759 81.7112 123.287 81.4595 124.822L81.0764 127.118L80.8849 128.268C80.852 128.46 80.8247 128.646 80.77 128.877C80.727 129.099 80.6703 129.319 80.6003 129.534C80.1915 130.837 79.4282 132.001 78.3959 132.894C77.3636 133.788 76.1032 134.375 74.756 134.592C73.4058 134.809 72.022 134.646 70.7584 134.123C69.4948 133.6 68.4009 132.736 67.5983 131.627C66.5319 130.136 66.0667 128.296 66.2959 126.477C66.3114 126.343 66.3529 126.215 66.418 126.098C66.4832 125.98 66.5707 125.877 66.6756 125.794C66.7806 125.711 66.9008 125.649 67.0296 125.613C67.1583 125.576 67.293 125.565 67.426 125.581C67.5589 125.596 67.6875 125.638 67.8044 125.703C67.9213 125.768 68.0243 125.856 68.1073 125.961C68.1904 126.066 68.252 126.186 68.2886 126.315C68.3252 126.444 68.3361 126.579 68.3207 126.712C68.1938 128.012 68.5493 129.313 69.3195 130.367C70.0896 131.421 71.2203 132.155 72.496 132.427C73.7739 132.694 75.105 132.49 76.2444 131.852C77.387 131.209 78.245 130.158 78.6467 128.909C78.8273 128.361 78.9532 127.507 79.1064 126.761L79.5497 124.471C79.8452 122.948 80.1297 121.419 80.4362 119.896L81.3555 115.326C81.6729 113.803 81.9793 112.279 82.3131 110.761C82.3486 110.587 82.4506 110.434 82.5973 110.335C82.7441 110.235 82.924 110.197 83.0984 110.229C83.2729 110.26 83.4281 110.359 83.5309 110.503C83.6337 110.648 83.6758 110.827 83.6484 111.003V111.008Z" fill="#3B2D55"/>
<path d="M37.928 79.3698C48.8806 79.3698 57.7594 70.5627 57.7594 59.6986C57.7594 48.8345 48.8806 40.0273 37.928 40.0273C26.9755 40.0273 18.0967 48.8345 18.0967 59.6986C18.0967 70.5627 26.9755 79.3698 37.928 79.3698Z" fill="white" stroke="#3B2D55" stroke-width="3.73" stroke-linecap="round" stroke-linejoin="round"/>
<path d="M42.0266 46.8112C38.612 47.4906 37.9279 54.9536 39.98 56.9865C41.3262 58.3235 44.0787 58.7673 44.0787 59.7262C44.0787 60.6851 41.3426 61.1016 39.98 62.466C37.9279 64.5043 38.612 71.9619 42.0266 72.6413C46.1089 73.4249 52.2871 68.4934 52.2871 59.7262C52.2871 50.9591 46.1089 46.0276 42.0266 46.8112Z" fill="#3B2D55" stroke="#3B2D55" stroke-width="1.38" stroke-miterlimit="10"/>
<path d="M28.3516 86.1479C29.0356 88.1863 31.0877 91.5781 33.8238 90.8986C35.1481 90.5699 35.8759 88.8658 35.8759 86.1479" fill="white"/>
<path d="M28.3516 86.1479C29.0356 88.1863 31.0877 91.5781 33.8238 90.8986C35.1481 90.5699 35.8759 88.8658 35.8759 86.1479" stroke="#3B2D55" stroke-width="3.11" stroke-linecap="round" stroke-linejoin="round"/>
<path d="M46.1309 84.7944C46.8149 87.5067 47.4989 89.5396 49.551 89.5396C51.6031 89.5396 54.3392 86.8272 53.6552 82.082" fill="white"/>
<path d="M46.1309 84.7944C46.8149 87.5067 47.4989 89.5396 49.551 89.5396C51.6031 89.5396 54.3392 86.8272 53.6552 82.082" stroke="#3B2D55" stroke-width="3.73" stroke-linecap="round" stroke-linejoin="round"/>
<path d="M24.3733 84.6301C30.9187 85.5634 37.5803 85.2698 44.0185 83.7643C50.4452 82.2581 56.5332 79.5594 61.9674 75.8082C62.191 75.6612 62.4633 75.6078 62.7257 75.6593C62.9882 75.7108 63.2201 75.8632 63.3718 76.0838C63.5235 76.3045 63.5828 76.5758 63.5372 76.8397C63.4915 77.1036 63.3445 77.3391 63.1275 77.4958C51.698 85.2333 37.7784 88.3789 24.138 86.3068C24.0276 86.2906 23.9216 86.2528 23.8259 86.1956C23.7301 86.1384 23.6466 86.0628 23.5801 85.9733C23.4456 85.7924 23.3884 85.5655 23.4211 85.3424C23.4537 85.1193 23.5736 84.9184 23.7542 84.7838C23.9348 84.6492 24.1614 84.5919 24.3842 84.6246L24.3733 84.6301Z" fill="#3B2D55"/>
<path d="M63.4779 79.0466C63.2909 78.1212 62.8043 77.2834 62.0935 76.6631C61.7505 76.362 61.3604 76.1195 60.9388 75.9452C60.5281 75.7688 60.0924 75.6579 59.6474 75.6165C59.3896 75.5788 59.1559 75.4442 58.9939 75.24C58.8318 75.0358 58.7536 74.7774 58.7753 74.5174C58.7969 74.2575 58.9167 74.0156 59.1103 73.8411C59.3038 73.6666 59.5566 73.5725 59.817 73.5781H59.921C60.564 73.7012 61.1842 73.923 61.7597 74.2357C62.6026 74.696 63.3213 75.3543 63.8542 76.1541C64.387 76.9539 64.7179 77.8713 64.8186 78.8274C64.8271 78.9971 64.7723 79.1639 64.6648 79.2954C64.5574 79.4269 64.405 79.5137 64.2372 79.5389C64.0694 79.5642 63.8982 79.5261 63.7569 79.4321C63.6156 79.3381 63.5142 79.1948 63.4725 79.0302L63.4779 79.0466Z" fill="#3B2D55"/>
<path d="M38.6283 126.575C38.8173 128.21 38.3637 129.854 37.3636 131.159C36.3634 132.465 34.8952 133.329 33.2696 133.57C31.6441 133.811 29.9888 133.409 28.6541 132.449C27.3195 131.489 26.4102 130.047 26.1188 128.427L22.9558 110.893" fill="#57D1E5"/>
<path d="M39.6408 126.471C39.8754 128.291 39.4119 130.131 38.3439 131.622C37.27 133.109 35.6825 134.144 33.8895 134.526C32.1001 134.905 30.2338 134.604 28.6539 133.681C27.0739 132.759 25.8933 131.28 25.3419 129.534C25.2701 129.319 25.2116 129.099 25.1667 128.877C25.112 128.647 25.0847 128.46 25.0518 128.268L24.8603 127.123L24.4772 124.822C24.2255 123.288 23.9629 121.759 23.7166 120.225L22.9833 115.616C22.7535 114.077 22.5072 112.542 22.2884 111.003C22.2752 110.914 22.2797 110.825 22.3016 110.738C22.3234 110.652 22.3622 110.57 22.4156 110.499C22.4691 110.428 22.5361 110.368 22.6129 110.322C22.6897 110.277 22.7747 110.248 22.8629 110.236C23.0364 110.211 23.2126 110.255 23.3551 110.357C23.4977 110.459 23.5957 110.611 23.6291 110.784C23.9574 112.301 24.2638 113.825 24.5812 115.348L25.5006 119.918C25.807 121.441 26.0916 122.97 26.3871 124.493L26.8303 126.778C26.9835 127.529 27.1094 128.362 27.2954 128.926C27.701 130.175 28.5604 131.225 29.7032 131.868C30.8373 132.516 32.1697 132.723 33.4462 132.449C34.722 132.178 35.8529 131.445 36.6224 130.39C37.3918 129.335 37.7456 128.034 37.6161 126.734C37.5841 126.465 37.6602 126.195 37.8274 125.982C37.9947 125.769 38.2395 125.632 38.508 125.6C38.7765 125.568 39.0467 125.644 39.2591 125.812C39.4716 125.979 39.6088 126.224 39.6408 126.493V126.471Z" fill="#3B2D55"/>
<path d="M47.7617 127.003C47.7977 128.617 47.2172 130.183 46.1386 131.383C45.06 132.582 43.5647 133.324 41.9582 133.457C40.3516 133.59 38.755 133.104 37.4944 132.098C36.2338 131.092 35.4044 129.642 35.1756 128.044L33.4573 112.921" fill="#57D1E5"/>
<path d="M48.7792 126.948C48.836 127.791 48.7433 128.636 48.5056 129.447C48.0175 131.078 46.9804 132.49 45.5704 133.442C44.1604 134.394 42.4647 134.828 40.7714 134.669C39.0781 134.511 37.4918 133.771 36.2821 132.574C35.0724 131.377 34.3139 129.798 34.1356 128.104L33.9276 125.951L33.5008 121.644L33.1177 117.332C32.9919 115.89 32.8715 114.449 32.7675 113.008C32.7472 112.829 32.7989 112.649 32.9113 112.507C33.0237 112.366 33.1875 112.275 33.3667 112.255C33.546 112.234 33.7259 112.286 33.867 112.399C34.0081 112.511 34.0988 112.675 34.1192 112.855C34.338 114.279 34.5405 115.715 34.7485 117.145L35.334 121.436L35.8812 125.737L36.1603 127.885C36.2284 128.487 36.4006 129.073 36.6692 129.616C37.2134 130.706 38.1132 131.576 39.2193 132.082C40.3253 132.58 41.5663 132.692 42.7434 132.4C43.923 132.094 44.962 131.392 45.6874 130.411C46.4197 129.443 46.793 128.249 46.7436 127.036C46.7375 126.902 46.7577 126.768 46.8032 126.642C46.8488 126.516 46.9186 126.4 47.0088 126.301C47.099 126.202 47.2078 126.122 47.3289 126.065C47.4501 126.008 47.5812 125.976 47.7149 125.97C47.8486 125.964 47.9821 125.984 48.1079 126.03C48.2338 126.075 48.3494 126.145 48.4482 126.235C48.5471 126.326 48.6272 126.435 48.684 126.556C48.7408 126.677 48.7731 126.809 48.7792 126.943V126.948Z" fill="#3B2D55"/>
<path d="M72.7807 110.455L70.7888 128.044C70.5412 129.626 69.7049 131.056 68.4479 132.045C67.1909 133.035 65.6063 133.512 64.0125 133.381C62.4187 133.249 60.9338 132.518 59.856 131.335C58.7783 130.152 58.1876 128.604 58.2027 127.003" fill="#57D1E5"/>
<path d="M73.4536 110.531C73.3332 112.071 73.1909 113.616 73.0596 115.156L72.6328 119.781L72.1731 124.4L71.9433 126.712L71.8229 127.868L71.7955 128.153L71.7463 128.488C71.7144 128.711 71.6687 128.933 71.6095 129.151C71.167 130.92 70.0773 132.459 68.556 133.463C67.0359 134.474 65.1932 134.878 63.3902 134.597C61.5833 134.33 59.9407 133.398 58.7826 131.983C57.6201 130.573 57.0336 128.774 57.1409 126.948C57.1547 126.678 57.2752 126.424 57.4758 126.242C57.6764 126.061 57.9408 125.967 58.2107 125.981C58.4807 125.995 58.7341 126.115 58.9152 126.316C59.0964 126.517 59.1904 126.782 59.1766 127.052C59.1365 128.353 59.5737 129.623 60.4056 130.622C61.2375 131.622 62.4064 132.282 63.6912 132.477C64.9765 132.67 66.2885 132.392 67.3849 131.693C68.4813 130.988 69.274 129.897 69.6066 128.636C69.6549 128.48 69.6897 128.32 69.7106 128.159L69.7489 127.918L69.7872 127.633L69.935 126.482L70.225 124.175L70.8105 119.573L71.4289 114.97C71.6478 113.436 71.8502 111.901 72.0801 110.373C72.1097 110.2 72.204 110.046 72.3436 109.941C72.4831 109.836 72.6575 109.789 72.8309 109.808C73.0043 109.828 73.1637 109.913 73.2764 110.047C73.3891 110.18 73.4466 110.351 73.4372 110.526L73.4536 110.531Z" fill="#3B2D55"/>
<path d="M59.8059 109.89L59.2916 127.523C59.2432 129.17 58.5558 130.733 57.3752 131.881C56.1947 133.029 54.6139 133.671 52.9684 133.671C51.3229 133.671 49.7421 133.029 48.5616 131.881C47.381 130.733 46.6936 129.17 46.6452 127.523L46.1309 109.89" fill="#57D1E5"/>
<path d="M60.49 109.907C60.49 112.19 60.4809 114.471 60.4627 116.751L60.4298 120.17L60.3751 123.589L60.3204 127.014C60.3204 127.299 60.3204 127.562 60.2875 127.918C60.2662 128.249 60.2204 128.579 60.1507 128.904C60.0117 129.555 59.7834 130.184 59.4722 130.773C59.3091 131.068 59.1262 131.351 58.925 131.622C58.7283 131.888 58.5164 132.142 58.2902 132.384C57.8352 132.871 57.3139 133.291 56.7416 133.633C56.1682 133.972 55.554 134.238 54.9138 134.422C54.5932 134.507 54.268 134.572 53.9398 134.619C53.7756 134.619 53.606 134.663 53.4418 134.674H52.9438C52.7781 134.687 52.6116 134.687 52.4459 134.674C52.2817 134.674 52.1175 134.674 51.9534 134.63C51.6225 134.583 51.2953 134.513 50.9738 134.422C50.3313 134.247 49.7162 133.983 49.1461 133.638C48.0017 132.949 47.067 131.96 46.4428 130.778C46.1337 130.188 45.9037 129.56 45.7588 128.91C45.6366 128.287 45.5797 127.653 45.5892 127.019L45.529 123.6L45.4742 120.175L45.4469 116.756C45.4214 114.477 45.4214 112.195 45.4469 109.912C45.4444 109.823 45.4594 109.734 45.4912 109.651C45.523 109.567 45.5709 109.491 45.6321 109.426C45.7557 109.295 45.9263 109.219 46.1063 109.214C46.2863 109.209 46.4609 109.275 46.5917 109.399C46.7226 109.523 46.7989 109.694 46.804 109.874C46.9463 112.153 47.0721 114.431 47.1816 116.707L47.3512 120.12L47.4935 123.54L47.6358 126.959C47.6358 127.238 47.6358 127.54 47.685 127.759C47.705 127.995 47.7416 128.229 47.7945 128.46C47.9589 129.156 48.2623 129.812 48.6865 130.387C49.1106 130.962 49.6467 131.446 50.2624 131.808C50.8766 132.167 51.5553 132.402 52.2598 132.499C52.3747 132.499 52.4951 132.499 52.61 132.531C52.7284 132.54 52.8473 132.54 52.9657 132.531C53.9177 132.536 54.8535 132.285 55.6749 131.803C56.4962 131.321 57.1727 130.626 57.6335 129.792C57.8637 129.376 58.0332 128.929 58.137 128.466C58.1898 128.233 58.2264 127.997 58.2464 127.759C58.2464 127.545 58.2847 127.244 58.2957 126.959L58.4379 123.54L58.5802 120.12L58.7499 116.707C58.852 114.427 58.976 112.15 59.122 109.874C59.1268 109.784 59.1495 109.696 59.1885 109.615C59.2275 109.534 59.2822 109.462 59.3494 109.402C59.4166 109.343 59.495 109.297 59.5799 109.268C59.6648 109.239 59.7547 109.227 59.8443 109.233C60.0167 109.244 60.1787 109.319 60.2982 109.444C60.4178 109.569 60.4863 109.734 60.49 109.907Z" fill="#3B2D55"/>
<path d="M45.1788 133.94H45.0365C42.8197 133.94 40.6342 133.415 38.6589 132.408C36.6835 131.401 34.9742 129.939 33.6709 128.144C32.3676 126.348 31.5071 124.269 31.1599 122.077C30.8127 119.885 30.9887 117.641 31.6733 115.53C32.358 113.419 33.5319 111.5 35.0991 109.93C36.6664 108.36 38.5824 107.184 40.6906 106.497C42.7988 105.811 45.0393 105.634 47.2289 105.981C49.4184 106.328 51.4949 107.189 53.2886 108.493C53.7015 105.636 54.8025 102.923 56.4966 100.587C58.1907 98.2508 60.4271 96.3628 63.0126 95.0856C65.5981 93.8084 68.4552 93.1803 71.3372 93.2556C74.2193 93.3309 77.0398 94.1073 79.5553 95.5179C79.7228 87.9688 82.261 80.6645 86.8095 74.6418C91.358 68.6191 97.6856 64.1842 104.894 61.9666C112.102 59.7491 119.825 59.8616 126.966 62.2883C134.107 64.7149 140.303 69.3323 144.675 75.485C147.515 74.1239 150.621 73.4106 153.77 73.3967C156.919 73.3828 160.032 74.0686 162.884 75.4046C165.736 76.7406 168.257 78.6935 170.264 81.1227C172.272 83.5518 173.716 86.3966 174.493 89.4521C179.738 90.956 184.264 94.3044 187.241 98.8822C190.218 103.46 191.445 108.96 190.697 114.371C189.949 119.782 187.276 124.741 183.169 128.337C179.062 131.933 173.798 133.925 168.342 133.945H45.2171L45.1788 133.94Z" fill="white"/>
<path d="M115.42 61.4906C121.122 61.4882 126.737 62.8898 131.771 65.5719C136.805 68.2541 141.103 72.1345 144.286 76.8714C147.036 75.3976 150.089 74.581 153.206 74.4855C156.323 74.3901 159.42 75.0184 162.255 76.3212C165.089 77.624 167.584 79.5661 169.544 81.9953C171.503 84.4245 172.875 87.2749 173.552 90.3234C178.646 91.623 183.091 94.7407 186.052 99.0908C189.013 103.441 190.285 108.724 189.63 113.947C188.975 119.17 186.437 123.974 182.494 127.456C178.551 130.937 173.473 132.857 168.216 132.855H45.1788H45.0365C42.9024 132.86 40.8001 132.338 38.9159 131.334C37.0317 130.331 35.4239 128.878 34.2351 127.103C33.0462 125.329 32.3131 123.288 32.1007 121.161C31.8882 119.035 32.2031 116.889 33.0173 114.914C33.8315 112.939 35.1199 111.195 36.7682 109.838C38.4166 108.481 40.3739 107.552 42.4667 107.134C44.5595 106.715 46.723 106.821 48.7654 107.44C50.8078 108.06 52.666 109.174 54.1751 110.685C54.2415 107.637 55.1399 104.666 56.7727 102.092C58.4056 99.5192 60.7107 97.4427 63.4382 96.0879C66.1657 94.733 69.2115 94.1516 72.2455 94.4066C75.2795 94.6616 78.1859 95.7433 80.6497 97.5344C80.6497 97.1454 80.6169 96.7563 80.6169 96.3673C80.6169 87.1247 84.2837 78.2606 90.8105 71.7251C97.3374 65.1896 106.19 61.518 115.42 61.518V61.4906ZM115.42 59.3262C106.055 59.3248 97.0387 62.8829 90.1925 69.2815C83.3463 75.6801 79.1807 84.4421 78.5374 93.7974C76.0051 92.6712 73.256 92.1176 70.4858 92.176C67.7155 92.2344 64.9922 92.9035 62.5095 94.1355C60.0267 95.3675 57.8457 97.1322 56.1214 99.3041C54.3972 101.476 53.1721 104.002 52.5334 106.702C50.5203 105.554 48.2709 104.885 45.9587 104.745C43.6464 104.606 41.3331 105 39.1969 105.897C37.0607 106.794 35.1588 108.17 33.6376 109.919C32.1165 111.669 31.0167 113.744 30.4231 115.986C29.8296 118.228 29.758 120.577 30.214 122.851C30.67 125.125 31.6414 127.264 33.0533 129.103C34.4651 130.942 36.2798 132.432 38.3574 133.457C40.435 134.483 42.7201 135.017 45.0365 135.019H168.342C174 134.985 179.459 132.929 183.737 129.222C188.014 125.514 190.829 120.399 191.673 114.797C192.517 109.195 191.336 103.476 188.341 98.6693C185.347 93.8628 180.737 90.2851 175.341 88.581C174.47 85.521 172.958 82.682 170.906 80.2528C168.854 77.8237 166.308 75.8602 163.439 74.4931C160.57 73.126 157.442 72.3867 154.265 72.3244C151.088 72.262 147.935 72.8781 145.014 74.1316C141.573 69.5384 137.112 65.8103 131.983 63.2425C126.854 60.6746 121.198 59.3376 115.464 59.3371L115.42 59.3262Z" fill="#3B2D55"/>
<path d="M75.4839 104.241C77.93 99.7207 83.3858 96.707 89.4052 97.4576L75.4839 104.241Z" fill="white"/>
<path d="M75.4839 104.241C77.93 99.7207 83.3858 96.707 89.4052 97.4576" stroke="#3B2D55" stroke-width="3.95" stroke-linecap="round" stroke-linejoin="round"/>
<path d="M129.571 79.6329C136.182 77.8959 144.067 80.4548 148.817 86.9918L129.571 79.6329Z" fill="white"/>
<path d="M129.571 79.6329C136.182 77.8959 144.067 80.4548 148.817 86.9918" stroke="#3B2D55" stroke-width="3.95" stroke-linecap="round" stroke-linejoin="round"/>
<path d="M107.951 34.7452C113.182 33.3699 119.442 35.3973 123.185 40.5699L107.951 34.7452Z" fill="white"/>
<path d="M107.951 34.7452C113.182 33.3699 119.442 35.3973 123.185 40.5699" stroke="#3B2D55" stroke-width="3.95" stroke-linecap="round" stroke-linejoin="round"/>
</svg>
