<svg width="21" height="21" viewBox="0 0 21 21" fill="none" xmlns="http://www.w3.org/2000/svg">
<path fill-rule="evenodd" clip-rule="evenodd" d="M19.6875 18.375C19.6875 19.0995 19.0995 19.6875 18.375 19.6875H2.625C1.9005 19.6875 1.3125 19.0995 1.3125 18.375V2.625C1.3125 1.9005 1.9005 1.3125 2.625 1.3125H18.375C19.0995 1.3125 19.6875 1.9005 19.6875 2.625V18.375ZM18.375 0H2.625C1.17534 0 0 1.17534 0 2.625V18.375C0 19.8247 1.17534 21 2.625 21H18.375C19.8247 21 21 19.8247 21 18.375V2.625C21 1.17534 19.8247 0 18.375 0ZM17.7004 2.625H11.8125C11.4496 2.625 11.1562 2.91834 11.1562 3.28125C11.1562 3.64416 11.4496 3.9375 11.8125 3.9375H16.1628L11.7009 8.39935L12.6289 9.32729L17.0828 4.87333L17.0625 9.1875C17.0625 9.55041 17.3558 9.84375 17.7188 9.84375C18.0817 9.84375 18.375 9.55041 18.375 9.1875V3.28125C18.375 3.087 18.2949 2.93017 18.1683 2.82255C18.0488 2.70049 17.8835 2.625 17.7004 2.625ZM9.1875 17.0625H4.8372L9.29973 12.6006L8.37111 11.6727L3.91715 16.1274L3.9375 11.8125C3.9375 11.4496 3.64416 11.1562 3.28125 11.1562C2.91834 11.1562 2.625 11.4496 2.625 11.8125V17.7188C2.625 17.9137 2.70506 18.0698 2.83172 18.1775C2.95116 18.2995 3.11654 18.375 3.29963 18.375H9.1875C9.55041 18.375 9.84375 18.0817 9.84375 17.7188C9.84375 17.3558 9.55041 17.0625 9.1875 17.0625Z" fill="black"/>
</svg>
