<svg width="299" height="43" viewBox="0 0 299 43" fill="none" xmlns="http://www.w3.org/2000/svg">
<path d="M173.155 30V20.0469H175.965C176.831 20.0469 177.596 20.2383 178.262 20.6211C178.927 21.0039 179.44 21.5485 179.8 22.2549C180.164 22.9613 180.349 23.7725 180.354 24.6885V25.3242C180.354 26.263 180.171 27.0856 179.807 27.792C179.447 28.4984 178.929 29.0407 178.255 29.4189C177.585 29.7972 176.803 29.9909 175.91 30H173.155ZM174.468 21.127V28.9268H175.849C176.86 28.9268 177.646 28.6123 178.207 27.9834C178.772 27.3545 179.055 26.459 179.055 25.2969V24.7158C179.055 23.5856 178.788 22.7083 178.255 22.084C177.726 21.4551 176.974 21.1361 175.999 21.127H174.468ZM190.999 25.3447C190.999 26.32 190.835 27.1722 190.507 27.9014C190.179 28.626 189.714 29.1797 189.112 29.5625C188.511 29.9453 187.809 30.1367 187.007 30.1367C186.223 30.1367 185.528 29.9453 184.922 29.5625C184.316 29.1751 183.844 28.626 183.507 27.915C183.174 27.1995 183.003 26.3724 182.994 25.4336V24.7158C182.994 23.7588 183.16 22.9134 183.493 22.1797C183.826 21.446 184.295 20.8854 184.901 20.498C185.512 20.1061 186.209 19.9102 186.993 19.9102C187.791 19.9102 188.493 20.1038 189.099 20.4912C189.709 20.874 190.179 21.4323 190.507 22.166C190.835 22.8952 190.999 23.7451 190.999 24.7158V25.3447ZM189.693 24.7021C189.693 23.5218 189.456 22.6172 188.982 21.9883C188.508 21.3548 187.845 21.0381 186.993 21.0381C186.164 21.0381 185.51 21.3548 185.031 21.9883C184.557 22.6172 184.313 23.4922 184.3 24.6133V25.3447C184.3 26.4886 184.539 27.3887 185.018 28.0449C185.501 28.6966 186.164 29.0225 187.007 29.0225C187.854 29.0225 188.511 28.7148 188.976 28.0996C189.44 27.4798 189.68 26.5934 189.693 25.4404V24.7021ZM201.289 26.8418C201.166 27.8945 200.776 28.708 200.12 29.2822C199.468 29.8519 198.6 30.1367 197.516 30.1367C196.34 30.1367 195.396 29.7152 194.686 28.8721C193.979 28.029 193.626 26.901 193.626 25.4883V24.5312C193.626 23.6061 193.79 22.7926 194.118 22.0908C194.451 21.389 194.92 20.8512 195.526 20.4775C196.132 20.0993 196.834 19.9102 197.632 19.9102C198.689 19.9102 199.537 20.2064 200.175 20.7988C200.813 21.3867 201.184 22.2025 201.289 23.2461H199.97C199.856 22.4531 199.607 21.8789 199.225 21.5234C198.846 21.168 198.315 20.9902 197.632 20.9902C196.793 20.9902 196.135 21.3001 195.656 21.9199C195.182 22.5397 194.945 23.4215 194.945 24.5654V25.5293C194.945 26.6094 195.171 27.4684 195.622 28.1064C196.073 28.7445 196.704 29.0635 197.516 29.0635C198.245 29.0635 198.803 28.8994 199.19 28.5713C199.582 28.2386 199.842 27.6621 199.97 26.8418H201.289ZM211.094 20.0469V26.8145C211.089 27.7533 210.793 28.5212 210.205 29.1182C209.622 29.7152 208.829 30.0501 207.826 30.123L207.478 30.1367C206.388 30.1367 205.52 29.8428 204.873 29.2549C204.226 28.667 203.898 27.8581 203.889 26.8281V20.0469H205.188V26.7871C205.188 27.5072 205.386 28.0677 205.782 28.4688C206.179 28.8652 206.744 29.0635 207.478 29.0635C208.22 29.0635 208.788 28.8652 209.18 28.4688C209.576 28.0723 209.774 27.514 209.774 26.7939V20.0469H211.094ZM215.86 20.0469L219.114 28.168L222.368 20.0469H224.07V30H222.758V26.124L222.881 21.9404L219.613 30H218.608L215.348 21.9609L215.478 26.124V30H214.165V20.0469H215.86ZM233.014 25.3994H228.7V28.9268H233.711V30H227.388V20.0469H233.643V21.127H228.7V24.3262H233.014V25.3994ZM243.994 30H242.675L237.664 22.3301V30H236.345V20.0469H237.664L242.688 27.751V20.0469H243.994V30ZM253.997 21.127H250.798V30H249.492V21.127H246.3V20.0469H253.997V21.127ZM261.423 27.4023H257.253L256.316 30H254.963L258.764 20.0469H259.912L263.72 30H262.373L261.423 27.4023ZM257.649 26.3223H261.033L259.338 21.667L257.649 26.3223ZM272.048 21.127H268.849V30H267.543V21.127H264.351V20.0469H272.048V21.127ZM275.933 30H274.62V20.0469H275.933V30ZM286.995 25.3447C286.995 26.32 286.831 27.1722 286.503 27.9014C286.175 28.626 285.71 29.1797 285.108 29.5625C284.507 29.9453 283.805 30.1367 283.003 30.1367C282.219 30.1367 281.524 29.9453 280.918 29.5625C280.312 29.1751 279.84 28.626 279.503 27.915C279.17 27.1995 278.999 26.3724 278.99 25.4336V24.7158C278.99 23.7588 279.157 22.9134 279.489 22.1797C279.822 21.446 280.291 20.8854 280.897 20.498C281.508 20.1061 282.205 19.9102 282.989 19.9102C283.787 19.9102 284.489 20.1038 285.095 20.4912C285.705 20.874 286.175 21.4323 286.503 22.166C286.831 22.8952 286.995 23.7451 286.995 24.7158V25.3447ZM285.689 24.7021C285.689 23.5218 285.452 22.6172 284.979 21.9883C284.505 21.3548 283.841 21.0381 282.989 21.0381C282.16 21.0381 281.506 21.3548 281.027 21.9883C280.553 22.6172 280.31 23.4922 280.296 24.6133V25.3447C280.296 26.4886 280.535 27.3887 281.014 28.0449C281.497 28.6966 282.16 29.0225 283.003 29.0225C283.851 29.0225 284.507 28.7148 284.972 28.0996C285.437 27.4798 285.676 26.5934 285.689 25.4404V24.7021ZM297.613 30H296.294L291.283 22.3301V30H289.964V20.0469H291.283L296.308 27.751V20.0469H297.613V30Z" fill="#3A2D55"/>
<path d="M10.7228 37.6043C10.7981 38.0822 10.6817 38.5702 10.398 38.9656C10.1142 39.361 9.68531 39.6332 9.20132 39.7248C8.71734 39.8165 8.21598 39.7205 7.80261 39.4571C7.38924 39.1937 7.09604 38.7833 6.98464 38.3123C6.98464 38.3123 3.49982 22.2617 3.49982 18.9754C3.49982 12.1084 9.0562 7.26562 16.8758 7.26562C24.6954 7.26562 30.2518 12.1117 30.2518 18.9754C30.2518 22.2617 26.767 38.3074 26.767 38.3074C26.6537 38.776 26.3604 39.1836 25.9483 39.4452C25.5361 39.7068 25.0369 39.8022 24.5548 39.7115C24.0727 39.6209 23.6449 39.3511 23.3606 38.9585C23.0763 38.5659 22.9574 38.0808 23.0288 37.6043" fill="#57D1E5"/>
<path d="M10.7228 37.6043C10.7981 38.0822 10.6817 38.5702 10.398 38.9656C10.1142 39.361 9.68531 39.6332 9.20132 39.7248C8.71734 39.8165 8.21598 39.7205 7.80261 39.4571C7.38924 39.1937 7.09604 38.7833 6.98464 38.3123C6.98464 38.3123 3.49982 22.2617 3.49982 18.9754C3.49982 12.1084 9.0562 7.26562 16.8758 7.26562C24.6954 7.26562 30.2518 12.1117 30.2518 18.9754C30.2518 22.2617 26.767 38.3074 26.767 38.3074C26.6537 38.776 26.3604 39.1836 25.9483 39.4452C25.5361 39.7068 25.0369 39.8022 24.5548 39.7115C24.0727 39.6209 23.6449 39.3511 23.3606 38.9585C23.0763 38.5659 22.9574 38.0808 23.0288 37.6043" stroke="#3B2D55" stroke-width="0.238729" stroke-linecap="round" stroke-linejoin="round"/>
<path d="M25.9087 33.002L24.9571 38.2339C24.8648 38.7079 24.5891 39.1285 24.1878 39.4077C23.7865 39.6868 23.2907 39.8028 22.8042 39.7314C22.3177 39.66 21.8782 39.4067 21.5777 39.0245C21.2773 38.6424 21.1392 38.1611 21.1923 37.6813" fill="#57D1E5"/>
<path d="M26.1103 33.0357L25.902 34.4058L25.682 35.7727L25.4537 37.1379L25.3387 37.8197C25.3051 38.0601 25.2584 38.2986 25.1987 38.5342C25.0398 39.0558 24.6867 39.4998 24.2096 39.7779C23.7325 40.0561 23.1663 40.1481 22.6233 40.0357C22.0802 39.9233 21.6001 39.6147 21.2782 39.1712C20.9563 38.7277 20.8162 38.1816 20.8856 37.6415C20.8951 37.5617 20.9365 37.4889 21.0008 37.439C21.065 37.3892 21.1468 37.3664 21.2281 37.3758C21.3094 37.3851 21.3836 37.4257 21.4344 37.4887C21.4852 37.5517 21.5084 37.632 21.4989 37.7118C21.4567 38.0993 21.5637 38.4882 21.7989 38.8023C22.0281 39.1179 22.3704 39.3369 22.7572 39.4154C23.1431 39.4949 23.5454 39.432 23.8871 39.2388C24.231 39.0442 24.4875 38.7295 24.6054 38.3576C24.6571 38.1941 24.6971 37.9374 24.7421 37.7167L24.8754 37.0365L25.1437 35.6778L25.4187 34.3208L25.7054 32.9654C25.7149 32.9127 25.7453 32.8659 25.79 32.8352C25.8347 32.8046 25.89 32.7926 25.9437 32.8019C25.9974 32.8112 26.0451 32.8411 26.0764 32.885C26.1076 32.9288 26.1198 32.983 26.1103 33.0357Z" fill="#3B2D55"/>
<path d="M12.3494 23.6189C15.6454 23.6189 18.3174 20.9976 18.3174 17.764C18.3174 14.5305 15.6454 11.9092 12.3494 11.9092C9.05333 11.9092 6.38135 14.5305 6.38135 17.764C6.38135 20.9976 9.05333 23.6189 12.3494 23.6189Z" fill="white" stroke="#3B2D55" stroke-width="0.238729" stroke-linecap="round" stroke-linejoin="round"/>
<path d="M13.5827 13.9281C12.5544 14.1309 12.3494 16.3512 12.966 16.9561C13.371 17.3551 14.201 17.4875 14.201 17.7638C14.201 18.0401 13.3677 18.1742 12.966 18.5715C12.3494 19.1764 12.5544 21.3984 13.5827 21.5995C14.8109 21.8414 16.6708 20.3879 16.6708 17.7638C16.6708 15.1397 14.8109 13.6878 13.5827 13.9281Z" fill="#3B2D55"/>
<path d="M9.46783 25.6377C9.67282 26.2426 10.2911 27.2531 11.1144 27.0503C11.5127 26.9522 11.7311 26.4454 11.7311 25.6377" fill="white"/>
<path d="M9.46783 25.6377C9.67282 26.2426 10.2911 27.2531 11.1144 27.0503C11.5127 26.9522 11.7311 26.4454 11.7311 25.6377" stroke="#3B2D55" stroke-width="0.199371" stroke-linecap="round" stroke-linejoin="round"/>
<path d="M14.8176 25.2344C15.0243 26.0421 15.2293 26.6471 15.8476 26.6471C16.4659 26.6471 17.2875 25.8394 17.0825 24.4268" fill="white"/>
<path d="M14.8176 25.2344C15.0243 26.0421 15.2293 26.6471 15.8476 26.6471C16.4659 26.6471 17.2875 25.8394 17.0825 24.4268" stroke="#3B2D55" stroke-width="0.238729" stroke-linecap="round" stroke-linejoin="round"/>
<path d="M8.27126 25.1867C12.2443 25.748 16.2864 24.8102 19.5824 22.5626C19.6146 22.5334 19.6529 22.5113 19.6946 22.4977C19.7363 22.4842 19.7805 22.4796 19.8241 22.4841C19.8678 22.4887 19.91 22.5024 19.9478 22.5242C19.9857 22.5461 20.0183 22.5756 20.0436 22.6109C20.0689 22.6461 20.0862 22.6863 20.0944 22.7286C20.1025 22.7709 20.1014 22.8145 20.091 22.8564C20.0806 22.8982 20.0613 22.9374 20.0342 22.9714C20.0071 23.0053 19.9729 23.0332 19.934 23.0531C16.5001 25.3515 12.3053 26.2863 8.19626 25.669C8.1389 25.6502 8.09017 25.6121 8.05867 25.5614C8.02716 25.5108 8.01491 25.4508 8.02408 25.3921C8.03325 25.3335 8.06325 25.2799 8.10878 25.2408C8.15431 25.2017 8.21244 25.1797 8.27293 25.1786L8.27126 25.1867Z" fill="#3B2D55"/>
<path d="M20.044 23.5223C19.9873 23.248 19.8418 22.9991 19.629 22.8127C19.423 22.635 19.1641 22.5272 18.8907 22.5053C18.8132 22.4941 18.7428 22.4544 18.6939 22.3944C18.6449 22.3343 18.621 22.2582 18.6269 22.1816C18.6328 22.1049 18.6682 22.0332 18.7258 21.981C18.7834 21.9289 18.859 21.9001 18.9374 21.9004H18.969H18.9774C19.3676 21.9714 19.7237 22.1648 19.9923 22.4514C20.2537 22.7299 20.4147 23.0849 20.4506 23.4618C20.4534 23.4881 20.4508 23.5148 20.4429 23.5401C20.4351 23.5654 20.4222 23.589 20.4049 23.6094C20.3877 23.6298 20.3665 23.6466 20.3426 23.6589C20.3187 23.6712 20.2925 23.6786 20.2656 23.6809C20.2146 23.6854 20.1637 23.6712 20.1227 23.641C20.0817 23.6108 20.0537 23.5668 20.044 23.5174V23.5223Z" fill="#3B2D55"/>
<path d="M12.561 37.6764C12.6209 38.1596 12.4862 38.6466 12.1857 39.0339C11.8852 39.4211 11.4425 39.6781 10.9518 39.7501C10.4611 39.8221 9.96117 39.7034 9.55829 39.4194C9.15542 39.1353 8.88141 38.7082 8.79456 38.229L7.8446 32.9971" fill="#57D1E5"/>
<path d="M12.866 37.6398C12.9366 38.1801 12.7974 38.7267 12.4759 39.1708C12.1544 39.6149 11.6743 39.9241 11.1311 40.0367C10.587 40.1506 10.0192 40.0571 9.54284 39.7751C9.0677 39.497 8.71532 39.0551 8.55456 38.5358C8.49389 38.3004 8.4466 38.0619 8.4129 37.8213L8.2979 37.1379L8.06958 35.7727L7.84959 34.4058L7.64127 33.0357C7.63656 33.0096 7.63714 32.9829 7.64297 32.957C7.6488 32.9312 7.65976 32.9067 7.67524 32.885C7.70649 32.8411 7.75422 32.8112 7.80793 32.8019C7.86163 32.7926 7.91691 32.8046 7.9616 32.8352C8.0063 32.8659 8.03674 32.9127 8.04625 32.9654L8.3329 34.3208L8.60955 35.6778L8.87621 37.0365L9.00953 37.715C9.05453 37.9374 9.09453 38.1875 9.14619 38.3559C9.26679 38.7251 9.52266 39.0373 9.86432 39.2321C10.206 39.427 10.6091 39.4905 10.9958 39.4106C11.3825 39.3307 11.7252 39.1129 11.9577 38.7994C12.1902 38.4859 12.2959 38.0989 12.2544 37.7134C12.2485 37.6357 12.2733 37.5588 12.3237 37.4987C12.3742 37.4386 12.4463 37.3998 12.5251 37.3906C12.6039 37.3813 12.6834 37.4022 12.7469 37.4489C12.8104 37.4957 12.853 37.5646 12.866 37.6415V37.6398Z" fill="#3B2D55"/>
<path d="M15.3092 37.7973C15.3467 38.2883 15.1849 38.774 14.8591 39.1486C14.5333 39.5232 14.0698 39.7564 13.5696 39.7974C13.0694 39.8383 12.5729 39.6838 12.1883 39.3674C11.8037 39.0509 11.5621 38.5983 11.516 38.1079L10.9161 32.876" fill="#57D1E5"/>
<path d="M15.6175 37.7804C15.6507 38.3216 15.4761 38.8553 15.1282 39.2766C14.7803 39.6978 14.2842 39.976 13.7376 40.0563C13.19 40.1369 12.6315 40.0113 12.1744 39.7048C11.7184 39.4026 11.393 38.9453 11.2611 38.4213C11.213 38.1827 11.1807 37.9413 11.1644 37.6986L11.0944 37.0136L10.9561 35.6402L10.8328 34.2684L10.7161 32.8934C10.7099 32.8403 10.7255 32.787 10.7594 32.7451C10.7933 32.7032 10.8428 32.6763 10.8969 32.6702C10.9511 32.6642 11.0055 32.6795 11.0481 32.7127C11.0908 32.746 11.1182 32.7945 11.1244 32.8476L11.3211 34.2145L11.4994 35.5797L11.6777 36.9498L11.7661 37.6332C11.7977 37.8589 11.8177 38.1041 11.8627 38.2758C11.9623 38.6494 12.1992 38.9737 12.5278 39.1863C12.8565 39.3989 13.2537 39.4847 13.6429 39.4273C14.0322 39.3698 14.3861 39.1732 14.6365 38.8752C14.8869 38.5772 15.0161 38.1989 14.9992 37.8131C14.9972 37.7734 15.0031 37.7336 15.0166 37.6962C15.0302 37.6587 15.0512 37.6242 15.0783 37.5947C15.1055 37.5651 15.1383 37.5411 15.1749 37.5241C15.2115 37.507 15.2512 37.4971 15.2917 37.4951C15.3322 37.493 15.3727 37.4988 15.4109 37.5122C15.4491 37.5255 15.4843 37.546 15.5144 37.5727C15.5445 37.5993 15.5689 37.6315 15.5863 37.6675C15.6038 37.7034 15.6138 37.7423 15.6159 37.782L15.6175 37.7804Z" fill="#3B2D55"/>
<path d="M22.8321 32.8711L22.2322 38.103C22.1758 38.5855 21.9302 39.0276 21.5474 39.3355C21.1646 39.6434 20.6746 39.793 20.1813 39.7526C19.6879 39.7122 19.23 39.485 18.9045 39.1191C18.579 38.7532 18.4114 38.2774 18.4374 37.7924" fill="#57D1E5"/>
<path d="M23.0422 32.894L22.9238 34.2691L22.7955 35.6408L22.6572 37.0125L22.5888 37.6992C22.5733 37.9416 22.5432 38.1829 22.4989 38.4219C22.4023 38.8156 22.1953 39.175 21.9013 39.4593C21.6074 39.7437 21.2382 39.9416 20.8355 40.0308C20.4328 40.1199 20.0127 40.0967 19.6228 39.9638C19.2329 39.8309 18.8886 39.5935 18.629 39.2786C18.2837 38.8562 18.1097 38.3233 18.1407 37.7826C18.1435 37.7425 18.1543 37.7033 18.1726 37.6673C18.1909 37.6313 18.2162 37.5993 18.2472 37.573C18.2782 37.5467 18.3142 37.5266 18.3532 37.5141C18.3921 37.5015 18.4332 37.4967 18.4741 37.4998C18.5548 37.5044 18.6305 37.5402 18.6845 37.5993C18.7385 37.6584 18.7665 37.736 18.7624 37.8153C18.7471 38.2033 18.8789 38.5831 19.1324 38.8813C19.3809 39.1798 19.7338 39.3768 20.1223 39.434C20.5114 39.4898 20.9079 39.4044 21.2373 39.1936C21.5694 38.9813 21.8076 38.6537 21.9039 38.2764C21.9472 38.1129 21.9689 37.8595 21.9989 37.6338L22.0872 36.9504L22.2639 35.5836L22.4489 34.2167L22.6455 32.8499C22.6545 32.7989 22.683 32.7532 22.7252 32.7222C22.7674 32.6911 22.8201 32.6771 22.8725 32.6829C22.9249 32.6888 22.9731 32.7141 23.0071 32.7536C23.0411 32.7932 23.0584 32.844 23.0555 32.8957L23.0422 32.894Z" fill="#3B2D55"/>
<path d="M18.9341 32.6992L18.7791 37.9475C18.7791 38.4427 18.5786 38.9176 18.2216 39.2678C17.8647 39.6179 17.3806 39.8147 16.8759 39.8147C16.3711 39.8147 15.887 39.6179 15.5301 39.2678C15.1731 38.9176 14.9726 38.4427 14.9726 37.9475L14.8176 32.6992" fill="#57D1E5"/>
<path d="M19.1391 32.7097C19.1391 34.0657 19.1285 35.4211 19.1074 36.7759L19.0907 37.7929C19.0925 37.9804 19.0757 38.1677 19.0407 38.3521C18.9368 38.8406 18.6648 39.2793 18.2703 39.5945C17.8759 39.9098 17.3829 40.0824 16.8742 40.0835C16.6718 40.0842 16.4703 40.0567 16.2759 40.0018C16.0807 39.9487 15.8943 39.8683 15.7226 39.763C15.3799 39.5564 15.1006 39.2626 14.9143 38.9129C14.8208 38.7376 14.7523 38.5506 14.7109 38.357C14.6751 38.1727 14.6583 37.9854 14.661 37.7978L14.6443 36.7808C14.6187 35.4249 14.6082 34.0695 14.6126 32.7146C14.6156 32.6639 14.6378 32.6162 14.6749 32.5808C14.712 32.5454 14.7613 32.525 14.8131 32.5235C14.8648 32.5221 14.9152 32.5397 14.9543 32.573C14.9934 32.6063 15.0184 32.6527 15.0243 32.7032C15.1059 34.057 15.1776 35.4107 15.2309 36.7645L15.2743 37.7798C15.2757 37.9307 15.2907 38.0812 15.3193 38.2294C15.3979 38.577 15.5953 38.8878 15.8787 39.1103C16.1622 39.3327 16.5146 39.4534 16.8775 39.4524C17.1665 39.454 17.4504 39.3778 17.6983 39.2323C17.9463 39.0867 18.1489 38.8773 18.2841 38.6267C18.3532 38.5026 18.4037 38.3693 18.4341 38.2311C18.4626 38.0822 18.4777 37.9312 18.4791 37.7798L18.5224 36.7645C18.5758 35.4107 18.6474 34.057 18.7274 32.7032C18.7333 32.6527 18.7582 32.6063 18.7973 32.573C18.8364 32.5397 18.8869 32.5221 18.9386 32.5235C18.9903 32.525 19.0396 32.5454 19.0768 32.5808C19.1139 32.6162 19.1361 32.6639 19.1391 32.7146V32.7097Z" fill="#3B2D55"/>
<path fill-rule="evenodd" clip-rule="evenodd" d="M48.3898 20.0924C47.4279 20.0924 46.0537 20.4958 46.0537 21.6387C46.0537 22.8293 47.3243 23.1951 48.7939 23.6182C50.8094 24.1985 53.1993 24.8866 53.1993 27.958C53.1993 31.3866 50.451 33 47.2217 33C45.2292 33 43.4428 32.4622 42 31.1176L44.336 28.563C45.0918 29.437 46.1911 29.9748 47.3592 29.9748C48.5272 29.9748 49.7639 29.437 49.7639 28.3613C49.7639 27.1574 48.4397 26.7479 46.9206 26.2782C44.8771 25.6463 42.4809 24.9054 42.4809 21.9748C42.4809 18.6807 45.3666 17 48.4585 17C50.1761 17 51.8938 17.4706 53.1993 18.6134L50.8632 21.1008C50.3136 20.4286 49.2142 20.0924 48.3898 20.0924ZM68.727 20.0924C66.1162 20.0924 64.1924 22.1765 64.1924 25C64.1924 27.8235 66.1162 29.9076 68.5896 29.9076C69.9638 29.9076 71.1318 29.3025 71.8189 28.2941L74.7046 30.3782C73.3991 32.1933 71.2005 33 69.0706 33C64.1924 33 60.6883 29.9076 60.6883 25C60.6883 20.0924 64.1924 17 69.0706 17C70.7883 17 72.9869 17.605 74.2923 19.2185L71.6814 21.3697C70.9944 20.563 70.0325 20.0924 68.727 20.0924ZM89.5453 26.1418L95.3854 17.4023H91.3317L87.8276 23.1166L84.5297 17.4023H80.2698L86.1099 26.1418V32.6628H89.5453V26.1418ZM112.081 32.5956H102.325V17.4023H105.76V29.5032H112.081V32.5956ZM119.845 32.5956H129.601V29.5032H123.28V17.4023H119.845V32.5956ZM145.198 17.3361L152 32.5966H148.221L146.847 29.3697L145.679 26.5462L143.755 21.8403L141.831 26.5462L140.732 29.3697L139.427 32.5966H135.648L142.381 17.3361H145.198Z" fill="#3A2D55"/>
<line x1="161.5" y1="17" x2="161.5" y2="33" stroke="#3A2D55"/>
</svg>
