<?xml version="1.0" standalone="no"?>
<!DOCTYPE svg PUBLIC "-//W3C//DTD SVG 1.1//EN"
   "http://www.w3.org/Graphics/SVG/1.1/DTD/svg11.dtd">
<svg width="25" height="25" version="1.1"
   xmlns="http://www.w3.org/2000/svg">
   <desc>Zint Generated Symbol
   </desc>

   <g id="barcode" fill="#000000">
      <rect x="0" y="0" width="25" height="25" fill="#FFFFFF" />
      <rect x="0.00" y="0.00" width="7.00" height="1.00" />
      <rect x="8.00" y="0.00" width="2.00" height="1.00" />
      <rect x="14.00" y="0.00" width="3.00" height="1.00" />
      <rect x="18.00" y="0.00" width="7.00" height="1.00" />
      <rect x="0.00" y="1.00" width="1.00" height="1.00" />
      <rect x="6.00" y="1.00" width="1.00" height="1.00" />
      <rect x="14.00" y="1.00" width="1.00" height="1.00" />
      <rect x="18.00" y="1.00" width="1.00" height="1.00" />
      <rect x="24.00" y="1.00" width="1.00" height="1.00" />
      <rect x="0.00" y="2.00" width="1.00" height="1.00" />
      <rect x="2.00" y="2.00" width="3.00" height="1.00" />
      <rect x="6.00" y="2.00" width="1.00" height="1.00" />
      <rect x="8.00" y="2.00" width="1.00" height="1.00" />
      <rect x="11.00" y="2.00" width="3.00" height="1.00" />
      <rect x="15.00" y="2.00" width="1.00" height="1.00" />
      <rect x="18.00" y="2.00" width="1.00" height="1.00" />
      <rect x="20.00" y="2.00" width="3.00" height="1.00" />
      <rect x="24.00" y="2.00" width="1.00" height="1.00" />
      <rect x="0.00" y="3.00" width="1.00" height="1.00" />
      <rect x="2.00" y="3.00" width="3.00" height="1.00" />
      <rect x="6.00" y="3.00" width="1.00" height="1.00" />
      <rect x="8.00" y="3.00" width="2.00" height="1.00" />
      <rect x="11.00" y="3.00" width="1.00" height="1.00" />
      <rect x="13.00" y="3.00" width="4.00" height="1.00" />
      <rect x="18.00" y="3.00" width="1.00" height="1.00" />
      <rect x="20.00" y="3.00" width="3.00" height="1.00" />
      <rect x="24.00" y="3.00" width="1.00" height="1.00" />
      <rect x="0.00" y="4.00" width="1.00" height="1.00" />
      <rect x="2.00" y="4.00" width="3.00" height="1.00" />
      <rect x="6.00" y="4.00" width="1.00" height="1.00" />
      <rect x="8.00" y="4.00" width="4.00" height="1.00" />
      <rect x="13.00" y="4.00" width="3.00" height="1.00" />
      <rect x="18.00" y="4.00" width="1.00" height="1.00" />
      <rect x="20.00" y="4.00" width="3.00" height="1.00" />
      <rect x="24.00" y="4.00" width="1.00" height="1.00" />
      <rect x="0.00" y="5.00" width="1.00" height="1.00" />
      <rect x="6.00" y="5.00" width="1.00" height="1.00" />
      <rect x="9.00" y="5.00" width="1.00" height="1.00" />
      <rect x="12.00" y="5.00" width="2.00" height="1.00" />
      <rect x="18.00" y="5.00" width="1.00" height="1.00" />
      <rect x="24.00" y="5.00" width="1.00" height="1.00" />
      <rect x="0.00" y="6.00" width="7.00" height="1.00" />
      <rect x="8.00" y="6.00" width="1.00" height="1.00" />
      <rect x="10.00" y="6.00" width="1.00" height="1.00" />
      <rect x="12.00" y="6.00" width="1.00" height="1.00" />
      <rect x="14.00" y="6.00" width="1.00" height="1.00" />
      <rect x="16.00" y="6.00" width="1.00" height="1.00" />
      <rect x="18.00" y="6.00" width="7.00" height="1.00" />
      <rect x="9.00" y="7.00" width="1.00" height="1.00" />
      <rect x="11.00" y="7.00" width="1.00" height="1.00" />
      <rect x="14.00" y="7.00" width="3.00" height="1.00" />
      <rect x="0.00" y="8.00" width="4.00" height="1.00" />
      <rect x="6.00" y="8.00" width="1.00" height="1.00" />
      <rect x="8.00" y="8.00" width="1.00" height="1.00" />
      <rect x="13.00" y="8.00" width="5.00" height="1.00" />
      <rect x="20.00" y="8.00" width="3.00" height="1.00" />
      <rect x="24.00" y="8.00" width="1.00" height="1.00" />
      <rect x="0.00" y="9.00" width="1.00" height="1.00" />
      <rect x="2.00" y="9.00" width="1.00" height="1.00" />
      <rect x="4.00" y="9.00" width="2.00" height="1.00" />
      <rect x="7.00" y="9.00" width="1.00" height="1.00" />
      <rect x="9.00" y="9.00" width="1.00" height="1.00" />
      <rect x="13.00" y="9.00" width="1.00" height="1.00" />
      <rect x="19.00" y="9.00" width="1.00" height="1.00" />
      <rect x="23.00" y="9.00" width="1.00" height="1.00" />
      <rect x="0.00" y="10.00" width="2.00" height="1.00" />
      <rect x="3.00" y="10.00" width="2.00" height="1.00" />
      <rect x="6.00" y="10.00" width="3.00" height="1.00" />
      <rect x="13.00" y="10.00" width="1.00" height="1.00" />
      <rect x="16.00" y="10.00" width="4.00" height="1.00" />
      <rect x="4.00" y="11.00" width="1.00" height="1.00" />
      <rect x="11.00" y="11.00" width="3.00" height="1.00" />
      <rect x="15.00" y="11.00" width="1.00" height="1.00" />
      <rect x="19.00" y="11.00" width="1.00" height="1.00" />
      <rect x="21.00" y="11.00" width="2.00" height="1.00" />
      <rect x="1.00" y="12.00" width="1.00" height="1.00" />
      <rect x="5.00" y="12.00" width="2.00" height="1.00" />
      <rect x="9.00" y="12.00" width="1.00" height="1.00" />
      <rect x="11.00" y="12.00" width="1.00" height="1.00" />
      <rect x="17.00" y="12.00" width="2.00" height="1.00" />
      <rect x="20.00" y="12.00" width="1.00" height="1.00" />
      <rect x="22.00" y="12.00" width="3.00" height="1.00" />
      <rect x="4.00" y="13.00" width="2.00" height="1.00" />
      <rect x="7.00" y="13.00" width="1.00" height="1.00" />
      <rect x="10.00" y="13.00" width="2.00" height="1.00" />
      <rect x="13.00" y="13.00" width="8.00" height="1.00" />
      <rect x="24.00" y="13.00" width="1.00" height="1.00" />
      <rect x="1.00" y="14.00" width="1.00" height="1.00" />
      <rect x="6.00" y="14.00" width="3.00" height="1.00" />
      <rect x="10.00" y="14.00" width="1.00" height="1.00" />
      <rect x="12.00" y="14.00" width="1.00" height="1.00" />
      <rect x="14.00" y="14.00" width="1.00" height="1.00" />
      <rect x="17.00" y="14.00" width="1.00" height="1.00" />
      <rect x="20.00" y="14.00" width="1.00" height="1.00" />
      <rect x="22.00" y="14.00" width="2.00" height="1.00" />
      <rect x="0.00" y="15.00" width="1.00" height="1.00" />
      <rect x="3.00" y="15.00" width="1.00" height="1.00" />
      <rect x="5.00" y="15.00" width="1.00" height="1.00" />
      <rect x="7.00" y="15.00" width="3.00" height="1.00" />
      <rect x="12.00" y="15.00" width="2.00" height="1.00" />
      <rect x="17.00" y="15.00" width="2.00" height="1.00" />
      <rect x="21.00" y="15.00" width="1.00" height="1.00" />
      <rect x="24.00" y="15.00" width="1.00" height="1.00" />
      <rect x="3.00" y="16.00" width="9.00" height="1.00" />
      <rect x="16.00" y="16.00" width="9.00" height="1.00" />
      <rect x="8.00" y="17.00" width="1.00" height="1.00" />
      <rect x="10.00" y="17.00" width="1.00" height="1.00" />
      <rect x="12.00" y="17.00" width="2.00" height="1.00" />
      <rect x="16.00" y="17.00" width="1.00" height="1.00" />
      <rect x="20.00" y="17.00" width="1.00" height="1.00" />
      <rect x="24.00" y="17.00" width="1.00" height="1.00" />
      <rect x="0.00" y="18.00" width="7.00" height="1.00" />
      <rect x="11.00" y="18.00" width="2.00" height="1.00" />
      <rect x="16.00" y="18.00" width="1.00" height="1.00" />
      <rect x="18.00" y="18.00" width="1.00" height="1.00" />
      <rect x="20.00" y="18.00" width="5.00" height="1.00" />
      <rect x="0.00" y="19.00" width="1.00" height="1.00" />
      <rect x="6.00" y="19.00" width="1.00" height="1.00" />
      <rect x="9.00" y="19.00" width="1.00" height="1.00" />
      <rect x="12.00" y="19.00" width="1.00" height="1.00" />
      <rect x="15.00" y="19.00" width="2.00" height="1.00" />
      <rect x="20.00" y="19.00" width="1.00" height="1.00" />
      <rect x="23.00" y="19.00" width="1.00" height="1.00" />
      <rect x="0.00" y="20.00" width="1.00" height="1.00" />
      <rect x="2.00" y="20.00" width="3.00" height="1.00" />
      <rect x="6.00" y="20.00" width="1.00" height="1.00" />
      <rect x="11.00" y="20.00" width="3.00" height="1.00" />
      <rect x="16.00" y="20.00" width="5.00" height="1.00" />
      <rect x="23.00" y="20.00" width="1.00" height="1.00" />
      <rect x="0.00" y="21.00" width="1.00" height="1.00" />
      <rect x="2.00" y="21.00" width="3.00" height="1.00" />
      <rect x="6.00" y="21.00" width="1.00" height="1.00" />
      <rect x="8.00" y="21.00" width="3.00" height="1.00" />
      <rect x="12.00" y="21.00" width="9.00" height="1.00" />
      <rect x="22.00" y="21.00" width="3.00" height="1.00" />
      <rect x="0.00" y="22.00" width="1.00" height="1.00" />
      <rect x="2.00" y="22.00" width="3.00" height="1.00" />
      <rect x="6.00" y="22.00" width="1.00" height="1.00" />
      <rect x="8.00" y="22.00" width="2.00" height="1.00" />
      <rect x="11.00" y="22.00" width="3.00" height="1.00" />
      <rect x="15.00" y="22.00" width="9.00" height="1.00" />
      <rect x="0.00" y="23.00" width="1.00" height="1.00" />
      <rect x="6.00" y="23.00" width="1.00" height="1.00" />
      <rect x="8.00" y="23.00" width="3.00" height="1.00" />
      <rect x="17.00" y="23.00" width="1.00" height="1.00" />
      <rect x="20.00" y="23.00" width="1.00" height="1.00" />
      <rect x="22.00" y="23.00" width="1.00" height="1.00" />
      <rect x="0.00" y="24.00" width="7.00" height="1.00" />
      <rect x="8.00" y="24.00" width="1.00" height="1.00" />
      <rect x="12.00" y="24.00" width="1.00" height="1.00" />
      <rect x="14.00" y="24.00" width="2.00" height="1.00" />
      <rect x="18.00" y="24.00" width="7.00" height="1.00" />
   </g>
</svg>
