<?xml version="1.0" encoding="UTF-8" standalone="no"?>
<svg width="70px" height="60px" viewBox="0 0 70 60" version="1.1" xmlns="http://www.w3.org/2000/svg" xmlns:xlink="http://www.w3.org/1999/xlink" xmlns:sketch="http://www.bohemiancoding.com/sketch/ns">
    <!-- Generator: Sketch 3.3.3 (12072) - http://www.bohemiancoding.com/sketch -->
    <title>casandra</title>
    <desc>Created with Sketch.</desc>
    <defs></defs>
    <g id="Page-1" stroke="none" stroke-width="1" fill="none" fill-rule="evenodd" sketch:type="MSPage">
        <g id="HP" sketch:type="MSArtboardGroup" transform="translate(-373.000000, -635.000000)">
            <g id="Group" sketch:type="MSLayerGroup" transform="translate(0.000000, 602.000000)">
                <g id="casandra" transform="translate(373.000000, 33.000000)" sketch:type="MSShapeGroup">
                    <rect id="Rectangle-314-Copy-2" fill-opacity="0.01" fill="#261F3B" x="0" y="0" width="70" height="60"></rect>
                    <g id="Imported-Layers-Copy-2" transform="translate(0.000000, 13.000000)">
                        <path d="M51.3573846,15.2680345 C50.1652308,14.0611724 47.9144615,11.9403448 44.9432308,9.83982759 C40.8703077,6.96537931 34.5573846,3.53506897 27.6123077,3.53506897 C20.6672308,3.53506897 14.3532308,6.96537931 10.2803077,9.83982759 C7.30907692,11.9382069 5.06046154,14.0611724 3.86830769,15.2680345 C5.05830769,16.4748966 7.30907692,18.5978621 10.2803077,20.6962414 C14.3532308,23.5738966 20.6672308,27.0042069 27.6123077,27.0042069 C34.5573846,27.0042069 40.8703077,23.5738966 44.9432308,20.6962414 C47.9144615,18.5978621 50.1652308,16.4748966 51.3573846,15.2680345 M27.6123077,0.45537931 C33.7798462,0.45537931 40.418,2.84986207 46.8084615,7.378 C51.5835385,10.7644828 54.5332308,14.1199655 54.656,14.2621379 C55.1610769,14.8404483 55.1610769,15.6977586 54.656,16.2771379 C54.5332308,16.4182414 51.5835385,19.7715862 46.8084615,23.158069 C40.418,27.6883448 33.7798462,30.0838966 27.6123077,30.0838966 C21.4458462,30.0838966 14.8076923,27.6883448 8.41723077,23.158069 C3.64,19.7715862 0.691384615,16.4182414 0.567538462,16.2771379 C0.0635384615,15.6977586 0.0635384615,14.8404483 0.567538462,14.2621379 C0.691384615,14.1199655 3.64,10.7644828 8.41723077,7.378 C14.8076923,2.84986207 21.4458462,0.45537931 27.6123077,0.45537931" id="Fill-1" fill="#48C3E4"></path>
                        <path d="M32.368,13.111931 C32.368,14.4620345 31.2641538,15.5587931 29.9029231,15.5587931 C28.5406154,15.5587931 27.4367692,14.4620345 27.4367692,13.111931 C27.4367692,11.7607586 28.5406154,10.665069 29.9029231,10.665069 C31.2641538,10.665069 32.368,11.7607586 32.368,13.111931" id="Fill-2" fill="#42A1C0"></path>
                        <path d="M29.1361538,6.27803448 C29.1361538,7.24437931 28.3456923,8.02793103 27.3732308,8.02793103 C26.4007692,8.02793103 25.6103077,7.24437931 25.6103077,6.27803448 C25.6103077,5.31168966 26.4007692,4.52813793 27.3732308,4.52813793 C28.3456923,4.52813793 29.1361538,5.31168966 29.1361538,6.27803448" id="Fill-3" fill="#FFFFFF"></path>
                        <path d="M34.7436923,7.75641379 C34.7436923,8.72275862 33.9543077,9.50631034 32.9807692,9.50631034 C32.0093846,9.50631034 31.2178462,8.72275862 31.2178462,7.75641379 C31.2178462,6.79006897 32.0093846,6.00651724 32.9807692,6.00651724 C33.9543077,6.00651724 34.7436923,6.79006897 34.7436923,7.75641379" id="Fill-4" fill="#FFFFFF"></path>
                        <path d="M38.1618462,11.7564828 C38.1618462,12.7228276 37.3713846,13.5063793 36.3989231,13.5063793 C35.4264615,13.5063793 34.636,12.7228276 34.636,11.7564828 C34.636,10.7901379 35.4264615,10.0065862 36.3989231,10.0065862 C37.3713846,10.0065862 38.1618462,10.7901379 38.1618462,11.7564828" id="Fill-5" fill="#FFFFFF"></path>
                        <path d="M38.7756923,16.8885862 C38.7756923,17.854931 37.9852308,18.6374138 37.0127692,18.6374138 C36.0392308,18.6374138 35.2509231,17.854931 35.2509231,16.8885862 C35.2509231,15.9211724 36.0392308,15.1386897 37.0127692,15.1386897 C37.9852308,15.1386897 38.7756923,15.9211724 38.7756923,16.8885862" id="Fill-6" fill="#FFFFFF"></path>
                        <path d="M36.5841538,21.2371379 C36.5841538,22.2045517 35.7947692,22.9870345 34.8212308,22.9870345 C33.8498462,22.9870345 33.0583077,22.2045517 33.0583077,21.2371379 C33.0583077,20.2707931 33.8498462,19.4872414 34.8212308,19.4872414 C35.7947692,19.4872414 36.5841538,20.2707931 36.5841538,21.2371379" id="Fill-7" fill="#FFFFFF"></path>
                        <path d="M32.4649231,23.7598966 C32.4649231,24.7262414 31.6766154,25.5087241 30.7030769,25.5087241 C29.7316923,25.5087241 28.9401538,24.7262414 28.9401538,23.7598966 C28.9401538,22.7924828 29.7316923,22.01 30.7030769,22.01 C31.6766154,22.01 32.4649231,22.7924828 32.4649231,23.7598966" id="Fill-8" fill="#FFFFFF"></path>
                        <path d="M27.6467692,24.0207241 C27.6467692,24.987069 26.8573846,25.7695517 25.8838462,25.7695517 C24.9113846,25.7695517 24.122,24.987069 24.122,24.0207241 C24.122,23.0533103 24.9113846,22.2708276 25.8838462,22.2708276 C26.8573846,22.2708276 27.6467692,23.0533103 27.6467692,24.0207241" id="Fill-9" fill="#FFFFFF"></path>
                        <path d="M23.3541538,21.9330345 C23.3541538,22.8993793 22.5626154,23.6818621 21.5912308,23.6818621 C20.6176923,23.6818621 19.8283077,22.8993793 19.8283077,21.9330345 C19.8283077,20.9656207 20.6176923,20.1831379 21.5912308,20.1831379 C22.5626154,20.1831379 23.3541538,20.9656207 23.3541538,21.9330345" id="Fill-10" fill="#FFFFFF"></path>
                        <path d="M20.7684615,17.454069 C20.7684615,18.4204138 19.978,19.2039655 19.0055385,19.2039655 C18.032,19.2039655 17.2436923,18.4204138 17.2436923,17.454069 C17.2436923,16.4877241 18.032,15.7041724 19.0055385,15.7041724 C19.978,15.7041724 20.7684615,16.4877241 20.7684615,17.454069" id="Fill-11" fill="#FFFFFF"></path>
                        <path d="M20.7243077,12.6266207 C20.7243077,13.5940345 19.9349231,14.3765172 18.9613846,14.3765172 C17.9889231,14.3765172 17.1995385,13.5940345 17.1995385,12.6266207 C17.1995385,11.6602759 17.9889231,10.8777931 18.9613846,10.8777931 C19.9349231,10.8777931 20.7243077,11.6602759 20.7243077,12.6266207" id="Fill-12" fill="#FFFFFF"></path>
                        <path d="M23.7041538,8.01724138 C23.7041538,8.98358621 22.9147692,9.76713793 21.9412308,9.76713793 C20.9687692,9.76713793 20.1783077,8.98358621 20.1783077,8.01724138 C20.1783077,7.05089655 20.9687692,6.26734483 21.9412308,6.26734483 C22.9147692,6.26734483 23.7041538,7.05089655 23.7041538,8.01724138" id="Fill-13" fill="#FFFFFF"></path>
                    </g>
                </g>
            </g>
        </g>
    </g>
</svg>