<?xml version="1.0" encoding="UTF-8" standalone="no"?>
<svg width="71px" height="60px" viewBox="0 0 71 60" version="1.1" xmlns="http://www.w3.org/2000/svg" xmlns:xlink="http://www.w3.org/1999/xlink" xmlns:sketch="http://www.bohemiancoding.com/sketch/ns">
    <!-- Generator: Sketch 3.3.3 (12072) - http://www.bohemiancoding.com/sketch -->
    <title>z</title>
    <desc>Created with Sketch.</desc>
    <defs></defs>
    <g id="Page-1" stroke="none" stroke-width="1" fill="none" fill-rule="evenodd" sketch:type="MSPage">
        <g id="HP" sketch:type="MSArtboardGroup" transform="translate(-936.000000, -635.000000)">
            <g id="Group" sketch:type="MSLayerGroup" transform="translate(0.000000, 602.000000)">
                <g id="z" transform="translate(937.000000, 33.000000)" sketch:type="MSShapeGroup">
                    <rect id="Rectangle-314-Copy-4" fill-opacity="0.01" fill="#261F3B" x="0" y="0" width="70" height="60"></rect>
                    <g id="Imported-Layers" transform="translate(0.000000, 16.000000)">
                        <path d="M0.54196875,0.806596154 L0.54196875,29.6562379 L37.2933438,29.6562379" id="Stroke-1" stroke="#48C3E4" stroke-width="2.293" stroke-linecap="round" stroke-linejoin="round"></path>
                        <path d="M26.5141875,10.014914 C25.6083438,10.741751 24.2886563,10.5899514 23.5685938,9.68044028 C22.8446875,8.77350202 22.9933125,7.4497581 23.897875,6.72420749 C24.8037188,5.99737045 26.1246875,6.1478836 26.84475,7.05739474 C27.5699375,7.964333 27.41875,9.28936336 26.5141875,10.014914" id="Fill-2" fill="#FFFFFF"></path>
                        <path d="M21.5621563,13.9822864 C20.6550313,14.7091235 19.336625,14.5573239 18.6152813,13.6503856 C17.8926563,12.7408745 18.04,11.4171306 18.9458438,10.69158 C19.8516875,9.96474291 21.1726563,10.1152561 21.894,11.0221943 C22.6179063,11.9317055 22.4667188,13.2593087 21.5621563,13.9822864" id="Fill-3" fill="#FFFFFF"></path>
                        <path d="M15.2404687,18.6134605 C14.0860625,18.4822439 13.2609375,17.4376569 13.3903437,16.2837227 C13.5184687,15.1310749 14.5562812,14.2961771 15.708125,14.4273937 C16.8586875,14.5573239 17.686375,15.5980516 17.5569687,16.7532723 C17.4275625,17.9097794 16.3910312,18.7408178 15.2404687,18.6134605" id="Fill-4" fill="#FFFFFF"></path>
                        <path d="M10.2871563,22.5782601 C9.13659375,22.4470435 8.30890625,21.4076022 8.4383125,20.2510951 C8.56771875,19.0958745 9.60425,18.2635496 10.7560938,18.3947662 C11.9092188,18.5221235 12.7343438,19.5654241 12.6049375,20.7206447 C12.4768125,21.8771518 11.439,22.7081903 10.2871563,22.5782601" id="Fill-5" fill="#FFFFFF"></path>
                        <path d="M5.46965625,26.711583 C4.31653125,26.5829393 3.490125,25.5422115 3.6208125,24.3869909 C3.7489375,23.2317702 4.78675,22.3994453 5.9373125,22.5306619 C7.087875,22.6580192 7.9155625,23.7013198 7.784875,24.8565405 C7.65803125,26.0104747 6.6215,26.8415132 5.46965625,26.711583" id="Fill-6" fill="#FFFFFF"></path>
                        <path d="M27.6250313,3.04242409 C27.6045313,4.20407692 26.7191875,5.01710526 25.51225,4.97979858 C24.3014688,4.94763765 23.5468125,4.11531275 23.600625,2.87647368 C23.6505938,1.72125304 24.42575,0.993129555 25.6057813,0.985410931 C26.7345625,0.980265182 27.64425,1.9065 27.6250313,3.04242409" id="Fill-7" fill="#FFFFFF"></path>
                        <path d="M30.990875,10.3648249 C29.8569688,10.3815486 28.9652188,9.4771832 28.9639375,8.30395243 C28.961375,7.18089271 29.9095,6.22635628 31.0075313,6.2443664 C32.062,6.26366296 32.928125,7.15902328 32.95375,8.24606275 C32.979375,9.42701215 32.1299063,10.3468148 30.990875,10.3648249" id="Fill-8" fill="#FFFFFF"></path>
                        <path d="M32.9524688,3.00254453 C32.9499063,4.2516751 32.1734688,5.01067308 30.9255313,4.97979858 C29.6968125,4.9527834 28.930625,4.151333 28.9652188,2.91763968 C28.9985313,1.81130364 29.8313438,0.994415992 30.939625,0.985410931 C32.1478438,0.975119433 32.9563125,1.78686134 32.9524688,3.00254453" id="Fill-9" fill="#FFFFFF"></path>
                        <path d="M20.3436875,0.985410931 C21.4878437,1.01757186 22.3590937,1.9618168 22.304,3.10803239 C22.2514687,4.23366498 21.3059062,5.04540688 20.1220312,4.97979858 C19.0432187,4.92190891 18.2001562,4.02783502 18.2232187,2.95751923 C18.2462812,1.83188664 19.1969687,0.949390688 20.3436875,0.985410931" id="Fill-10" fill="#FFFFFF"></path>
                        <path d="M32.9550313,13.5474706 C32.9716875,14.7232743 32.1004375,15.6533684 30.9819063,15.6507955 C29.91975,15.6482227 29.0075,14.7760182 28.9652188,13.7237126 C28.9165313,12.4347024 29.730125,11.5959453 31.0203438,11.603664 C32.1734688,11.6100962 32.938375,12.3793856 32.9550313,13.5474706" id="Fill-11" fill="#FFFFFF"></path>
                    </g>
                </g>
            </g>
        </g>
    </g>
</svg>