<?xml version="1.0" encoding="UTF-8" standalone="no"?>
<svg width="70px" height="60px" viewBox="0 0 70 60" version="1.1" xmlns="http://www.w3.org/2000/svg" xmlns:xlink="http://www.w3.org/1999/xlink" xmlns:sketch="http://www.bohemiancoding.com/sketch/ns">
    <!-- Generator: Sketch 3.3.3 (12072) - http://www.bohemiancoding.com/sketch -->
    <title>spead</title>
    <desc>Created with Sketch.</desc>
    <defs></defs>
    <g id="Page-1" stroke="none" stroke-width="1" fill="none" fill-rule="evenodd" sketch:type="MSPage">
        <g id="HP" sketch:type="MSArtboardGroup" transform="translate(-90.000000, -635.000000)">
            <g id="Group" sketch:type="MSLayerGroup" transform="translate(0.000000, 602.000000)">
                <g id="spead" transform="translate(90.000000, 33.000000)" sketch:type="MSShapeGroup">
                    <rect id="Rectangle-314-Copy-2" fill-opacity="0.01" fill="#261F3B" x="0" y="0" width="70" height="60"></rect>
                    <g id="Imported-Layers-Copy" transform="translate(3.000000, 12.000000)">
                        <path d="M0.12143529,28.1337436 C2.26205525,12.7146667 15.2918035,0.853333333 31.0538458,0.853333333 C46.8133044,0.853333333 59.8430527,12.7146667 61.9862564,28.1337436" id="Stroke-1" stroke="#48C3E4" stroke-width="2" stroke-linecap="round" stroke-linejoin="round"></path>
                        <path d="M8.80535041,27.1714462 C8.80535041,28.3595487 7.85841352,29.3205333 6.69185961,29.3205333 C5.52530571,29.3205333 4.57707695,28.3595487 4.57707695,27.1714462 C4.57707695,25.9846564 5.52530571,25.022359 6.69185961,25.022359 C7.85841352,25.022359 8.80535041,25.9846564 8.80535041,27.1714462" id="Fill-2" fill="#FFFFFF"></path>
                        <path d="M11.4304197,20.6493538 C11.4304197,21.8361436 10.4821909,22.7971282 9.315637,22.7971282 C8.1490831,22.7971282 7.20085434,21.8361436 7.20085434,20.6493538 C7.20085434,19.4612513 8.1490831,18.5002667 9.315637,18.5002667 C10.4821909,18.5002667 11.4304197,19.4612513 11.4304197,20.6493538" id="Fill-3" fill="#FFFFFF"></path>
                        <path d="M15.2827605,15.1053128 C15.2827605,16.2921026 14.3371154,17.2544 13.1679778,17.2544 C12.0027158,17.2544 11.054487,16.2921026 11.054487,15.1053128 C11.054487,13.9185231 12.0027158,12.9562256 13.1679778,12.9562256 C14.3371154,12.9562256 15.2827605,13.9185231 15.2827605,15.1053128" id="Fill-4" fill="#FFFFFF"></path>
                        <path d="M20.417923,11.0276923 C20.417923,12.2157949 19.4709861,13.1767795 18.3031403,13.1767795 C17.1378783,13.1767795 16.1883577,12.2157949 16.1883577,11.0276923 C16.1883577,9.84090256 17.1378783,8.87991795 18.3031403,8.87991795 C19.4709861,8.87991795 20.417923,9.84090256 20.417923,11.0276923" id="Fill-5" fill="#FFFFFF"></path>
                        <path d="M26.5168167,8.74601026 C26.5168167,9.9328 25.5685879,10.8950974 24.402034,10.8950974 C23.2341883,10.8950974 22.2872514,9.9328 22.2872514,8.74601026 C22.2872514,7.55922051 23.2341883,6.59692308 24.402034,6.59692308 C25.5685879,6.59692308 26.5168167,7.55922051 26.5168167,8.74601026" id="Fill-6" fill="#FFFFFF"></path>
                        <path d="M33.0949922,7.76664615 C33.0949922,8.9534359 32.1480553,9.91573333 30.9815014,9.91573333 C29.8136556,9.91573333 28.8667187,8.9534359 28.8667187,7.76664615 C28.8667187,6.57985641 29.8136556,5.61755897 30.9815014,5.61755897 C32.1480553,5.61755897 33.0949922,6.57985641 33.0949922,7.76664615" id="Fill-7" fill="#FFFFFF"></path>
                        <path d="M39.6744596,8.25632821 C39.6744596,9.44311795 38.7275227,10.4054154 37.5596769,10.4054154 C36.393123,10.4054154 35.4461861,9.44311795 35.4461861,8.25632821 C35.4461861,7.06953846 36.393123,6.10724103 37.5596769,6.10724103 C38.7275227,6.10724103 39.6744596,7.06953846 39.6744596,8.25632821" id="Fill-8" fill="#FFFFFF"></path>
                        <path d="M46.0937357,10.5406359 C46.0937357,11.7287385 45.145507,12.6897231 43.9789531,12.6897231 C42.8123991,12.6897231 41.8641704,11.7287385 41.8641704,10.5406359 C41.8641704,9.35384615 42.8123991,8.39286154 43.9789531,8.39286154 C45.145507,8.39286154 46.0937357,9.35384615 46.0937357,10.5406359" id="Fill-9" fill="#FFFFFF"></path>
                        <path d="M51.2276064,14.4541538 C51.2276064,15.6409436 50.2819614,16.603241 49.1141156,16.603241 C47.9475617,16.603241 46.9993329,15.6409436 46.9993329,14.4541538 C46.9993329,13.2660513 47.9475617,12.3050667 49.1141156,12.3050667 C50.2819614,12.3050667 51.2276064,13.2660513 51.2276064,14.4541538" id="Fill-10" fill="#FFFFFF"></path>
                        <path d="M54.7595647,19.9995077 C54.7595647,21.1876103 53.811336,22.1485949 52.6447821,22.1485949 C51.4782282,22.1485949 50.5299994,21.1876103 50.5299994,19.9995077 C50.5299994,18.8127179 51.4782282,17.8517333 52.6447821,17.8517333 C53.811336,17.8517333 54.7595647,18.8127179 54.7595647,19.9995077" id="Fill-11" fill="#FFFFFF"></path>
                        <path d="M57.3833421,26.3588103 C57.3833421,27.5456 56.4364052,28.5078974 55.2685595,28.5078974 C54.1020056,28.5078974 53.1550687,27.5456 53.1550687,26.3588103 C53.1550687,25.1720205 54.1020056,24.2097231 55.2685595,24.2097231 C56.4364052,24.2097231 57.3833421,25.1720205 57.3833421,26.3588103" id="Fill-12" fill="#FFFFFF"></path>
                        <path d="M43.4932119,19.3667282 L31.042219,28.7074462" id="Stroke-13" stroke="#48C3E4" stroke-width="2" stroke-linecap="round" stroke-linejoin="round"></path>
                        <path d="M34.1155654,28.6155487 C34.1155654,30.273641 32.791404,31.6205949 31.1584869,31.6205949 C29.5242779,31.6205949 28.2001165,30.273641 28.2001165,28.6155487 C28.2001165,26.9561436 29.5242779,25.6105026 31.1584869,25.6105026 C32.791404,25.6105026 34.1155654,26.9561436 34.1155654,28.6155487" id="Fill-14" fill="#48C3E4"></path>
                    </g>
                </g>
            </g>
        </g>
    </g>
</svg>