<?xml version="1.0" encoding="UTF-8" standalone="no"?>
<svg width="70px" height="60px" viewBox="0 0 70 60" version="1.1" xmlns="http://www.w3.org/2000/svg" xmlns:xlink="http://www.w3.org/1999/xlink" xmlns:sketch="http://www.bohemiancoding.com/sketch/ns">
    <!-- Generator: Sketch 3.3.3 (12072) - http://www.bohemiancoding.com/sketch -->
    <title>casandra copy</title>
    <desc>Created with Sketch.</desc>
    <defs></defs>
    <g id="Page-1" stroke="none" stroke-width="1" fill="none" fill-rule="evenodd" sketch:type="MSPage">
        <g id="HP" sketch:type="MSArtboardGroup" transform="translate(-652.000000, -635.000000)">
            <g id="Group" sketch:type="MSLayerGroup" transform="translate(0.000000, 602.000000)">
                <g id="casandra-copy" transform="translate(652.000000, 33.000000)" sketch:type="MSShapeGroup">
                    <rect id="Rectangle-314-Copy-2" fill-opacity="0.01" fill="#261F3B" x="0" y="0" width="70" height="60"></rect>
                    <g id="Imported-Layers" transform="translate(4.000000, 10.000000)">
                        <path d="M8.7165,7.82352941 L33.877125,7.82352941 C34.822125,7.82352941 35.6085,7.125 35.6085,6.18617647 C35.6085,5.24735294 34.822125,4.47058824 33.877125,4.47058824 L23.625,4.47058824 L23.625,1.10423529 C23.625,0.478352941 23.24925,0 22.61925,0 L13.959,0 C13.329,0 12.375,0.478352941 12.375,1.10423529 L12.375,4.47058824 L5.23575,4.47058824 L8.7165,7.82352941 L8.7165,7.82352941 Z M14.625,2.23529412 L21.375,2.23529412 L21.375,4.47058824 L14.625,4.47058824 L14.625,2.23529412 Z" id="Fill-1" fill="#4BC3E3"></path>
                        <path d="M27.59175,33.5294118 L9,33.5294118 L9,14.8311765 L5.6295,11.5721176 C5.628375,11.6034118 5.625,11.6324706 5.625,11.6626471 L5.625,34.8918235 C5.625,35.8317647 6.0075,36.8823529 6.9525,36.8823529 L29.62575,36.8823529 C30.031875,36.8823529 30.40425,36.7515882 30.702375,36.5280588 L27.59175,33.5294118" id="Fill-2" fill="#4BC3E3"></path>
                        <path d="M31.5,29.697 L31.5,11.6626471 C31.5,10.7249412 30.7575,9.94035294 29.8125,9.94035294 C28.8675,9.94035294 28.125,10.7249412 28.125,11.6626471 L28.125,26.353 L31.5,29.697" id="Fill-3" fill="#4BC3E3"></path>
                        <path d="M3.285,3.38535294 C4.006125,4.10176471 4.003875,5.25852941 3.285,5.97270588 C2.566125,6.68576471 1.40175,6.688 0.68175,5.97270588 C-0.037125,5.25629412 -0.036,4.09952941 0.68175,3.38535294 C1.40175,2.67229412 2.566125,2.67229412 3.285,3.38535294" id="Fill-4" fill="#FFFFFF"></path>
                        <path d="M7.219125,7.29488235 C7.939125,8.00905882 7.938,9.16582353 7.218,9.88 C6.499125,10.5952941 5.33475,10.5952941 4.617,9.88223529 C3.895875,9.16582353 3.898125,8.00682353 4.617,7.29488235 C5.3325,6.57958824 6.499125,6.57958824 7.219125,7.29488235" id="Fill-5" fill="#FFFFFF"></path>
                        <path d="M11.152125,11.2021765 C11.872125,11.9163529 11.872125,13.0753529 11.152125,13.7895294 C10.43325,14.5037059 9.26775,14.5037059 8.548875,13.7895294 C7.828875,13.0731176 7.828875,11.9141176 8.54775,11.2021765 C9.26775,10.4868824 10.43325,10.4868824 11.152125,11.2021765" id="Fill-6" fill="#FFFFFF"></path>
                        <path d="M15.795,16.2315882 C15.795,17.2452941 14.970375,18.0611765 13.9545,18.0611765 C12.9375,18.0634118 12.112875,17.2430588 12.112875,16.2315882 C12.114,15.2234706 12.9375,14.4053529 13.95225,14.4031176 C14.970375,14.4053529 15.795,15.2212353 15.795,16.2315882" id="Fill-7" fill="#FFFFFF"></path>
                        <path d="M19.729125,20.1411176 C19.728,21.1503529 18.9045,21.9684706 17.8875,21.9707059 C16.8705,21.9684706 16.047,21.1525882 16.047,20.1411176 C16.047,19.1285294 16.8705,18.3104118 17.8875,18.3126471 C18.903375,18.3104118 19.729125,19.1307647 19.729125,20.1411176" id="Fill-8" fill="#FFFFFF"></path>
                        <path d="M23.79375,23.9154118 C23.79375,24.9268824 22.97025,25.745 21.95325,25.745 C20.937375,25.745 20.111625,24.9268824 20.113875,23.9154118 C20.11275,22.9050588 20.937375,22.0869412 21.954375,22.0891765 C22.97025,22.0869412 23.79375,22.9050588 23.79375,23.9154118" id="Fill-9" fill="#FFFFFF"></path>
                        <path d="M27.729,27.8238235 C27.729,28.8341765 26.90325,29.6522941 25.887375,29.6522941 C24.870375,29.6522941 24.046875,28.8341765 24.04575,27.8238235 C24.04575,26.8123529 24.870375,25.9942353 25.887375,25.9942353 C26.90325,25.9942353 27.729,26.8123529 27.729,27.8238235" id="Fill-10" fill="#FFFFFF"></path>
                        <path d="M31.662,31.7311176 C31.662,32.7414706 30.83625,33.5595882 29.820375,33.5595882 C28.8045,33.5595882 27.979875,32.7414706 27.97875,31.7311176 C27.979875,30.7196471 28.8045,29.9015294 29.8215,29.9015294 C30.83625,29.9015294 31.662,30.7196471 31.662,31.7311176" id="Fill-11" fill="#FFFFFF"></path>
                        <path d="M35.596125,35.6384118 C35.595,36.6487647 34.76925,37.4668824 33.7545,37.4668824 C32.7375,37.4668824 31.912875,36.6487647 31.91175,35.6384118 C31.912875,34.6269412 32.7375,33.8088235 33.7545,33.8088235 C34.76925,33.8088235 35.596125,34.6269412 35.596125,35.6384118" id="Fill-12" fill="#FFFFFF"></path>
                    </g>
                </g>
            </g>
        </g>
    </g>
</svg>