<svg width="193" height="51" viewBox="0 0 193 51" fill="none" xmlns="http://www.w3.org/2000/svg">
<path fill-rule="evenodd" clip-rule="evenodd" d="M72.3898 14.0924C71.4279 14.0924 70.0537 14.4958 70.0537 15.6387C70.0537 16.8293 71.3243 17.1951 72.7939 17.6182C74.8094 18.1985 77.1993 18.8866 77.1993 21.958C77.1993 25.3866 74.451 27 71.2217 27C69.2292 27 67.4428 26.4622 66 25.1176L68.336 22.563C69.0918 23.437 70.1911 23.9748 71.3592 23.9748C72.5272 23.9748 73.7639 23.437 73.7639 22.3613C73.7639 21.1574 72.4397 20.7479 70.9206 20.2782C68.8771 19.6463 66.4809 18.9054 66.4809 15.9748C66.4809 12.6807 69.3666 11 72.4585 11C74.1761 11 75.8938 11.4706 77.1993 12.6134L74.8632 15.1008C74.3136 14.4286 73.2142 14.0924 72.3898 14.0924ZM92.727 14.0924C90.1162 14.0924 88.1924 16.1765 88.1924 19C88.1924 21.8235 90.1162 23.9076 92.5896 23.9076C93.9638 23.9076 95.1318 23.3025 95.8189 22.2941L98.7046 24.3782C97.3991 26.1933 95.2005 27 93.0706 27C88.1924 27 84.6883 23.9076 84.6883 19C84.6883 14.0924 88.1924 11 93.0706 11C94.7883 11 96.9869 11.605 98.2923 13.2185L95.6814 15.3697C94.9944 14.563 94.0325 14.0924 92.727 14.0924ZM113.545 20.1418L119.385 11.4023H115.332L111.828 17.1166L108.53 11.4023H104.27L110.11 20.1418V26.6628H113.545V20.1418ZM136.081 26.5956H126.325V11.4023H129.76V23.5032H136.081V26.5956ZM143.845 26.5956H153.601V23.5032H147.28V11.4023H143.845V26.5956ZM169.198 11.3361L176 26.5966H172.221L170.847 23.3697L169.679 20.5462L167.755 15.8403L165.831 20.5462L164.732 23.3697L163.427 26.5966H159.648L166.381 11.3361H169.198Z" fill="white"/>
<path d="M65.9902 45V36.4688H68.3984C69.1406 36.4688 69.7969 36.6328 70.3672 36.9609C70.9375 37.2891 71.377 37.7559 71.6855 38.3613C71.998 38.9668 72.1562 39.6621 72.1602 40.4473V40.9922C72.1602 41.7969 72.0039 42.502 71.6914 43.1074C71.3828 43.7129 70.9395 44.1777 70.3613 44.502C69.7871 44.8262 69.1172 44.9922 68.3516 45H65.9902ZM67.1152 37.3945V44.0801H68.2988C69.166 44.0801 69.8398 43.8105 70.3203 43.2715C70.8047 42.7324 71.0469 41.9648 71.0469 40.9688V40.4707C71.0469 39.502 70.8184 38.75 70.3613 38.2148C69.9082 37.6758 69.2637 37.4023 68.4277 37.3945H67.1152ZM81.4277 41.0098C81.4277 41.8457 81.2871 42.5762 81.0059 43.2012C80.7246 43.8223 80.3262 44.2969 79.8105 44.625C79.2949 44.9531 78.6934 45.1172 78.0059 45.1172C77.334 45.1172 76.7383 44.9531 76.2188 44.625C75.6992 44.293 75.2949 43.8223 75.0059 43.2129C74.7207 42.5996 74.5742 41.8906 74.5664 41.0859V40.4707C74.5664 39.6504 74.709 38.9258 74.9941 38.2969C75.2793 37.668 75.6816 37.1875 76.2012 36.8555C76.7246 36.5195 77.3223 36.3516 77.9941 36.3516C78.6777 36.3516 79.2793 36.5176 79.7988 36.8496C80.3223 37.1777 80.7246 37.6562 81.0059 38.2852C81.2871 38.9102 81.4277 39.6387 81.4277 40.4707V41.0098ZM80.3086 40.459C80.3086 39.4473 80.1055 38.6719 79.6992 38.1328C79.293 37.5898 78.7246 37.3184 77.9941 37.3184C77.2832 37.3184 76.7227 37.5898 76.3125 38.1328C75.9062 38.6719 75.6973 39.4219 75.6855 40.3828V41.0098C75.6855 41.9902 75.8906 42.7617 76.3008 43.3242C76.7148 43.8828 77.2832 44.1621 78.0059 44.1621C78.7324 44.1621 79.2949 43.8984 79.6934 43.3711C80.0918 42.8398 80.2969 42.0801 80.3086 41.0918V40.459ZM90.3906 42.293C90.2852 43.1953 89.9512 43.8926 89.3887 44.3848C88.8301 44.873 88.0859 45.1172 87.1562 45.1172C86.1484 45.1172 85.3398 44.7559 84.7305 44.0332C84.125 43.3105 83.8223 42.3438 83.8223 41.1328V40.3125C83.8223 39.5195 83.9629 38.8223 84.2441 38.2207C84.5293 37.6191 84.9316 37.1582 85.4512 36.8379C85.9707 36.5137 86.5723 36.3516 87.2559 36.3516C88.1621 36.3516 88.8887 36.6055 89.4355 37.1133C89.9824 37.6172 90.3008 38.3164 90.3906 39.2109H89.2598C89.1621 38.5312 88.9492 38.0391 88.6211 37.7344C88.2969 37.4297 87.8418 37.2773 87.2559 37.2773C86.5371 37.2773 85.9727 37.543 85.5625 38.0742C85.1562 38.6055 84.9531 39.3613 84.9531 40.3418V41.168C84.9531 42.0938 85.1465 42.8301 85.5332 43.377C85.9199 43.9238 86.4609 44.1973 87.1562 44.1973C87.7812 44.1973 88.2598 44.0566 88.5918 43.7754C88.9277 43.4902 89.1504 42.9961 89.2598 42.293H90.3906ZM98.9375 36.4688V42.2695C98.9336 43.0742 98.6797 43.7324 98.1758 44.2441C97.6758 44.7559 96.9961 45.043 96.1367 45.1055L95.8379 45.1172C94.9043 45.1172 94.1602 44.8652 93.6055 44.3613C93.0508 43.8574 92.7695 43.1641 92.7617 42.2812V36.4688H93.875V42.2461C93.875 42.8633 94.0449 43.3438 94.3848 43.6875C94.7246 44.0273 95.209 44.1973 95.8379 44.1973C96.4746 44.1973 96.9609 44.0273 97.2969 43.6875C97.6367 43.3477 97.8066 42.8691 97.8066 42.252V36.4688H98.9375ZM103.166 36.4688L105.955 43.4297L108.744 36.4688H110.203V45H109.078V41.6777L109.184 38.0918L106.383 45H105.521L102.727 38.1094L102.838 41.6777V45H101.713V36.4688H103.166ZM118.012 41.0566H114.314V44.0801H118.609V45H113.189V36.4688H118.551V37.3945H114.314V40.1367H118.012V41.0566ZM127.566 45H126.436L122.141 38.4258V45H121.01V36.4688H122.141L126.447 43.0723V36.4688H127.566V45ZM136.283 37.3945H133.541V45H132.422V37.3945H129.686V36.4688H136.283V37.3945ZM142.791 42.7734H139.217L138.414 45H137.254L140.512 36.4688H141.496L144.76 45H143.605L142.791 42.7734ZM139.557 41.8477H142.457L141.004 37.8574L139.557 41.8477ZM152.041 37.3945H149.299V45H148.18V37.3945H145.443V36.4688H152.041V37.3945ZM155.514 45H154.389V36.4688H155.514V45ZM165.139 41.0098C165.139 41.8457 164.998 42.5762 164.717 43.2012C164.436 43.8223 164.037 44.2969 163.521 44.625C163.006 44.9531 162.404 45.1172 161.717 45.1172C161.045 45.1172 160.449 44.9531 159.93 44.625C159.41 44.293 159.006 43.8223 158.717 43.2129C158.432 42.5996 158.285 41.8906 158.277 41.0859V40.4707C158.277 39.6504 158.42 38.9258 158.705 38.2969C158.99 37.668 159.393 37.1875 159.912 36.8555C160.436 36.5195 161.033 36.3516 161.705 36.3516C162.389 36.3516 162.99 36.5176 163.51 36.8496C164.033 37.1777 164.436 37.6562 164.717 38.2852C164.998 38.9102 165.139 39.6387 165.139 40.4707V41.0098ZM164.02 40.459C164.02 39.4473 163.816 38.6719 163.41 38.1328C163.004 37.5898 162.436 37.3184 161.705 37.3184C160.994 37.3184 160.434 37.5898 160.023 38.1328C159.617 38.6719 159.408 39.4219 159.396 40.3828V41.0098C159.396 41.9902 159.602 42.7617 160.012 43.3242C160.426 43.8828 160.994 44.1621 161.717 44.1621C162.443 44.1621 163.006 43.8984 163.404 43.3711C163.803 42.8398 164.008 42.0801 164.02 41.0918V40.459ZM174.383 45H173.252L168.957 38.4258V45H167.826V36.4688H168.957L173.264 43.0723V36.4688H174.383V45Z" fill="white"/>
<path d="M191.033 27.8143C192.601 27.2443 193.384 25.5344 192.814 23.9669C192.244 22.3994 190.534 21.6157 188.967 22.1857C187.399 22.7557 186.616 24.4656 187.186 26.0331C187.684 27.6006 189.466 28.3843 191.033 27.8143Z" fill="#42C4E6"/>
<path d="M12.3113 44.5245C12.3798 45.1078 12.2252 45.6955 11.8785 46.1695C11.5318 46.6436 11.0186 46.969 10.4419 47.0804C9.8653 47.1918 9.26785 47.081 8.7695 46.7702C8.27115 46.4594 7.90878 45.9716 7.75512 45.4048C7.75512 45.4048 3.48975 25.4467 3.48975 21.3597C3.48975 12.8212 10.2756 6.79541 19.8184 6.79541C29.3612 6.79541 36.1412 12.8212 36.1412 21.3597C36.1412 25.4467 31.8874 45.4009 31.8874 45.4009C31.7429 45.978 31.3827 46.4779 30.8809 46.7977C30.3792 47.1174 29.774 47.2328 29.1898 47.1201C28.6056 47.0074 28.0867 46.6751 27.74 46.1916C27.3932 45.7081 27.2449 45.1102 27.3254 44.5207" fill="#57D1E5"/>
<path d="M12.3113 44.5245C12.3798 45.1078 12.2252 45.6955 11.8785 46.1695C11.5318 46.6436 11.0186 46.969 10.4419 47.0804C9.8653 47.1918 9.26785 47.081 8.7695 46.7702C8.27115 46.4594 7.90878 45.9716 7.75512 45.4048C7.75512 45.4048 3.48975 25.4467 3.48975 21.3597C3.48975 12.8212 10.2756 6.79541 19.8184 6.79541C29.3612 6.79541 36.1412 12.8212 36.1412 21.3597C36.1412 25.4467 31.8874 45.4009 31.8874 45.4009C31.7429 45.978 31.3827 46.4779 30.8809 46.7977C30.3792 47.1174 29.774 47.2328 29.1898 47.1201C28.6056 47.0074 28.0867 46.6751 27.74 46.1916C27.3932 45.7081 27.2449 45.1102 27.3254 44.5207" stroke="#3B2D55" stroke-width="0.754195" stroke-linecap="round" stroke-linejoin="round"/>
<path d="M30.8386 38.8049L29.6753 45.3077C29.5549 45.89 29.2161 46.4042 28.7284 46.7445C28.2408 47.0848 27.6413 47.2255 27.0532 47.1377C26.465 47.0498 25.9329 46.7401 25.566 46.2721C25.1991 45.8042 25.0253 45.2135 25.0803 44.6213" fill="#5FC8DE"/>
<path d="M31.0868 38.8495L30.827 40.5517L30.5575 42.2521L30.2803 43.9505L30.1388 44.7997C30.0979 45.0985 30.0409 45.3949 29.9681 45.6876C29.8234 46.1722 29.5453 46.6064 29.1657 46.9406C28.7861 47.2748 28.3203 47.4956 27.8213 47.5779C27.3222 47.6601 26.8101 47.6005 26.3434 47.4058C25.8766 47.2111 25.4739 46.8892 25.1812 46.4767C24.7921 45.9244 24.6222 45.2473 24.7043 44.5767C24.7161 44.4775 24.7669 44.387 24.8454 44.3252C24.924 44.2634 25.0238 44.2353 25.1231 44.2471C25.2223 44.2589 25.3128 44.3097 25.3746 44.3882C25.4364 44.4668 25.4645 44.5666 25.4527 44.6659C25.4007 45.1482 25.5315 45.6324 25.8191 46.023C26.0976 46.4139 26.5128 46.6859 26.9824 46.785C27.4538 46.885 27.9455 46.807 28.3628 46.5659C28.7824 46.3241 29.0954 45.9329 29.2392 45.4705C29.3012 45.2592 29.3516 44.947 29.4059 44.6717L29.5688 43.8264L29.8945 42.1377L30.2299 40.449L30.5808 38.7642C30.5973 38.7034 30.6359 38.6511 30.689 38.6174C30.7421 38.5837 30.8059 38.571 30.8679 38.582C30.9298 38.5929 30.9854 38.6266 31.0238 38.6765C31.0622 38.7263 31.0805 38.7887 31.0752 38.8514L31.0868 38.8495Z" fill="#3B2D55"/>
<path d="M14.2948 27.1353C18.3167 27.1353 21.577 23.875 21.577 19.8532C21.577 15.8314 18.3167 12.571 14.2948 12.571C10.273 12.571 7.0127 15.8314 7.0127 19.8532C7.0127 23.875 10.273 27.1353 14.2948 27.1353Z" fill="white" stroke="#3B2D55" stroke-width="0.754195" stroke-linecap="round" stroke-linejoin="round"/>
<path d="M15.8015 15.0817C14.5413 15.326 14.295 18.0946 15.0473 18.8488C15.5417 19.3432 16.5537 19.508 16.5537 19.8531C16.5537 20.1982 15.5417 20.363 15.0473 20.8574C14.295 21.6116 14.5413 24.3725 15.8015 24.6323C17.2982 24.9308 19.5666 23.1258 19.5666 19.8609C19.5666 16.5959 17.2982 14.7831 15.8015 15.0817Z" fill="#3B2D55"/>
<path d="M10.7778 29.646C11.0299 30.4002 11.7821 31.6546 12.7864 31.4045C13.275 31.2823 13.5406 30.6503 13.5406 29.646" fill="white"/>
<path d="M10.7778 29.646C11.0299 30.4002 11.7821 31.6546 12.7864 31.4045C13.275 31.2823 13.5406 30.6503 13.5406 29.646" stroke="#3B2D55" stroke-width="0.628173" stroke-linecap="round" stroke-linejoin="round"/>
<path d="M17.3076 29.144C17.5577 30.1483 17.8098 30.9024 18.562 30.9024C19.3143 30.9024 20.3205 29.8981 20.0685 28.1396" fill="white"/>
<path d="M17.3076 29.144C17.5577 30.1483 17.8098 30.9024 18.562 30.9024C19.3143 30.9024 20.3205 29.8981 20.0685 28.1396" stroke="#3B2D55" stroke-width="0.754195" stroke-linecap="round" stroke-linejoin="round"/>
<path d="M9.31774 29.0915C14.1657 29.791 19.0985 28.6248 23.1201 25.8285C23.2021 25.7714 23.3034 25.7493 23.4018 25.7669C23.5001 25.7845 23.5875 25.8405 23.6445 25.9225C23.7016 26.0045 23.7238 26.1059 23.7061 26.2042C23.6885 26.3026 23.6325 26.3899 23.5505 26.447C19.3621 29.3094 14.2437 30.4762 9.22856 29.7119C9.14603 29.6996 9.07178 29.655 9.02215 29.5879C8.97252 29.5208 8.95157 29.4367 8.96391 29.3542C8.97625 29.2717 9.02087 29.1974 9.08795 29.1478C9.15504 29.0982 9.23909 29.0772 9.32162 29.0896L9.31774 29.0915Z" fill="#3B2D55"/>
<path d="M23.6847 27.0151C23.6155 26.6737 23.4372 26.3642 23.1768 26.1329C22.9273 25.9089 22.6113 25.7727 22.2772 25.7451C22.2253 25.7448 22.1741 25.7339 22.1267 25.7129C22.0793 25.692 22.0367 25.6615 22.0015 25.6234C21.9664 25.5853 21.9395 25.5404 21.9224 25.4915C21.9054 25.4425 21.8986 25.3906 21.9024 25.3389C21.9063 25.2872 21.9207 25.2369 21.9449 25.191C21.969 25.1451 22.0023 25.1047 22.0427 25.0723C22.0832 25.0398 22.1298 25.016 22.1798 25.0024C22.2298 24.9887 22.2821 24.9855 22.3334 24.9929H22.3741C22.8502 25.0811 23.2849 25.3212 23.613 25.6773C23.9306 26.0245 24.1272 26.4653 24.1733 26.9336C24.1765 26.9962 24.1563 27.0578 24.1166 27.1062C24.0769 27.1547 24.0206 27.1867 23.9586 27.1959C23.8966 27.2051 23.8334 27.1909 23.7814 27.156C23.7293 27.1211 23.6921 27.0681 23.677 27.0073L23.6847 27.0151Z" fill="#3B2D55"/>
<path d="M14.5527 44.6213C14.6077 45.2135 14.4339 45.8042 14.067 46.2721C13.7001 46.7401 13.1679 47.0498 12.5798 47.1377C11.9917 47.2255 11.3922 47.0848 10.9046 46.7445C10.4169 46.4042 10.0781 45.89 9.95772 45.3077L8.79443 38.8049" fill="#57D1E5"/>
<path d="M14.9287 44.5767C15.013 45.2486 14.842 45.9276 14.4496 46.4795C14.0572 47.0313 13.4719 47.4157 12.8096 47.5567C12.1456 47.6981 11.4528 47.5824 10.8708 47.2329C10.2906 46.883 9.8609 46.3304 9.66485 45.6819C9.59342 45.3898 9.5384 45.094 9.50005 44.7958L9.35852 43.9466L9.08127 42.2482L8.81178 40.5479L8.55779 38.8456C8.55258 38.813 8.55394 38.7796 8.56179 38.7475C8.56964 38.7154 8.58382 38.6852 8.60351 38.6587C8.6232 38.6321 8.64799 38.6098 8.67642 38.5929C8.70486 38.5761 8.73638 38.5651 8.76912 38.5606C8.83207 38.5512 8.89623 38.566 8.94874 38.602C9.00124 38.6379 9.0382 38.6924 9.05219 38.7545L9.40117 40.4393L9.73853 42.128L10.0565 43.8264L10.2193 44.6717C10.2736 44.947 10.3221 45.2534 10.3861 45.4686C10.5338 45.93 10.8465 46.3207 11.2644 46.5659C11.5762 46.7436 11.931 46.8318 12.2897 46.8209C12.6484 46.8101 12.9972 46.7006 13.2977 46.5044C13.5982 46.3083 13.8389 46.0331 13.9932 45.7091C14.1476 45.3851 14.2096 45.0248 14.1726 44.6679C14.161 44.5686 14.1893 44.4688 14.2513 44.3905C14.3133 44.3121 14.4039 44.2616 14.5031 44.25C14.6024 44.2385 14.7022 44.2668 14.7805 44.3288C14.8589 44.3908 14.9094 44.4814 14.9209 44.5806L14.9287 44.5767Z" fill="#3B2D55"/>
<path d="M17.9067 44.7707C17.9236 45.3653 17.7121 45.9438 17.3157 46.3874C16.9193 46.8309 16.368 47.1057 15.7752 47.1554C15.1824 47.205 14.5931 47.0257 14.1285 46.6543C13.6638 46.2829 13.359 45.7476 13.2768 45.1584L12.5439 38.644" fill="#57D1E5"/>
<path d="M18.2831 44.7512C18.3244 45.4247 18.1118 46.0892 17.6872 46.6136C17.2626 47.138 16.6568 47.4842 15.9895 47.5838C15.3209 47.6846 14.639 47.5295 14.0798 47.1495C13.5232 46.772 13.1266 46.2013 12.9669 45.548C12.9083 45.251 12.8688 44.9505 12.8486 44.6484L12.7633 43.7954L12.6024 42.0815L12.4434 40.3734L12.3019 38.6634C12.2944 38.5973 12.3135 38.5309 12.355 38.479C12.3964 38.427 12.4568 38.3936 12.5229 38.3861C12.589 38.3786 12.6553 38.3977 12.7073 38.4392C12.7593 38.4806 12.7927 38.5411 12.8001 38.6071L13.0406 40.3055L13.2655 42.0059L13.4826 43.7081L13.5892 44.5573C13.614 44.8255 13.6535 45.0922 13.7075 45.3561C13.806 45.8442 14.0886 46.2757 14.4966 46.5611C14.9046 46.8466 15.4068 46.9641 15.8991 46.8893C16.3914 46.8145 16.8361 46.5532 17.141 46.1595C17.4458 45.7657 17.5875 45.2698 17.5366 44.7745C17.5315 44.6747 17.5662 44.577 17.6331 44.5028C17.7 44.4286 17.7936 44.3841 17.8934 44.3789C17.9931 44.3738 18.0909 44.4085 18.165 44.4754C18.2392 44.5423 18.2838 44.6359 18.2889 44.7357L18.2831 44.7512Z" fill="#3B2D55"/>
<path d="M27.0908 38.644L26.3676 45.1565C26.2854 45.7456 25.9807 46.2809 25.516 46.6524C25.0513 47.0238 24.462 47.2031 23.8692 47.1534C23.2764 47.1038 22.7252 46.8289 22.3287 46.3854C21.9323 45.9419 21.7208 45.3634 21.7378 44.7687" fill="#57D1E5"/>
<path d="M27.3371 38.6712L27.1936 40.3812L27.0366 42.0893L26.8698 43.7954L26.7845 44.6485C26.7642 44.9498 26.7253 45.2496 26.6682 45.5462C26.5502 46.036 26.2975 46.483 25.9387 46.8366C25.5799 47.1902 25.1292 47.4363 24.6377 47.5471C24.1462 47.6579 23.6336 47.6288 23.1577 47.4633C22.6819 47.2978 22.2619 47.0024 21.9453 46.6106C21.5241 46.0855 21.3121 45.4233 21.35 44.7513C21.3552 44.6515 21.3997 44.5579 21.4739 44.491C21.5106 44.4578 21.5535 44.4323 21.6001 44.4157C21.6468 44.3992 21.6962 44.392 21.7456 44.3945C21.795 44.3971 21.8434 44.4093 21.888 44.4306C21.9327 44.4518 21.9727 44.4817 22.0058 44.5184C22.039 44.5551 22.0645 44.598 22.0811 44.6446C22.0976 44.6912 22.1048 44.7406 22.1023 44.79C22.0836 45.2724 22.2438 45.7447 22.5521 46.1162C22.8554 46.4882 23.287 46.733 23.7619 46.8025C24.2356 46.873 24.7187 46.7667 25.1191 46.5039C25.5223 46.2396 25.8116 45.8334 25.9295 45.3659C25.9818 45.1526 26.009 44.8463 26.0458 44.5651L26.1525 43.7159L26.3677 42.0137L26.5945 40.3133L26.8349 38.6149C26.8424 38.5489 26.8758 38.4885 26.9278 38.447C26.9798 38.4056 27.0461 38.3865 27.1122 38.3939C27.1782 38.4014 27.2386 38.4348 27.2801 38.4868C27.3215 38.5388 27.3406 38.6051 27.3332 38.6712H27.3371Z" fill="#3B2D55"/>
<path d="M22.329 38.4346L22.1351 44.9645C22.1351 45.5815 21.89 46.1733 21.4537 46.6096C21.0173 47.0459 20.4256 47.291 19.8085 47.291C19.1915 47.291 18.5997 47.0459 18.1634 46.6096C17.7271 46.1733 17.482 45.5815 17.482 44.9645L17.2881 38.4346" fill="#57D1E5"/>
<path d="M22.581 38.4424C22.581 40.1292 22.581 41.814 22.5403 43.4988L22.519 44.7629C22.5233 44.9964 22.5031 45.2297 22.4589 45.459C22.4101 45.7002 22.3272 45.9333 22.2126 46.1511C21.9848 46.5901 21.6413 46.9585 21.2193 47.2165C20.7973 47.4745 20.3128 47.6123 19.8182 47.6149C19.5716 47.6156 19.3261 47.581 19.0892 47.5122C18.8523 47.4465 18.6263 47.3466 18.4184 47.2155C17.9966 46.9581 17.6528 46.5909 17.4238 46.1531C17.3111 45.9349 17.2277 45.7028 17.1756 45.4629C17.1324 45.2334 17.1122 45.0003 17.1155 44.7668L17.0942 43.5027C17.0632 41.816 17.0535 40.1311 17.0554 38.4444C17.059 38.3813 17.0861 38.3218 17.1315 38.2778C17.1768 38.2338 17.2371 38.2084 17.3002 38.2067C17.3634 38.2049 17.425 38.227 17.4726 38.2686C17.5203 38.3101 17.5506 38.368 17.5576 38.4308C17.6584 40.1111 17.743 41.7946 17.8115 43.4814L17.8639 44.7436C17.8652 44.9316 17.8833 45.1191 17.9182 45.3039C17.977 45.5618 18.0871 45.8053 18.242 46.0198C18.3969 46.2343 18.5934 46.4155 18.8197 46.5525C18.97 46.6395 19.1319 46.7047 19.3005 46.7463C19.4689 46.794 19.6433 46.8168 19.8182 46.8142C20.171 46.8169 20.5177 46.7226 20.8206 46.5418C21.1235 46.3609 21.371 46.1004 21.536 45.7886C21.6209 45.6337 21.6823 45.4671 21.7182 45.2942C21.7549 45.1096 21.7737 44.922 21.7745 44.7339L21.8268 43.4717C21.8927 41.7869 21.98 40.104 22.0789 38.4211C22.0806 38.3881 22.0888 38.3557 22.1032 38.3259C22.1175 38.2961 22.1376 38.2694 22.1623 38.2474C22.187 38.2254 22.2158 38.2085 22.2471 38.1977C22.2784 38.187 22.3115 38.1825 22.3445 38.1846C22.4094 38.189 22.4702 38.2183 22.5142 38.2663C22.5582 38.3143 22.5822 38.3773 22.581 38.4424Z" fill="#3B2D55"/>
<path d="M36.0615 47.8048V20.9194H28.5719V47.8048H36.0615Z" fill="#7772AF" stroke="#392C54" stroke-width="0.692153" stroke-linecap="round" stroke-linejoin="round"/>
<path d="M34.0981 38.1884V23.8704H30.5327V38.1884H34.0981Z" fill="#EAEAE9"/>
<path d="M32.316 45.3116C33.1512 45.3116 33.8282 44.6346 33.8282 43.7994C33.8282 42.9642 33.1512 42.2871 32.316 42.2871C31.4808 42.2871 30.8037 42.9642 30.8037 43.7994C30.8037 44.6346 31.4808 45.3116 32.316 45.3116Z" fill="#392C54"/>
<path d="M43.54 47.8048V20.9194H36.0504V47.8048H43.54Z" fill="#FAB533" stroke="#392C54" stroke-width="0.752256" stroke-linecap="round" stroke-linejoin="round"/>
<path d="M41.5757 38.1901V23.8721H38.0102V38.1901H41.5757Z" fill="#EAEAE9"/>
<path d="M39.794 45.3116C40.6292 45.3116 41.3063 44.6346 41.3063 43.7994C41.3063 42.9642 40.6292 42.2871 39.794 42.2871C38.9588 42.2871 38.2817 42.9642 38.2817 43.7994C38.2817 44.6346 38.9588 45.3116 39.794 45.3116Z" fill="#392C54"/>
<path d="M51.0176 47.8048V20.9194H43.528V47.8048H51.0176Z" fill="#B03831" stroke="#392C54" stroke-width="0.752256" stroke-linecap="round" stroke-linejoin="round"/>
<path d="M49.0537 38.1901V23.8721H45.4883V38.1901H49.0537Z" fill="#EAEAE9"/>
<path d="M47.2715 45.3116C48.1067 45.3116 48.7838 44.6346 48.7838 43.7994C48.7838 42.9642 48.1067 42.2871 47.2715 42.2871C46.4363 42.2871 45.7593 42.9642 45.7593 43.7994C45.7593 44.6346 46.4363 45.3116 47.2715 45.3116Z" fill="#392C54"/>
<path d="M28.4174 20.6091L26.4418 21.7724C26.3971 21.7991 26.3601 21.8368 26.3343 21.882C26.3085 21.9272 26.2947 21.9782 26.2944 22.0303V47.0118C26.2944 47.0705 26.3116 47.1279 26.344 47.1769C26.3765 47.2259 26.4226 47.2642 26.4767 47.2871L28.431 48.1208L28.4174 20.6091Z" fill="#392C54"/>
</svg>
