<svg width="112" height="148" viewBox="0 0 112 148" fill="none" xmlns="http://www.w3.org/2000/svg">
<path d="M36.3925 129.43C36.6482 131.075 36.253 132.754 35.29 134.115C34.3271 135.476 32.8714 136.413 31.2287 136.728C29.5861 137.044 27.8845 136.714 26.4816 135.807C25.0786 134.9 24.0836 133.488 23.7055 131.867C23.7055 131.867 11.8782 76.6226 11.8782 65.3116C11.8782 41.6766 30.7362 25.0083 57.2755 25.0083C83.8148 25.0083 102.673 41.6878 102.673 65.3116C102.673 76.6226 90.8455 131.85 90.8455 131.85C90.4611 133.463 89.4657 134.865 88.0669 135.766C86.6681 136.666 84.9739 136.995 83.3376 136.683C81.7013 136.371 80.2493 135.442 79.2844 134.091C78.3194 132.74 77.9161 131.07 78.1585 129.43" fill="#57D1E5"/>
<path d="M36.3925 129.43C36.6482 131.075 36.253 132.754 35.29 134.115C34.3271 135.476 32.8714 136.413 31.2287 136.728C29.5861 137.044 27.8845 136.714 26.4816 135.807C25.0786 134.9 24.0836 133.488 23.7055 131.867C23.7055 131.867 11.8782 76.6226 11.8782 65.3116C11.8782 41.6766 30.7362 25.0083 57.2755 25.0083C83.8147 25.0083 102.673 41.6878 102.673 65.3116C102.673 76.6226 90.8455 131.85 90.8455 131.85C90.4611 133.463 89.4657 134.865 88.0669 135.766C86.6681 136.666 84.9739 136.995 83.3376 136.683C81.7013 136.371 80.2493 135.442 79.2844 134.091C78.3194 132.74 77.9161 131.07 78.1585 129.43" stroke="#3B2D55" stroke-width="3.7" stroke-linecap="round" stroke-linejoin="round"/>
<path d="M87.9326 113.589L84.7029 131.596C84.3895 133.228 83.4539 134.675 82.0919 135.636C80.7299 136.597 79.0471 136.996 77.3959 136.75C75.7447 136.505 74.2531 135.633 73.2334 134.317C72.2137 133.002 71.7449 131.346 71.9253 129.694" fill="#57D1E5"/>
<path d="M88.6168 113.707L87.9098 118.422L87.1632 123.127L86.3883 127.826L85.998 130.172C85.884 131 85.7254 131.821 85.5228 132.632C84.9834 134.427 83.7852 135.955 82.166 136.912C80.5468 137.87 78.6249 138.187 76.7819 137.8C74.9389 137.413 73.3094 136.351 72.217 134.824C71.1245 133.298 70.6488 131.418 70.8844 129.559C70.9167 129.284 71.0572 129.034 71.2752 128.862C71.4932 128.691 71.7707 128.612 72.0468 128.645C72.3228 128.677 72.5747 128.817 72.7471 129.033C72.9194 129.25 72.9982 129.526 72.9659 129.801C72.8226 131.135 73.1857 132.474 73.984 133.554C74.762 134.641 75.9236 135.394 77.2364 135.665C78.5463 135.938 79.9117 135.722 81.0714 135.057C82.2385 134.387 83.109 133.304 83.5092 132.024C83.6846 131.461 83.8203 130.578 83.973 129.818L84.4255 127.477L85.3362 122.801L86.2695 118.13L87.2424 113.465C87.2746 113.283 87.3779 113.122 87.5296 113.017C87.6813 112.911 87.8689 112.87 88.0512 112.902C88.2335 112.934 88.3955 113.037 88.5015 113.188C88.6076 113.339 88.6491 113.525 88.6168 113.707Z" fill="#3B2D55"/>
<path d="M41.9131 81.293C53.0997 81.293 62.1682 72.2708 62.1682 61.1414C62.1682 50.0119 53.0997 40.9897 41.9131 40.9897C30.7265 40.9897 21.658 50.0119 21.658 61.1414C21.658 72.2708 30.7265 81.293 41.9131 81.293Z" fill="white" stroke="#3B2D55" stroke-width="3.7" stroke-linecap="round" stroke-linejoin="round"/>
<path d="M46.0987 47.9394C42.6087 48.6371 41.913 56.2791 44.0058 58.3613C45.3803 59.7343 48.1971 60.1902 48.1971 61.1412C48.1971 62.0922 45.369 62.5537 44.0058 63.9211C41.913 66.0032 42.6087 73.6508 46.0987 74.343C50.2673 75.1759 56.5797 70.1731 56.5797 61.1412C56.5797 52.1092 50.2673 47.1121 46.0987 47.9394Z" fill="#3B2D55"/>
<path d="M32.1333 88.2429C32.829 90.325 34.9275 93.8028 37.7217 93.105C39.0736 92.7673 39.8145 91.0228 39.8145 88.2429" fill="white"/>
<path d="M32.1333 88.2429C32.829 90.325 34.9275 93.8028 37.7217 93.105C39.0736 92.7673 39.8145 91.0228 39.8145 88.2429" stroke="#3B2D55" stroke-width="3.09" stroke-linecap="round" stroke-linejoin="round"/>
<path d="M50.29 86.8527C50.9914 89.6326 51.6871 91.7147 53.7856 91.7147C55.8841 91.7147 58.6726 88.9348 57.9769 84.0728" fill="white"/>
<path d="M50.29 86.8527C50.9914 89.6326 51.6871 91.7147 53.7856 91.7147C55.8841 91.7147 58.6726 88.9348 57.9769 84.0728" stroke="#3B2D55" stroke-width="3.7" stroke-linecap="round" stroke-linejoin="round"/>
<path d="M28.0721 86.6897C41.5563 88.6214 55.2751 85.3937 66.4613 77.6577C66.5708 77.5572 66.7007 77.4811 66.8423 77.4345C66.9838 77.3879 67.1337 77.372 67.2819 77.3877C67.4301 77.4035 67.5733 77.4505 67.7017 77.5258C67.8302 77.601 67.941 77.7027 68.0268 77.824C68.1125 77.9453 68.1712 78.0834 68.199 78.2291C68.2267 78.3748 68.2229 78.5248 68.1876 78.6689C68.1524 78.813 68.0866 78.9479 67.9947 79.0647C67.9028 79.1815 67.7869 79.2774 67.6548 79.346C56.0003 87.2567 41.7635 90.4744 27.8176 88.3498C27.6229 88.2849 27.4575 88.1537 27.3506 87.9793C27.2437 87.8049 27.2021 87.5986 27.2332 87.3967C27.2643 87.1948 27.3661 87.0103 27.5207 86.8758C27.6752 86.7413 27.8725 86.6654 28.0778 86.6615L28.0721 86.6897Z" fill="#3B2D55"/>
<path d="M68.028 80.9612C67.8357 80.0173 67.3417 79.1605 66.6196 78.519C65.9205 77.9073 65.0417 77.5363 64.1138 77.461C63.8506 77.4223 63.6119 77.2859 63.4458 77.0791C63.2797 76.8723 63.1985 76.6106 63.2186 76.3466C63.2387 76.0827 63.3585 75.8361 63.554 75.6565C63.7495 75.477 64.0062 75.3778 64.2722 75.3789H64.3797H64.408C65.7323 75.6235 66.941 76.2889 67.8526 77.2753C68.7397 78.234 69.2861 79.4557 69.4081 80.753C69.4175 80.8437 69.4086 80.9353 69.3819 81.0225C69.3553 81.1097 69.3115 81.1908 69.2531 81.261C69.1946 81.3312 69.1227 81.3891 69.0416 81.4314C68.9604 81.4736 68.8716 81.4994 68.7803 81.5071C68.6071 81.5228 68.4342 81.4739 68.2952 81.3699C68.1562 81.2659 68.0609 81.1143 68.028 80.9444V80.9612Z" fill="#3B2D55"/>
<path d="M42.6313 129.677C42.8345 131.34 42.3775 133.017 41.3575 134.35C40.3375 135.683 38.835 136.567 37.1697 136.815C35.5043 137.063 33.8075 136.654 32.4402 135.676C31.0728 134.699 30.1429 133.229 29.8481 131.579L26.624 113.572" fill="#57D1E5"/>
<path d="M43.6665 129.553C43.9062 131.413 43.4335 133.294 42.3424 134.823C41.2514 136.351 39.622 137.415 37.7783 137.803C35.9317 138.195 34.0045 137.873 32.3878 136.903C30.7752 135.946 29.5793 134.425 29.0337 132.637C28.8278 131.827 28.6673 131.006 28.5529 130.178L28.1626 127.826L27.3877 123.127L26.6411 118.422L25.934 113.707C25.918 113.617 25.92 113.525 25.9398 113.436C25.9596 113.347 25.9968 113.263 26.0493 113.188C26.1554 113.037 26.3174 112.934 26.4996 112.902C26.6819 112.87 26.8695 112.911 27.0212 113.017C27.1729 113.122 27.2762 113.283 27.3085 113.465L28.2814 118.13L29.2203 122.801L30.1253 127.477L30.5778 129.812C30.7305 130.578 30.8663 131.439 31.0416 132.018C31.4509 133.289 32.3194 134.363 33.4789 135.034C34.6385 135.704 36.0068 135.923 37.3192 135.648C38.6316 135.373 39.7948 134.623 40.5838 133.544C41.3728 132.465 41.7315 131.134 41.5906 129.807C41.5706 129.539 41.6549 129.275 41.8261 129.068C41.9972 128.861 42.2421 128.727 42.5096 128.695C42.777 128.664 43.0466 128.736 43.2621 128.896C43.4776 129.057 43.6224 129.295 43.6665 129.559V129.553Z" fill="#3B2D55"/>
<path d="M51.9585 130.094C52.0858 131.784 51.5367 133.456 50.4309 134.745C49.3252 136.034 47.7522 136.837 46.0545 136.978C44.3568 137.119 42.6718 136.587 41.3665 135.498C40.0611 134.409 39.2411 132.851 39.0848 131.163L37.0486 113.155" fill="#57D1E5"/>
<path d="M53.0049 130.037C53.1174 131.9 52.525 133.737 51.3441 135.187C50.1632 136.637 48.4795 137.594 46.6246 137.871C44.7659 138.148 42.8706 137.716 41.319 136.661C39.7716 135.621 38.6671 134.047 38.2193 132.243C38.0562 131.422 37.9466 130.591 37.8913 129.756L37.6537 127.398L37.1842 122.671L36.7657 117.95L36.3697 113.217C36.3487 113.034 36.4016 112.851 36.5167 112.707C36.6318 112.563 36.7997 112.47 36.9835 112.449C37.1672 112.428 37.3518 112.481 37.4966 112.595C37.6414 112.71 37.7345 112.877 37.7555 113.06L38.423 117.764L39.0282 122.463L39.6334 127.179L39.9332 129.531C40.0407 130.308 40.1085 131.152 40.2613 131.743C40.5992 133.028 41.4033 134.145 42.5187 134.876C43.6341 135.608 44.982 135.903 46.3032 135.706C47.6244 135.508 48.8254 134.831 49.6752 133.806C50.525 132.78 50.9635 131.478 50.9064 130.15C50.8993 130.013 50.9194 129.877 50.9655 129.748C51.0115 129.619 51.0827 129.5 51.1749 129.398C51.2671 129.297 51.3785 129.214 51.5027 129.155C51.627 129.096 51.7616 129.062 51.8991 129.055C52.0365 129.048 52.1739 129.068 52.3036 129.114C52.4333 129.16 52.5526 129.231 52.6547 129.323C52.7569 129.414 52.8399 129.525 52.899 129.649C52.9581 129.772 52.9922 129.906 52.9992 130.043L53.0049 130.037Z" fill="#3B2D55"/>
<path d="M77.4909 113.138L75.4546 131.146C75.2634 132.806 74.4298 134.328 73.1305 135.388C71.8312 136.447 70.1683 136.962 68.4939 136.823C66.8196 136.684 65.2654 135.902 64.1607 134.643C63.0559 133.384 62.4873 131.746 62.5753 130.077" fill="#57D1E5"/>
<path d="M78.2038 113.217L77.8022 117.95L77.3666 122.671L76.8972 127.393L76.6652 129.756C76.6123 130.591 76.5103 131.421 76.3598 132.244C76.0321 133.599 75.3296 134.836 74.3319 135.814C73.3342 136.793 72.0812 137.474 70.7145 137.781C69.3478 138.088 67.9221 138.008 66.5986 137.55C65.2752 137.093 64.1069 136.276 63.2259 135.192C62.0537 133.738 61.4634 131.904 61.5686 130.043C61.5779 129.905 61.6147 129.77 61.6767 129.646C61.7387 129.523 61.8249 129.412 61.9301 129.322C62.0353 129.231 62.1575 129.162 62.2896 129.119C62.4218 129.076 62.5612 129.059 62.6999 129.07C62.974 129.086 63.2307 129.209 63.414 129.412C63.5973 129.616 63.6923 129.883 63.6784 130.156C63.6264 131.491 64.0738 132.798 64.9341 133.825C65.7778 134.852 66.9754 135.53 68.2939 135.727C69.6145 135.919 70.9601 135.625 72.078 134.9C73.2054 134.169 74.0136 133.041 74.3405 131.743C74.4876 131.18 74.5611 130.308 74.6629 129.531L74.9627 127.179L75.5623 122.474L76.1901 117.77L76.8576 113.065C76.888 112.89 76.9848 112.733 77.128 112.626C77.2713 112.519 77.4502 112.471 77.628 112.491C77.8059 112.511 77.9693 112.598 78.0848 112.734C78.2002 112.87 78.259 113.045 78.249 113.223L78.2038 113.217Z" fill="#3B2D55"/>
<path d="M64.261 112.548L63.735 130.611C63.735 132.316 63.0545 133.95 61.8431 135.156C60.6317 136.361 58.9887 137.038 57.2755 137.038C55.5624 137.038 53.9194 136.361 52.708 135.156C51.4966 133.95 50.8161 132.316 50.8161 130.611L50.29 112.548" fill="#57D1E5"/>
<path d="M64.9569 112.581C64.9569 117.248 64.921 121.913 64.8494 126.577L64.7928 130.077C64.7987 130.722 64.7419 131.367 64.6231 132.001C64.2703 133.683 63.3471 135.193 62.0084 136.278C60.6696 137.363 58.9967 137.957 57.27 137.961C56.5831 137.963 55.8994 137.869 55.2394 137.679C54.5769 137.497 53.9444 137.22 53.3615 136.858C52.1985 136.147 51.2506 135.135 50.6182 133.932C50.3008 133.329 50.0686 132.685 49.9281 132.018C49.8064 131.384 49.7496 130.739 49.7584 130.094L49.7019 126.594C49.6152 121.927 49.5793 117.261 49.5944 112.598C49.6044 112.424 49.6799 112.259 49.8058 112.138C49.9318 112.016 50.0992 111.945 50.2748 111.94C50.4504 111.936 50.6215 111.996 50.7542 112.111C50.8869 112.225 50.9716 112.385 50.9915 112.559C51.2687 117.218 51.5119 121.878 51.6929 126.537L51.84 130.032C51.8448 130.551 51.8959 131.069 51.9927 131.579C52.2597 132.776 52.9297 133.845 53.8916 134.611C54.8535 135.377 56.0495 135.792 57.2813 135.789C58.262 135.794 59.2255 135.532 60.0672 135.031C60.9088 134.53 61.5963 133.809 62.0552 132.947C62.2898 132.52 62.4612 132.061 62.5643 131.585C62.661 131.073 62.7121 130.553 62.717 130.032L62.864 126.537C63.045 121.878 63.2883 117.218 63.5598 112.559C63.5797 112.385 63.6644 112.225 63.7971 112.111C63.9298 111.996 64.1009 111.936 64.2765 111.94C64.4521 111.945 64.6194 112.016 64.7454 112.138C64.8714 112.259 64.9469 112.424 64.9569 112.598V112.581Z" fill="#3B2D55"/>
</svg>
