<svg width="154" height="127" viewBox="0 0 154 127" fill="none" xmlns="http://www.w3.org/2000/svg">
<path d="M138.094 62.2389L102.518 45.1687C100.894 44.3896 98.9461 45.0745 98.167 46.6985L74.3672 96.3112C73.5881 97.9352 74.2729 99.8834 75.8968 100.663L111.473 117.733C113.097 118.512 115.045 117.827 115.824 116.203L139.624 66.5902C140.403 64.9661 139.718 63.018 138.094 62.2389Z" fill="#FAB533" stroke="#B03831" stroke-width="2.48412" stroke-linecap="round" stroke-linejoin="round"/>
<path d="M113.217 114.516L85.2965 101.12L81.6182 88.4482L101.165 47.7042L137.013 64.9035L113.217 114.516Z" fill="white"/>
<path d="M85.33 101.134L81.6182 88.4484L89.5838 92.271L85.33 101.134Z" fill="#E5E5E4"/>
<path d="M105.915 61.6695L102.361 59.9641L100.656 63.5187L104.21 65.224L105.915 61.6695Z" stroke="#3B2D55" stroke-width="1.89598" stroke-linecap="round" stroke-linejoin="round"/>
<path d="M107.803 64.7621L107.801 64.7665C107.568 65.2513 107.773 65.8328 108.257 66.0654L125.419 74.2997C125.903 74.5323 126.485 74.3278 126.718 73.843L126.72 73.8387C126.952 73.3539 126.748 72.7723 126.263 72.5397L109.102 64.3054C108.617 64.0728 108.035 64.2773 107.803 64.7621Z" fill="#3B2D55"/>
<path d="M102.284 69.2393L98.7302 67.5339L97.025 71.0885L100.579 72.7939L102.284 69.2393Z" stroke="#3B2D55" stroke-width="1.89598" stroke-linecap="round" stroke-linejoin="round"/>
<path d="M104.174 72.331L104.172 72.3353C103.939 72.8201 104.144 73.4017 104.628 73.6343L121.79 81.8686C122.275 82.1011 122.856 81.8967 123.089 81.4119L123.091 81.4075C123.323 80.9227 123.119 80.3412 122.634 80.1086L105.473 71.8743C104.988 71.6417 104.406 71.8462 104.174 72.331Z" fill="#3B2D55"/>
<path d="M98.6533 76.809L95.0991 75.1036L93.3939 78.6582L96.9481 80.3636L98.6533 76.809Z" stroke="#3B2D55" stroke-width="1.89598" stroke-linecap="round" stroke-linejoin="round"/>
<path d="M100.146 79.8897L100.144 79.894C99.913 80.3779 100.118 80.9577 100.602 81.1889L117.733 89.3745C118.216 89.6057 118.796 89.4008 119.027 88.9169L119.029 88.9126C119.261 88.4286 119.056 87.8489 118.572 87.6176L101.441 79.4321C100.957 79.2008 100.377 79.4057 100.146 79.8897Z" fill="#3B2D55"/>
<path d="M95.0271 84.376L91.4729 82.6707L89.7677 86.2252L93.3219 87.9306L95.0271 84.376Z" stroke="#3B2D55" stroke-width="1.89598" stroke-linecap="round" stroke-linejoin="round"/>
<path d="M96.9161 87.4684L96.914 87.4728C96.6815 87.9576 96.8859 88.5391 97.3707 88.7717L114.532 97.006C115.017 97.2386 115.598 97.0341 115.831 96.5493L115.833 96.545C116.065 96.0602 115.861 95.4786 115.376 95.246L98.2149 87.0117C97.7302 86.7792 97.1487 86.9836 96.9161 87.4684Z" fill="#3B2D55"/>
<path d="M128.938 63.6226C128.83 63.6221 128.723 63.5976 128.626 63.5506L107.846 53.5841C107.675 53.5003 107.545 53.3527 107.482 53.1732C107.419 52.9938 107.429 52.7968 107.51 52.6248L109.817 47.8286C110.052 47.34 110.42 46.9276 110.879 46.6391C111.338 46.3506 111.87 46.1977 112.412 46.1979C112.842 46.1982 113.266 46.2949 113.654 46.4809L117.625 48.3994C117.671 48.4233 117.721 48.4364 117.773 48.4377C117.96 48.4377 118.128 48.1596 118.195 48.0397L118.272 47.891C118.823 46.8355 119.761 46.0346 120.889 45.6567C122.018 45.2787 123.249 45.3532 124.324 45.8643C125.399 46.3755 126.234 47.2835 126.654 48.3976C127.073 49.5117 127.044 50.745 126.573 51.8383C126.564 51.8694 126.553 51.8998 126.54 51.9294C126.431 52.1092 126.387 52.3207 126.415 52.5289C126.428 52.566 126.449 52.5998 126.476 52.628C126.504 52.6562 126.537 52.678 126.573 52.692L130.544 54.6105C131.231 54.941 131.759 55.5307 132.012 56.2501C132.265 56.9695 132.221 57.7598 131.892 58.4475L129.585 63.2437C129.504 63.4159 129.357 63.5487 129.177 63.613C129.098 63.6281 129.018 63.6313 128.938 63.6226ZM122.372 49.3011C122.253 49.3022 122.137 49.3365 122.036 49.4C121.935 49.4635 121.854 49.5538 121.802 49.6608C121.731 49.8112 121.721 49.9827 121.773 50.1404C121.829 50.3001 121.947 50.4311 122.099 50.5049C122.185 50.5447 122.278 50.566 122.372 50.5673C122.515 50.5647 122.653 50.5144 122.764 50.4243C122.874 50.3341 122.952 50.2095 122.983 50.0702C123.015 49.9309 122.999 49.7851 122.937 49.6561C122.876 49.5271 122.773 49.4223 122.646 49.3586C122.56 49.3205 122.467 49.3009 122.372 49.3011Z" fill="#E5E5E4"/>
<path d="M122.339 46.1405C122.92 46.1395 123.494 46.2707 124.017 46.5242C124.929 46.962 125.633 47.7384 125.981 48.688C126.328 49.6376 126.291 50.6853 125.878 51.6082C125.427 52.5674 125.773 53.1046 126.247 53.3348L130.218 55.2533C130.734 55.501 131.13 55.9432 131.32 56.4827C131.509 57.0223 131.477 57.6152 131.23 58.131L128.923 62.9273L108.144 52.9607L110.45 48.1645C110.698 47.6489 111.14 47.2527 111.68 47.063C112.219 46.8732 112.812 46.9054 113.328 47.1525L117.299 49.071C117.448 49.1445 117.612 49.1823 117.778 49.1813C118.016 49.159 118.243 49.0677 118.431 48.9187C118.618 48.7696 118.758 48.5692 118.833 48.3419C118.833 48.3084 118.867 48.2796 118.886 48.2412C119.213 47.6074 119.708 47.0757 120.317 46.7043C120.926 46.333 121.626 46.1362 122.339 46.1357V46.1405ZM122.372 51.2964C122.706 51.2973 123.029 51.1751 123.278 50.9532C123.527 50.7313 123.686 50.4253 123.724 50.0936C123.762 49.762 123.677 49.4279 123.484 49.1554C123.291 48.8828 123.005 48.6908 122.68 48.6161C122.354 48.5415 122.013 48.5893 121.72 48.7506C121.428 48.9118 121.206 49.1751 121.095 49.4901C120.985 49.8052 120.994 50.1499 121.122 50.4583C121.25 50.7668 121.487 51.0173 121.787 51.1621C121.97 51.2503 122.17 51.2962 122.372 51.2964ZM122.339 44.7016C121.377 44.6968 120.432 44.9552 119.606 45.4489C118.78 45.9426 118.105 46.6528 117.653 47.5026C117.639 47.5239 117.626 47.5464 117.615 47.5697L113.966 45.8191C113.481 45.585 112.95 45.4637 112.412 45.4642C111.734 45.4663 111.071 45.659 110.497 46.0203C109.924 46.3816 109.464 46.8969 109.17 47.5074L106.863 52.3036C106.698 52.647 106.675 53.042 106.801 53.402C106.927 53.7618 107.191 54.0568 107.534 54.2221L128.314 64.1935C128.509 64.2847 128.722 64.3322 128.938 64.3325C129.101 64.3349 129.264 64.3073 129.417 64.251C129.596 64.1902 129.761 64.0938 129.902 63.9677C130.043 63.8416 130.157 63.6884 130.237 63.5172L132.544 58.721C132.749 58.2953 132.867 57.8334 132.893 57.3618C132.919 56.8903 132.851 56.4183 132.694 55.9728C132.538 55.5273 132.295 55.1171 131.979 54.7657C131.664 54.4143 131.282 54.1285 130.856 53.9247L127.211 52.1741C127.232 52.1338 127.249 52.0922 127.264 52.0494C127.596 51.2407 127.725 50.3624 127.637 49.4924C127.549 48.6224 127.249 47.7873 126.762 47.061C126.275 46.3347 125.617 45.7394 124.846 45.3279C124.074 44.9164 123.213 44.7013 122.339 44.7016Z" fill="#3B2D55"/>
<path d="M108.595 52.0196L108.135 52.9796L128.915 62.9504L129.376 61.9904L108.595 52.0196Z" fill="#3B2D55"/>
<path d="M102.062 61.3445L102.7 63.1575L108.575 61.0903" stroke="#39B54A" stroke-width="2.32161" stroke-linecap="round" stroke-linejoin="round"/>
<path d="M98.4561 68.8555L99.0939 70.6685L104.969 68.6061" stroke="#39B54A" stroke-width="2.32161" stroke-linecap="round" stroke-linejoin="round"/>
<path d="M66.9626 111.173C66.7459 112.575 67.0809 114.006 67.8974 115.166C68.7138 116.326 69.9481 117.124 71.3408 117.393C72.7335 117.662 74.1762 117.381 75.3657 116.608C76.5552 115.835 77.3989 114.631 77.7194 113.249C77.7194 113.249 87.7617 66.1649 87.7617 56.5245C87.7617 36.3804 71.7727 22.174 49.2712 22.174C26.7697 22.174 10.7712 36.39 10.7712 56.5245C10.7712 66.1649 20.7991 113.235 20.7991 113.235C21.125 114.61 21.969 115.805 23.155 116.573C24.341 117.34 25.7774 117.62 27.1647 117.354C28.5521 117.088 29.7832 116.297 30.6013 115.145C31.4194 113.993 31.7614 112.57 31.5559 111.173" fill="#57D1E5"/>
<path d="M66.9626 111.173C66.7459 112.575 67.0809 114.006 67.8974 115.166C68.7138 116.326 69.9481 117.124 71.3408 117.393C72.7335 117.662 74.1762 117.381 75.3657 116.608C76.5552 115.835 77.3989 114.631 77.7194 113.249C77.7194 113.249 87.7617 66.1649 87.7617 56.5245C87.7617 36.3804 71.7727 22.174 49.2712 22.174C26.7697 22.174 10.7712 36.39 10.7712 56.5245C10.7712 66.1649 20.7991 113.235 20.7991 113.235C21.125 114.61 21.969 115.805 23.155 116.573C24.341 117.34 25.7774 117.62 27.1647 117.354C28.5521 117.088 29.7832 116.297 30.6013 115.145C31.4194 113.993 31.7614 112.57 31.5559 111.173" stroke="#3B2D55" stroke-width="2.86332" stroke-linecap="round" stroke-linejoin="round"/>
<path d="M23.269 97.6713L26.0074 113.019C26.2731 114.41 27.0663 115.644 28.2211 116.462C29.3759 117.281 30.8026 117.622 32.2026 117.412C33.6026 117.203 34.8673 116.46 35.7319 115.339C36.5964 114.218 36.9939 112.805 36.8409 111.398" fill="#57D1E5"/>
<path d="M23.8539 97.5656L24.6787 101.542L25.47 105.523L26.2421 109.508L26.621 111.503C26.7553 112.151 26.8704 112.885 27.019 113.384C27.3584 114.475 28.0964 115.398 29.086 115.969C30.0691 116.536 31.2268 116.72 32.3375 116.487C33.4505 116.256 34.4354 115.614 35.095 114.688C35.7719 113.767 36.0798 112.626 35.9582 111.489C35.9309 111.255 35.9976 111.02 36.1438 110.835C36.2899 110.65 36.5035 110.531 36.7375 110.503C36.9716 110.476 37.2069 110.543 37.3917 110.689C37.5765 110.835 37.6957 111.049 37.7231 111.283C37.9178 112.864 37.5178 114.46 36.6009 115.762C35.9098 116.734 34.96 117.492 33.8595 117.95C32.759 118.408 31.552 118.549 30.3757 118.355C29.1995 118.161 28.1013 117.641 27.2061 116.853C26.3109 116.066 25.6545 115.043 25.3118 113.902C25.14 113.211 25.0056 112.511 24.9089 111.806L24.578 109.806L23.921 105.801L23.288 101.791L22.6885 97.7718C22.6612 97.6173 22.6963 97.4582 22.7863 97.3296C22.8762 97.2009 23.0135 97.1133 23.1681 97.086C23.3226 97.0586 23.4817 97.0938 23.6103 97.1837C23.7389 97.2737 23.8265 97.411 23.8539 97.5656Z" fill="#3B2D55"/>
<path d="M62.2867 70.1457C71.7714 70.1457 79.4602 62.4561 79.4602 52.9704C79.4602 43.4848 71.7714 35.7952 62.2867 35.7952C52.8021 35.7952 45.1133 43.4848 45.1133 52.9704C45.1133 62.4561 52.8021 70.1457 62.2867 70.1457Z" fill="white" stroke="#3B2D55" stroke-width="2.86332" stroke-linecap="round" stroke-linejoin="round"/>
<path d="M58.7332 41.7181C61.697 42.3128 62.2868 48.8261 60.5124 50.6007C59.3471 51.771 56.9588 52.1595 56.9588 52.9701C56.9588 53.7806 59.3567 54.1739 60.5124 55.3394C62.2868 57.114 61.697 63.6321 58.7332 64.222C55.2036 64.9318 49.8516 60.668 49.8516 52.9701C49.8516 45.2721 55.2036 41.0131 58.7332 41.7181Z" fill="#3B2D55"/>
<path d="M70.5785 76.0688C69.9886 77.8435 68.2094 80.8075 65.8403 80.2128C64.6942 79.925 64.0659 78.4382 64.0659 76.0688" fill="white"/>
<path d="M70.5785 76.0688C69.9886 77.8435 68.2094 80.8075 65.8403 80.2128C64.6942 79.925 64.0659 78.4382 64.0659 76.0688" stroke="#3B2D55" stroke-width="2.39126" stroke-linecap="round" stroke-linejoin="round"/>
<path d="M55.1843 74.8842C54.5896 77.2536 53.9998 79.0282 52.2206 79.0282C50.4413 79.0282 48.0771 76.6588 48.6669 72.5149" fill="white"/>
<path d="M55.1843 74.8842C54.5896 77.2536 53.9998 79.0282 52.2206 79.0282C50.4413 79.0282 48.0771 76.6588 48.6669 72.5149" stroke="#3B2D55" stroke-width="2.86332" stroke-linecap="round" stroke-linejoin="round"/>
<path d="M74.2426 76.2084C62.4185 78.0192 50.3477 75.2767 40.4664 68.5344C40.3688 68.4686 40.2851 68.3842 40.2201 68.286C40.1551 68.1879 40.11 68.0778 40.0876 67.9623C40.0651 67.8467 40.0656 67.7278 40.089 67.6124C40.1125 67.4971 40.1584 67.3874 40.2242 67.2898C40.29 67.1922 40.3744 67.1085 40.4726 67.0435C40.5707 66.9784 40.6807 66.9334 40.7963 66.9109C40.9118 66.8884 41.0307 66.8889 41.1461 66.9124C41.2615 66.9358 41.3711 66.9818 41.4687 67.0476C50.953 73.641 62.5846 76.3919 74.0172 74.7455C74.1133 74.7306 74.2115 74.7349 74.3059 74.7583C74.4004 74.7817 74.4892 74.8236 74.5673 74.8816C74.6454 74.9396 74.7112 75.0126 74.7608 75.0963C74.8105 75.18 74.843 75.2727 74.8565 75.369C74.8842 75.5614 74.8354 75.757 74.7207 75.9139C74.6059 76.0708 74.4343 76.1765 74.2426 76.2084Z" fill="#3B2D55"/>
<path d="M38.9699 69.6999C39.0748 68.5955 39.536 67.5551 40.284 66.7358C41.0608 65.8968 42.0891 65.3329 43.2142 65.1291C43.4469 65.0865 43.6871 65.1381 43.8818 65.2726C44.0765 65.407 44.2098 65.6133 44.2524 65.8461C44.295 66.0789 44.2434 66.3191 44.109 66.5138C43.9745 66.7086 43.7682 66.8419 43.5355 66.8845H43.4443C42.6575 66.948 41.9122 67.2643 41.3198 67.7862C40.706 68.3317 40.2867 69.0625 40.1257 69.8678C40.0948 70.0157 40.0087 70.1463 39.885 70.233C39.7612 70.3197 39.6091 70.3561 39.4595 70.3347C39.31 70.3134 39.1741 70.2359 39.0796 70.1179C38.9851 70 38.9391 69.8506 38.9508 69.6999H38.9699Z" fill="#3B2D55"/>
<path d="M61.6778 111.384C61.5055 112.801 61.893 114.23 62.7578 115.366C63.6226 116.502 64.8965 117.256 66.3084 117.467C67.7204 117.678 69.1591 117.33 70.3184 116.497C71.4777 115.663 72.2662 114.41 72.5161 113.005L75.2496 97.6567" fill="#57D1E5"/>
<path d="M62.5602 111.494C62.4423 112.628 62.748 113.766 63.4187 114.688C64.0836 115.61 65.0673 116.251 66.1788 116.488C67.2902 116.724 68.4498 116.539 69.4325 115.969C70.4199 115.392 71.1581 114.469 71.5042 113.379C71.6529 112.899 71.768 112.151 71.8975 111.499L72.2811 109.508L73.0485 105.522L73.8445 101.542L74.6694 97.5655C74.6826 97.4874 74.7114 97.4128 74.754 97.346C74.7967 97.2793 74.8524 97.2218 74.9177 97.1771C74.983 97.1323 75.0567 97.1012 75.1344 97.0855C75.212 97.0698 75.292 97.07 75.3696 97.0859C75.5193 97.1151 75.6523 97.2003 75.7414 97.3242C75.8305 97.4481 75.8691 97.6013 75.8491 97.7526L75.2497 101.772L74.6166 105.781L73.9596 109.786L73.6287 111.791C73.5294 112.496 73.3934 113.196 73.2211 113.887C72.7585 115.411 71.7445 116.707 70.3772 117.523C69.0066 118.35 67.3725 118.624 65.8069 118.29C64.2439 117.959 62.8626 117.052 61.937 115.749C61.0113 114.447 60.609 112.844 60.8098 111.259C60.8378 111.025 60.9576 110.811 61.1428 110.666C61.3281 110.52 61.5637 110.454 61.7977 110.482C62.0317 110.51 62.2451 110.63 62.3908 110.815C62.5365 111 62.6026 111.236 62.5746 111.47L62.5602 111.494Z" fill="#3B2D55"/>
<path d="M53.7695 111.739C53.6616 113.179 54.1271 114.604 55.0646 115.703C56.0022 116.802 57.3358 117.486 58.7753 117.606C60.2147 117.726 61.6433 117.273 62.75 116.344C63.8568 115.416 64.5521 114.088 64.6845 112.65L66.411 97.3019" fill="#57D1E5"/>
<path d="M54.6712 111.786C54.6186 112.921 54.9887 114.036 55.71 114.913C56.4313 115.791 57.4525 116.37 58.5761 116.539C59.6996 116.707 60.8456 116.452 61.7924 115.824C62.7392 115.196 63.4195 114.24 63.7016 113.139C63.8311 112.659 63.8886 111.916 63.9797 111.254L64.2339 109.249L64.7422 105.235L65.2746 101.23L65.8405 97.2203C65.8686 97.07 65.9536 96.9363 66.0777 96.8469C66.2018 96.7576 66.3556 96.7196 66.5071 96.7407C66.6566 96.7632 66.7922 96.8415 66.8864 96.9598C66.9807 97.0781 67.0268 97.2277 67.0154 97.3786L66.6797 101.412L66.3056 105.436L65.9124 109.465L65.711 111.475C65.664 112.187 65.5711 112.895 65.4328 113.595C65.0554 115.135 64.1187 116.481 62.8048 117.369C61.4893 118.269 59.8822 118.637 58.3064 118.4C56.7319 118.165 55.303 117.347 54.3015 116.11C53.3001 114.872 52.7989 113.304 52.8968 111.714C52.9089 111.479 53.014 111.258 53.1889 111.1C53.2755 111.022 53.3767 110.962 53.4866 110.923C53.5965 110.884 53.7131 110.867 53.8296 110.873C53.9461 110.879 54.0603 110.908 54.1656 110.958C54.271 111.008 54.3654 111.078 54.4436 111.165C54.5218 111.251 54.5821 111.353 54.6211 111.463C54.6602 111.573 54.6772 111.689 54.6712 111.806V111.786Z" fill="#3B2D55"/>
<path d="M32.1313 97.2874L33.8578 112.635C34.02 114.051 34.7267 115.347 35.8283 116.251C36.93 117.154 38.3399 117.593 39.7595 117.474C41.1791 117.356 42.4968 116.689 43.4335 115.616C44.3702 114.543 44.8523 113.147 44.7776 111.724" fill="#57D1E5"/>
<path d="M32.6973 97.2204L33.2632 101.23L33.7955 105.24L34.3038 109.254L34.5532 111.259C34.6443 111.921 34.7067 112.64 34.8314 113.144C35.1086 114.251 35.7938 115.212 36.7496 115.835C37.6974 116.453 38.8384 116.704 39.958 116.54C41.0759 116.372 42.0913 115.794 42.8066 114.919C43.5361 114.044 43.9154 112.93 43.8713 111.791C43.8586 111.556 43.9398 111.325 44.0972 111.15C44.2546 110.975 44.4752 110.869 44.7105 110.856C44.9458 110.843 45.1766 110.925 45.3519 111.082C45.5273 111.239 45.633 111.46 45.6457 111.695C45.7349 113.282 45.2344 114.845 44.2406 116.084C43.4945 117.012 42.5031 117.712 41.379 118.104C40.255 118.497 39.0434 118.566 37.882 118.304C36.7205 118.043 35.6558 117.46 34.8088 116.624C33.9618 115.787 33.3665 114.729 33.0905 113.571C32.9567 112.872 32.8638 112.166 32.8124 111.456L32.6109 109.441L32.2273 105.417L31.858 101.393L31.5175 97.3595C31.5091 97.208 31.5589 97.0589 31.6568 96.9429C31.7547 96.8269 31.8932 96.7527 32.044 96.7355C32.1948 96.7183 32.3465 96.7595 32.468 96.8506C32.5894 96.9416 32.6714 97.0757 32.6973 97.2252V97.2204Z" fill="#3B2D55"/>
<path d="M43.3389 96.7839L43.7849 112.18C43.7849 113.632 44.3619 115.026 45.389 116.053C46.416 117.08 47.8091 117.657 49.2616 117.657C50.7141 117.657 52.1071 117.08 53.1342 116.053C54.1613 115.026 54.7383 113.632 54.7383 112.18L55.1843 96.7839" fill="#57D1E5"/>
<path d="M43.9289 96.784C44.1638 100.755 44.3701 104.727 44.5235 108.698L44.6482 111.652C44.6523 112.097 44.6957 112.54 44.7777 112.976C44.865 113.382 45.0104 113.773 45.2093 114.137C45.6029 114.868 46.1873 115.48 46.9004 115.906C47.6135 116.332 48.4286 116.557 49.2593 116.557C50.09 116.557 50.9051 116.332 51.6182 115.906C52.3313 115.48 52.9157 114.868 53.3093 114.137C53.5051 113.77 53.6503 113.378 53.7409 112.971C53.8229 112.536 53.8663 112.095 53.8704 111.652L53.9951 108.674C54.1485 104.703 54.3547 100.731 54.5897 96.7601C54.6066 96.6121 54.6784 96.4758 54.7909 96.3782C54.9035 96.2806 55.0485 96.2288 55.1974 96.233C55.3463 96.2372 55.4882 96.2971 55.595 96.401C55.7018 96.5048 55.7658 96.6449 55.7743 96.7936C55.7743 100.771 55.7439 104.747 55.6831 108.722L55.6352 111.705C55.6427 112.255 55.5945 112.805 55.4913 113.345C55.3722 113.913 55.1753 114.462 54.9062 114.976C54.368 116.007 53.561 116.874 52.5707 117.485C52.0765 117.793 51.5402 118.029 50.9786 118.185C50.4189 118.346 49.8392 118.427 49.2569 118.425C47.7929 118.421 46.3745 117.915 45.2394 116.99C44.1044 116.066 43.3216 114.779 43.0225 113.345C42.9218 112.805 42.8736 112.255 42.8786 111.705L42.8306 108.722C42.7603 104.744 42.7299 100.768 42.7395 96.7936C42.7382 96.6359 42.7997 96.4841 42.9103 96.3717C43.0209 96.2593 43.1717 96.1954 43.3294 96.1941C43.4871 96.1928 43.6389 96.2543 43.7513 96.3649C43.8637 96.4755 43.9276 96.6263 43.9289 96.784Z" fill="#3B2D55"/>
<path d="M10.9679 42.6587C9.94949 36.3964 11.0609 29.9734 14.1243 24.4176C17.1876 18.8617 22.0259 14.4941 27.8649 12.0136C33.7038 9.53312 40.206 9.0831 46.331 10.7356C52.4559 12.3881 57.8496 16.0475 61.649 21.1284C61.649 21.1284 71.2788 17.4353 73.3074 18.2747C74.1131 18.6056 75.3312 20.831 75.3312 20.831L9.3661 48.5628C9.3661 48.5628 8.24391 46.1647 8.51247 45.0999C8.78103 44.0352 10.9679 42.6587 10.9679 42.6587Z" fill="#FAB533" stroke="#B03831" stroke-width="2.19005" stroke-linecap="round" stroke-linejoin="round"/>
<path d="M58.6036 22.4041L29.1292 34.7975" stroke="#B03831" stroke-width="2.19005" stroke-linecap="round" stroke-linejoin="round"/>
<path d="M55.6593 22.212C49.1419 12.0392 38.7832 6.81615 30.5201 10.2886L20.9287 14.3222C27.9448 11.3726 37.2341 17.0369 43.4686 27.3344" fill="#FAB533"/>
<path d="M55.6593 22.212C49.1419 12.0392 38.7832 6.81615 30.5201 10.2886L20.9287 14.3222C27.9448 11.3726 37.2341 17.0369 43.4686 27.3344" stroke="#B03831" stroke-width="2.19005" stroke-linecap="round" stroke-linejoin="round"/>
<path d="M13.5288 25.6418C14.3872 20.1885 16.9194 16.0062 20.9286 14.3228C27.9447 11.3731 37.234 17.0374 43.4685 27.3349" fill="#FAB533"/>
<path d="M13.5288 25.6418C14.3872 20.1885 16.9194 16.0062 20.9286 14.3228C27.9447 11.3731 37.234 17.0374 43.4685 27.3349" stroke="#B03831" stroke-width="2.19005" stroke-linecap="round" stroke-linejoin="round"/>
<path d="M16.6843 23.3347C17.7825 21.2387 19.3651 19.4065 21.4273 18.5049C22.4618 18.0683 23.5704 17.8338 24.6932 17.8142C25.8335 17.8235 26.9657 18.0079 28.0502 18.361C29.157 18.733 30.2238 19.215 31.2345 19.7998C32.2571 20.3948 33.2363 21.0616 34.1647 21.7951C36.0373 23.2835 37.765 24.9456 39.3249 26.7592C39.3789 26.8285 39.4583 26.8735 39.5456 26.8843C39.6328 26.8951 39.7207 26.8708 39.7901 26.8167C39.8594 26.7627 39.9044 26.6833 39.9152 26.596C39.926 26.5088 39.9017 26.4208 39.8476 26.3515C38.4108 24.3524 36.7396 22.5329 34.8697 20.9317C33.9295 20.1195 32.9273 19.3818 31.8723 18.7255L31.0523 18.2459L30.6398 18.0204L30.213 17.8382C29.9253 17.7087 29.6423 17.5696 29.3546 17.4497L28.4578 17.1283C27.2393 16.7196 25.9639 16.5059 24.6788 16.4952C23.3721 16.5206 22.0851 16.8179 20.8997 17.3682C19.7351 17.9373 18.7101 18.7561 17.8976 19.7663C17.5001 20.2591 17.1485 20.7873 16.8474 21.3442C16.5449 21.8929 16.2883 22.4656 16.08 23.0565C16.0536 23.135 16.0576 23.2205 16.0911 23.2962C16.1247 23.3719 16.1854 23.4323 16.2613 23.4654C16.3372 23.4985 16.4227 23.502 16.501 23.4751C16.5793 23.4483 16.6447 23.393 16.6843 23.3203V23.3347Z" fill="#B03831"/>
</svg>
