<svg width="165" height="149" viewBox="0 0 165 149" fill="none" xmlns="http://www.w3.org/2000/svg">
<path d="M36.4284 130.755C36.7003 132.435 36.3069 134.155 35.3315 135.551C34.3562 136.946 32.8756 137.907 31.2036 138.23C29.5315 138.553 27.7993 138.212 26.3742 137.281C24.949 136.349 23.9429 134.899 23.5689 133.238C23.5689 133.238 11.5774 76.9948 11.5774 65.4739C11.5774 41.4174 30.6935 24.4309 57.5979 24.4309C84.5023 24.4309 103.618 41.44 103.618 65.4739C103.618 76.9948 91.6269 133.238 91.6269 133.238C91.2841 134.931 90.2865 136.419 88.8513 137.38C87.4161 138.341 85.6593 138.696 83.9632 138.369C82.2671 138.041 80.7691 137.058 79.795 135.632C78.8208 134.206 78.4495 132.453 78.7618 130.755" fill="#57D1E5"/>
<path d="M36.4284 130.755C36.7003 132.435 36.3069 134.155 35.3315 135.551C34.3562 136.946 32.8756 137.907 31.2036 138.23C29.5315 138.553 27.7993 138.212 26.3742 137.281C24.949 136.349 23.9429 134.899 23.5689 133.238C23.5689 133.238 11.5774 76.9948 11.5774 65.4739C11.5774 41.4174 30.6935 24.4309 57.5979 24.4309C84.5023 24.4309 103.618 41.44 103.618 65.4739C103.618 76.9948 91.6269 133.238 91.6269 133.238C91.2841 134.931 90.2865 136.419 88.8513 137.38C87.4161 138.341 85.6593 138.696 83.9632 138.369C82.2671 138.041 80.7691 137.058 79.795 135.632C78.8208 134.206 78.4495 132.453 78.7618 130.755" stroke="#3B2D55" stroke-width="3.74" stroke-linecap="round" stroke-linejoin="round"/>
<path d="M88.6718 114.642L85.3988 132.96C85.1022 134.641 84.1611 136.139 82.7758 137.136C81.3906 138.134 79.6706 138.551 77.9821 138.3C76.2935 138.049 74.7697 137.149 73.7352 135.791C72.7006 134.434 72.2369 132.727 72.4429 131.033" fill="#57D1E5"/>
<path d="M89.3692 114.766L88.6488 119.563L87.9227 124.354L87.1343 129.145L86.7429 131.537C86.5897 132.348 86.5273 133.08 86.2607 134.038C85.8518 135.403 85.0673 136.627 83.9967 137.568C82.926 138.51 81.6122 139.132 80.205 139.364C78.7979 139.595 77.3539 139.427 76.0376 138.879C74.7214 138.33 73.5858 137.423 72.7603 136.26C71.6645 134.704 71.1854 132.797 71.4159 130.908C71.4323 130.77 71.4759 130.636 71.544 130.514C71.6122 130.392 71.7037 130.285 71.8132 130.199C71.9228 130.113 72.0483 130.049 72.1826 130.011C72.3168 129.973 72.4573 129.962 72.5958 129.978C72.7344 129.995 72.8683 130.038 72.9901 130.106C73.1118 130.174 73.2189 130.266 73.3053 130.375C73.3917 130.485 73.4557 130.61 73.4935 130.744C73.5314 130.879 73.5425 131.019 73.5261 131.158C73.3838 132.515 73.7518 133.877 74.5585 134.979C75.3503 136.081 76.5258 136.848 77.8542 137.128C79.1838 137.406 80.5695 137.184 81.7455 136.504C82.9293 135.824 83.8126 134.723 84.2186 133.42C84.3945 132.853 84.5363 131.946 84.6895 131.152L85.1489 128.771L86.0679 124.008L87.0152 119.251L88.0022 114.5C88.0397 114.319 88.1463 114.16 88.2992 114.057C88.4522 113.954 88.6395 113.914 88.8213 113.946C89.003 113.979 89.1649 114.081 89.2726 114.231C89.3802 114.381 89.425 114.567 89.3976 114.749L89.3692 114.766Z" fill="#3B2D55"/>
<path d="M42.0215 81.757C53.3623 81.757 62.5558 72.5679 62.5558 61.2326C62.5558 49.8973 53.3623 40.7083 42.0215 40.7083C30.6808 40.7083 21.4873 49.8973 21.4873 61.2326C21.4873 72.5679 30.6808 81.757 42.0215 81.757Z" fill="white" stroke="#3B2D55" stroke-width="3.74" stroke-linecap="round" stroke-linejoin="round"/>
<path d="M46.2701 47.7845C42.7305 48.4932 42.0215 56.2891 44.143 58.3982C45.5384 59.793 48.3916 60.2579 48.3916 61.2331C48.3916 62.2083 45.5554 62.6675 44.143 64.0679C42.0215 66.1884 42.7305 73.9729 46.2701 74.6816C50.4904 75.5264 56.889 70.435 56.889 61.2387C56.889 52.0425 50.4848 46.9397 46.2701 47.7845Z" fill="#3B2D55"/>
<path d="M32.1062 88.8274C32.8153 90.9535 34.9424 94.4971 37.7786 93.7827C39.1514 93.4369 39.9001 91.6623 39.9001 88.8274" fill="white"/>
<path d="M32.1062 88.8274C32.8153 90.9535 34.9424 94.4971 37.7786 93.7827C39.1514 93.4369 39.9001 91.6623 39.9001 88.8274" stroke="#3B2D55" stroke-width="3.12" stroke-linecap="round" stroke-linejoin="round"/>
<path d="M50.5188 87.4157C51.2222 90.2505 51.9312 92.3653 54.0584 92.3653C56.1856 92.3653 59.0104 89.5305 58.3071 84.5808" fill="white"/>
<path d="M50.5188 87.4157C51.2222 90.2505 51.9312 92.3653 54.0584 92.3653C56.1856 92.3653 59.0104 89.5305 58.3071 84.5808" stroke="#3B2D55" stroke-width="3.74" stroke-linecap="round" stroke-linejoin="round"/>
<path d="M27.9879 87.2452C41.6671 89.2254 55.5883 85.9383 66.9349 78.049C67.1658 77.8881 67.4512 77.8255 67.7283 77.8749C68.0055 77.9244 68.2516 78.0818 68.4125 78.3126C68.5735 78.5434 68.6362 78.8287 68.5867 79.1057C68.5372 79.3827 68.3797 79.6287 68.1488 79.7896C56.3361 87.8796 41.8877 91.1773 27.7326 89.0142C27.5002 88.9804 27.2907 88.8556 27.1503 88.6674C27.0099 88.4792 26.95 88.243 26.9839 88.0107C27.0177 87.7783 27.1425 87.569 27.3308 87.4286C27.5191 87.2883 27.7554 87.2284 27.9879 87.2623V87.2452Z" fill="#3B2D55"/>
<path d="M68.4948 81.4168C68.3004 80.4544 67.7988 79.581 67.0653 78.9278C66.3598 78.3026 65.4697 77.9244 64.5297 77.8505C64.3833 77.85 64.2385 77.8194 64.1045 77.7605C63.9704 77.7016 63.8499 77.6158 63.7505 77.5083C63.6511 77.4008 63.5748 77.2741 63.5266 77.1359C63.4783 76.9977 63.4591 76.851 63.47 76.7051C63.481 76.5591 63.5218 76.417 63.5901 76.2875C63.6584 76.158 63.7527 76.044 63.867 75.9525C63.9813 75.8611 64.1133 75.7941 64.2546 75.7558C64.396 75.7176 64.5437 75.7088 64.6886 75.7301H64.802C66.1445 75.9785 67.3704 76.6548 68.2962 77.6578C69.1918 78.6372 69.7451 79.8807 69.8732 81.2013C69.8892 81.3817 69.8356 81.5614 69.7233 81.7036C69.611 81.8457 69.4485 81.9394 69.2692 81.9655C69.0899 81.9917 68.9074 81.9482 68.7591 81.844C68.6109 81.7399 68.5082 81.5829 68.4721 81.4055L68.4948 81.4168Z" fill="#3B2D55"/>
<path d="M42.7476 131.033C42.9535 132.727 42.4899 134.434 41.4553 135.791C40.4207 137.149 38.897 138.049 37.2084 138.3C35.5199 138.551 33.7999 138.134 32.4147 137.136C31.0294 136.139 30.0883 134.641 29.7917 132.96L26.5244 114.642" fill="#57D1E5"/>
<path d="M43.8024 130.902C44.0444 132.796 43.5643 134.711 42.4575 136.267C41.3507 137.823 39.6984 138.906 37.8294 139.299C35.9586 139.7 34.0052 139.374 32.3668 138.386C30.732 137.411 29.5188 135.863 28.9633 134.043C28.7566 133.218 28.5957 132.381 28.4812 131.537L28.0841 129.145L27.3013 124.354L26.5412 119.563L25.8265 114.766C25.7949 114.581 25.8384 114.39 25.9474 114.236C26.0565 114.083 26.2221 113.979 26.4079 113.947C26.5937 113.915 26.7844 113.959 26.9381 114.068C27.0919 114.177 27.196 114.343 27.2276 114.528L28.2202 119.279L29.1675 124.036L30.0865 128.799L30.5403 131.18C30.6991 131.951 30.8352 132.836 31.0168 133.448C31.4327 134.742 32.3143 135.836 33.4907 136.517C34.6671 137.199 36.0547 137.42 37.3848 137.138C38.7149 136.855 39.8929 136.09 40.6908 134.989C41.4886 133.889 41.8495 132.531 41.7036 131.18C41.6872 131.042 41.6983 130.901 41.7362 130.767C41.7741 130.633 41.838 130.507 41.9244 130.398C42.0108 130.288 42.1179 130.197 42.2397 130.129C42.3614 130.061 42.4954 130.017 42.6339 130.001C42.7725 129.984 42.9129 129.996 43.0472 130.033C43.1814 130.071 43.307 130.135 43.4165 130.222C43.5261 130.308 43.6175 130.415 43.6857 130.537C43.7539 130.658 43.7974 130.792 43.8138 130.931L43.8024 130.902Z" fill="#3B2D55"/>
<path d="M52.1865 131.452C52.2569 133.14 51.6718 134.79 50.5534 136.057C49.4351 137.324 47.8701 138.11 46.1855 138.251C44.501 138.391 42.8272 137.876 41.5142 136.812C40.2012 135.748 39.3504 134.217 39.1399 132.541L37.0864 114.188" fill="#57D1E5"/>
<path d="M53.2642 131.395C53.3867 133.295 52.7918 135.171 51.5971 136.654C50.4024 138.136 48.6949 139.117 46.8119 139.402C44.9289 139.687 43.0075 139.255 41.4273 138.193C39.8472 137.13 38.7232 135.514 38.2776 133.663C38.1122 132.827 38.0005 131.98 37.943 131.129L37.7047 128.702L37.2339 123.894L36.7858 119.064L36.383 114.245C36.3627 114.057 36.4177 113.87 36.5357 113.723C36.6538 113.576 36.8254 113.482 37.0127 113.462C37.2 113.442 37.3877 113.497 37.5345 113.615C37.6813 113.733 37.7752 113.904 37.7955 114.091L38.4705 118.877L39.1058 123.668L39.7071 128.476L40.0077 130.874C40.1155 131.662 40.1893 132.524 40.3424 133.142C40.7027 134.431 41.5219 135.544 42.6458 136.272C43.7698 136.999 45.1211 137.291 46.4454 137.093C47.7697 136.894 48.9758 136.219 49.8367 135.194C50.6977 134.168 51.154 132.864 51.12 131.526C51.1057 131.245 51.2038 130.969 51.3926 130.76C51.5814 130.551 51.8456 130.426 52.1269 130.412C52.4082 130.397 52.6837 130.495 52.8927 130.684C53.1018 130.873 53.2272 131.137 53.2415 131.418L53.2642 131.395Z" fill="#3B2D55"/>
<path d="M78.1039 114.188L76.0391 132.541C75.8285 134.217 74.9778 135.748 73.6648 136.812C72.3517 137.876 70.678 138.391 68.9935 138.251C67.3089 138.11 65.7439 137.324 64.6255 136.057C63.5072 134.79 62.9221 133.14 62.9925 131.452" fill="#57D1E5"/>
<path d="M78.8073 114.262L78.4045 119.081L77.9621 123.895L77.4913 128.703L77.2474 131.107C77.1919 131.956 77.0821 132.8 76.9184 133.635C76.4752 135.482 75.3558 137.097 73.7809 138.16C72.2059 139.223 70.2896 139.658 68.4097 139.379C66.5273 139.098 64.8184 138.123 63.6202 136.645C62.422 135.167 61.8216 133.294 61.9375 131.396C61.9525 131.115 62.0787 130.851 62.2882 130.663C62.4978 130.474 62.7736 130.377 63.0549 130.392C63.3363 130.407 63.6001 130.533 63.7884 130.743C63.9767 130.952 64.074 131.228 64.0589 131.509C64.0076 132.868 64.4601 134.199 65.3296 135.245C66.1844 136.29 67.3976 136.979 68.733 137.179C70.0709 137.379 71.4357 137.08 72.5676 136.34C73.7004 135.59 74.5103 134.443 74.8366 133.125C74.9841 132.524 75.0578 131.668 75.1656 130.857L75.4662 128.459L76.0732 123.668L76.7142 118.877L77.3892 114.092C77.4203 113.915 77.5177 113.756 77.6617 113.648C77.8056 113.54 77.9853 113.49 78.1643 113.51C78.3433 113.529 78.5081 113.616 78.6254 113.753C78.7427 113.889 78.8037 114.065 78.7959 114.245L78.8073 114.262Z" fill="#3B2D55"/>
<path d="M64.6657 113.598L64.1325 131.997C64.0824 133.699 63.3704 135.315 62.1478 136.502C60.9251 137.689 59.2879 138.352 57.5837 138.352C55.8795 138.352 54.2423 137.689 53.0196 136.502C51.797 135.315 51.085 133.699 51.0349 131.997L50.5073 113.598" fill="#57D1E5"/>
<path d="M65.3861 113.615C65.3861 118.372 65.3861 123.123 65.2727 127.869L65.2103 131.43C65.2217 132.087 65.1665 132.745 65.0458 133.391C64.9047 134.071 64.6699 134.727 64.3481 135.342C63.7063 136.579 62.738 137.617 61.5482 138.344C60.3583 139.07 58.9922 139.458 57.5979 139.464C56.1953 139.457 54.8216 139.064 53.6272 138.33C52.7412 137.784 51.9752 137.065 51.3755 136.215C50.7759 135.366 50.3551 134.403 50.1386 133.386C50.0121 132.74 49.9532 132.082 49.9628 131.424L49.9061 127.858C49.8191 123.11 49.7832 118.359 49.7983 113.604C49.8084 113.427 49.8847 113.26 50.0121 113.136C50.1395 113.012 50.3087 112.941 50.4863 112.936C50.6638 112.931 50.8368 112.993 50.971 113.109C51.1051 113.225 51.1907 113.388 51.2107 113.564C51.4943 118.312 51.7326 123.057 51.9254 127.801L52.0729 131.362C52.0779 131.89 52.1292 132.418 52.2261 132.938C52.3371 133.422 52.5126 133.889 52.7479 134.327C53.2182 135.201 53.9167 135.932 54.7691 136.441C55.6216 136.951 56.5962 137.22 57.5894 137.22C58.5825 137.22 59.5572 136.951 60.4096 136.441C61.2621 135.932 61.9606 135.201 62.4308 134.327C62.6668 133.888 62.8406 133.419 62.947 132.932C63.0443 132.412 63.0955 131.885 63.1002 131.356L63.2476 127.795C63.4329 123.048 63.6693 118.302 63.9567 113.559C63.9617 113.466 63.9852 113.375 64.0257 113.291C64.0661 113.207 64.1228 113.132 64.1925 113.071C64.2621 113.009 64.3433 112.962 64.4314 112.932C64.5194 112.902 64.6126 112.889 64.7055 112.895C64.89 112.904 65.064 112.984 65.191 113.118C65.3179 113.253 65.3878 113.431 65.3861 113.615Z" fill="#3B2D55"/>
<path d="M112.065 79.614C97.3674 79.614 81.7398 83.1122 81.7398 89.5984V135.007C81.7328 135.56 81.8532 136.107 82.0915 136.606C84.3151 141.471 96.6413 144.867 112.065 144.867C126.768 144.867 142.395 141.368 142.395 134.882V89.5814C142.378 83.1122 126.768 79.614 112.065 79.614Z" fill="#2F74B7"/>
<path d="M111.327 79.614C111.327 81.3149 101.236 80.6459 102.155 81.9329C102.155 82.3298 111.327 98.4828 111.327 98.4828V144.867C126.03 144.867 141.652 141.368 141.652 134.882V89.5814C141.652 83.1122 126.03 79.614 111.327 79.614Z" fill="#5193CE"/>
<path d="M135.742 70.3159V79.5519" stroke="#3B2D55" stroke-width="3.74" stroke-linecap="round" stroke-linejoin="round"/>
<path d="M156.316 90.8232H147.075" stroke="#3B2D55" stroke-width="3.74" stroke-linecap="round" stroke-linejoin="round"/>
<path d="M150.467 76.1045L143.933 82.636" stroke="#3B2D55" stroke-width="3.74" stroke-linecap="round" stroke-linejoin="round"/>
<path d="M127.063 81.2015L117.289 80.7366L127.063 96.6855V143.279C134.891 141.663 140.677 138.823 140.677 134.882V89.5813C140.677 85.6579 134.913 82.8174 127.063 81.2015Z" fill="#2F74B7"/>
<path d="M112.065 113.825C96.6413 113.825 84.3151 110.423 82.0915 105.564C81.8531 105.063 81.7328 104.514 81.7398 103.96V89.5813C81.7398 83.0951 97.3674 79.5969 112.065 79.5969C126.762 79.5969 142.378 83.1121 142.378 89.5813V103.824C142.378 110.321 126.768 113.825 112.065 113.825ZM112.065 82.0746C100.419 82.0746 84.1789 84.9491 84.1789 89.6266V103.988C84.173 104.183 84.2119 104.377 84.2924 104.555C85.8126 107.877 96.8512 111.427 112.087 111.427C123.739 111.427 139.979 108.558 139.979 103.88V89.5813C139.956 86.4459 129.332 82.0462 112.065 82.0462V82.0746Z" fill="#3B2D55"/>
<path d="M112.065 99.5771C97.3676 99.5771 81.74 96.0789 81.74 89.5984C81.74 83.1179 97.3676 79.614 112.065 79.614C126.762 79.614 142.378 83.1122 142.378 89.5814C142.378 96.0505 126.768 99.5771 112.065 99.5771ZM112.065 82.0463C94.7866 82.0463 84.1791 86.446 84.1791 89.5984C84.1791 92.7507 94.7866 97.1448 112.065 97.1448C129.343 97.1448 139.956 92.7507 139.956 89.5984C139.956 86.446 129.332 82.0463 112.065 82.0463Z" fill="#3B2D55"/>
<path d="M112.065 129.406C96.6413 129.406 84.3151 126.004 82.0915 121.145C81.8531 120.644 81.7328 120.095 81.7398 119.54V103.393L84.1789 105.179V119.54C84.1722 119.736 84.2111 119.93 84.2924 120.107C85.8126 123.43 96.8512 126.979 112.087 126.979C123.739 126.979 139.979 124.11 139.979 119.433V105.315L142.418 103.529V119.404C142.378 125.907 126.768 129.406 112.065 129.406Z" fill="#3B2D55"/>
<path d="M112.065 144.867C96.6413 144.867 84.3151 141.465 82.0915 136.606C81.8532 136.107 81.7328 135.56 81.7398 135.007V118.86L84.1789 120.64V135.007C84.173 135.202 84.2118 135.396 84.2924 135.574C85.8126 138.896 96.8512 142.446 112.087 142.446C123.739 142.446 139.979 139.571 139.979 134.894V120.765L142.418 118.979V134.882C142.378 141.368 126.768 144.867 112.065 144.867Z" fill="#3B2D55"/>
</svg>
