<svg width="144" height="110" viewBox="0 0 144 110" fill="none" xmlns="http://www.w3.org/2000/svg">
<path d="M26.0053 100.018C26.3069 101.586 25.9483 103.204 25.0075 104.52C24.0668 105.836 22.62 106.744 20.982 107.047C19.3441 107.349 17.6474 107.021 16.2614 106.134C14.8753 105.247 13.9119 103.873 13.5808 102.311C13.5808 102.311 2 50.39 2 39.7546C2 17.547 20.4614 1.86609 46.4443 1.86609C72.4272 1.86609 90.8887 17.5679 90.8887 39.7546C90.8887 50.39 79.3078 102.311 79.3078 102.311C78.9467 103.844 77.975 105.182 76.5987 106.042C75.2223 106.903 73.5495 107.217 71.9347 106.919C70.3199 106.621 68.89 105.734 67.9481 104.446C67.0062 103.157 66.6262 101.57 66.8888 100.018" fill="#57D1E5"/>
<path d="M26.0053 100.018C26.3069 101.586 25.9483 103.204 25.0075 104.52C24.0668 105.836 22.62 106.744 20.982 107.047C19.3441 107.349 17.6474 107.021 16.2614 106.134C14.8753 105.247 13.9119 103.873 13.5808 102.311C13.5808 102.311 2 50.39 2 39.7546C2 17.547 20.4614 1.86609 46.4443 1.86609C72.4272 1.86609 90.8887 17.5679 90.8887 39.7546C90.8887 50.39 79.3078 102.311 79.3078 102.311C78.9467 103.844 77.975 105.182 76.5987 106.042C75.2223 106.903 73.5495 107.217 71.9347 106.919C70.3199 106.621 68.89 105.734 67.9481 104.446C67.0062 103.157 66.6262 101.57 66.8888 100.018" stroke="#3B2D55" stroke-width="3.28797" stroke-linecap="round" stroke-linejoin="round"/>
<path d="M76.459 85.1431L73.2981 102.054C73.0117 103.605 72.1028 104.988 70.765 105.909C69.4272 106.83 67.7661 107.215 66.1354 106.983C64.5047 106.751 63.0331 105.92 62.034 104.667C61.0349 103.414 60.5871 101.838 60.786 100.274" fill="#57D1E5"/>
<path d="M77.1274 85.259L76.4372 89.687L75.7031 94.1096L74.9471 98.5323L74.5637 100.741C74.4535 101.518 74.2981 102.289 74.098 103.049C73.7042 104.31 72.9473 105.44 71.9138 106.309C70.8803 107.179 69.6118 107.753 68.253 107.967C66.8942 108.181 65.4998 108.026 64.2289 107.519C62.9581 107.012 61.8619 106.174 61.0655 105.101C60.0047 103.666 59.5419 101.904 59.7671 100.16C59.7991 99.9019 59.9371 99.6664 60.1508 99.5054C60.3645 99.3445 60.6364 99.2712 60.9066 99.3017C61.1768 99.3323 61.4233 99.4641 61.5918 99.6683C61.7603 99.8724 61.837 100.132 61.805 100.39C61.6676 101.644 62.023 102.901 62.802 103.918C63.5649 104.937 64.701 105.646 65.9849 105.902C67.269 106.158 68.607 105.953 69.7429 105.326C70.8861 104.698 71.7392 103.681 72.1314 102.479C72.3012 101.955 72.4327 101.118 72.586 100.385L73.0243 98.1869L73.9118 93.7904L74.8321 89.3991L75.7962 85.0392C75.8282 84.8692 75.9296 84.7182 76.078 84.6196C76.2265 84.5209 76.4099 84.4827 76.5878 84.5132C76.7658 84.5437 76.9238 84.6406 77.0271 84.7824C77.1303 84.9242 77.1704 85.0995 77.1384 85.2695L77.1274 85.259Z" fill="#3B2D55"/>
<path d="M31.4013 54.7867C42.3536 54.7867 51.2322 46.3039 51.2322 35.8398C51.2322 25.3758 42.3536 16.8929 31.4013 16.8929C20.4489 16.8929 11.5703 25.3758 11.5703 35.8398C11.5703 46.3039 20.4489 54.7867 31.4013 54.7867Z" fill="white" stroke="#3B2D55" stroke-width="3.28797" stroke-linecap="round" stroke-linejoin="round"/>
<path d="M35.5045 23.4253C32.0861 24.0795 31.4013 31.2762 33.4556 33.2232C34.8033 34.5108 37.5588 34.9399 37.5588 35.8402C37.5588 36.7404 34.8197 37.1644 33.4556 38.4572C31.4013 40.4146 32.0861 47.6009 35.5045 48.2551C39.5857 49.035 45.7651 44.3349 45.7651 35.8454C45.7651 27.356 39.5857 22.6454 35.5045 23.4253Z" fill="#3B2D55"/>
<path d="M21.8311 61.3124C22.5158 63.2751 24.5701 66.5463 27.3092 65.8869C28.6349 65.5676 29.358 63.9294 29.358 61.3124" fill="white"/>
<path d="M21.8311 61.3124C22.5158 63.2751 24.5701 66.5463 27.3092 65.8869C28.6349 65.5676 29.358 63.9294 29.358 61.3124" stroke="#3B2D55" stroke-width="2.74291" stroke-linecap="round" stroke-linejoin="round"/>
<path d="M39.6077 60.0099C40.2924 62.6269 40.9772 64.5792 43.026 64.5792C45.0749 64.5792 47.8139 61.9622 47.1292 57.3929" fill="white"/>
<path d="M39.6077 60.0099C40.2924 62.6269 40.9772 64.5792 43.026 64.5792C45.0749 64.5792 47.8139 61.9622 47.1292 57.3929" stroke="#3B2D55" stroke-width="3.28797" stroke-linecap="round" stroke-linejoin="round"/>
<path d="M17.8538 59.8534C31.0538 61.6737 44.485 58.6396 55.434 51.3639C55.5444 51.2904 55.6689 51.2383 55.8004 51.2108C55.9319 51.1832 56.0677 51.1806 56.2003 51.2032C56.3328 51.2258 56.4593 51.2731 56.5727 51.3425C56.6861 51.4118 56.784 51.5018 56.861 51.6073C56.938 51.7128 56.9925 51.8318 57.0213 51.9574C57.0502 52.083 57.0529 52.2128 57.0292 52.3394C57.0056 52.466 56.956 52.587 56.8835 52.6953C56.8109 52.8036 56.7167 52.8972 56.6063 52.9707C45.2053 60.4319 31.2631 63.4759 17.6018 61.4864C17.3773 61.4545 17.1753 61.3386 17.0402 61.1644C16.9051 60.9902 16.848 60.7718 16.8814 60.5574C16.9148 60.3429 17.036 60.1499 17.2184 60.0208C17.4007 59.8917 17.6293 59.8372 17.8538 59.8691V59.8534Z" fill="#3B2D55"/>
<path d="M56.9733 54.473C56.7856 53.5845 56.3011 52.7783 55.5928 52.1753C54.9096 51.5978 54.0481 51.2486 53.1386 51.1808C52.9972 51.1804 52.8574 51.1521 52.7279 51.0977C52.5984 51.0434 52.482 50.9641 52.386 50.8649C52.29 50.7657 52.2164 50.6487 52.1698 50.5211C52.1232 50.3935 52.1046 50.2582 52.1152 50.1234C52.1257 49.9887 52.1652 49.8574 52.2312 49.7379C52.2972 49.6184 52.3882 49.5131 52.4986 49.4287C52.609 49.3443 52.7364 49.2825 52.8729 49.2471C53.0094 49.2118 53.1521 49.2037 53.292 49.2234H53.4015C54.6969 49.4516 55.8794 50.0762 56.7706 51.0029C57.6392 51.9053 58.1758 53.0538 58.299 54.2741C58.3145 54.4406 58.2628 54.6065 58.1543 54.7377C58.0458 54.8689 57.8889 54.9554 57.7157 54.9796C57.5425 55.0037 57.3663 54.9635 57.2231 54.8674C57.08 54.7712 56.9808 54.6264 56.9459 54.4625L56.9733 54.473Z" fill="#3B2D55"/>
<path d="M32.1081 100.274C32.307 101.838 31.8592 103.414 30.8601 104.667C29.8609 105.92 28.3894 106.751 26.7586 106.983C25.1279 107.215 23.4668 106.83 22.129 105.909C20.7912 104.988 19.8824 103.605 19.596 102.054L16.4351 85.1431" fill="#57D1E5"/>
<path d="M33.1267 100.155C33.3578 101.902 32.893 103.669 31.8245 105.105C30.7561 106.541 29.1619 107.541 27.3582 107.906C25.5497 108.277 23.6614 107.975 22.0772 107.063C20.4995 106.162 19.3282 104.734 18.7903 103.054C18.5926 102.292 18.4389 101.519 18.3302 100.741L17.9467 98.532L17.1797 94.1094L16.4511 89.6867L15.7554 85.2587C15.7289 85.0903 15.7722 84.9185 15.8762 84.7801C15.9801 84.6417 16.1365 84.5474 16.312 84.5174C16.4875 84.4874 16.6684 84.524 16.8161 84.6195C16.9639 84.7149 17.0668 84.8616 17.103 85.0284L18.0562 89.4145L18.9711 93.8058L19.8586 98.2023L20.3023 100.401C20.4557 101.112 20.5817 101.929 20.757 102.494C21.1536 103.695 22.004 104.711 23.1424 105.346C24.2808 105.98 25.6256 106.187 26.9147 105.925C28.2039 105.664 29.345 104.953 30.1156 103.932C30.8863 102.911 31.2313 101.652 31.0833 100.401C31.0514 100.142 31.1281 99.8826 31.2965 99.6785C31.465 99.4743 31.7115 99.3424 31.9817 99.3119C32.252 99.2814 32.5238 99.3546 32.7375 99.5156C32.9512 99.6766 33.0892 99.9121 33.1212 100.17L33.1267 100.155Z" fill="#3B2D55"/>
<path d="M41.2399 100.662C41.3079 102.22 40.7429 103.743 39.6628 104.913C38.5828 106.082 37.0714 106.808 35.4445 106.938C33.8176 107.067 32.2012 106.591 30.9332 105.609C29.6651 104.627 28.8435 103.214 28.6402 101.667L26.6406 84.7242" fill="#57D1E5"/>
<path d="M42.2643 100.61C42.3826 102.363 41.8081 104.095 40.6543 105.464C39.5006 106.832 37.8515 107.737 36.033 108.001C34.2145 108.264 32.3589 107.865 30.8329 106.884C29.3068 105.904 28.2214 104.412 27.791 102.703C27.6286 101.931 27.5206 101.149 27.4678 100.364L27.2377 98.1234L26.7776 93.685L26.3503 89.2257L25.9613 84.7769C25.9538 84.6109 26.0127 84.4485 26.126 84.3224C26.2393 84.1964 26.3985 84.1163 26.5714 84.0983C26.7442 84.0803 26.9177 84.1259 27.0567 84.2256C27.1957 84.3254 27.2898 84.4719 27.3199 84.6356L27.9718 89.053L28.5908 93.4757L29.177 97.8984L29.4674 100.112C29.5371 100.815 29.6449 101.514 29.7906 102.206C30.1385 103.396 30.9296 104.424 32.0151 105.095C33.1006 105.767 34.4056 106.037 35.6845 105.853C36.9635 105.67 38.1283 105.046 38.9597 104.1C39.7912 103.154 40.2319 101.949 40.1991 100.714C40.1853 100.455 40.28 100.2 40.4623 100.008C40.6447 99.8147 40.8997 99.699 41.1714 99.6858C41.4431 99.6726 41.7092 99.763 41.9111 99.9373C42.1129 100.111 42.2341 100.355 42.2479 100.615L42.2643 100.61Z" fill="#3B2D55"/>
<path d="M66.2534 84.7242L64.2593 101.667C64.0559 103.214 63.2344 104.627 61.9663 105.609C60.6982 106.591 59.0818 107.067 57.455 106.938C55.8281 106.808 54.3167 106.082 53.2367 104.913C52.1566 103.743 51.5915 102.22 51.6596 100.662" fill="#57D1E5"/>
<path d="M66.9327 84.7928L66.5438 89.2417L66.111 93.6853L65.6563 98.1237L65.4263 100.343C65.3673 101.126 65.2612 101.906 65.1085 102.677C64.7881 103.953 64.1002 105.117 63.1227 106.039C62.1452 106.96 60.9172 107.601 59.5779 107.89C58.2385 108.179 56.8412 108.103 55.5444 107.672C54.2476 107.241 53.103 106.472 52.2403 105.451C51.0839 104.088 50.4983 102.362 50.5969 100.61C50.6114 100.35 50.7333 100.107 50.9357 99.933C51.138 99.7593 51.4044 99.6695 51.6761 99.6834C51.9478 99.6973 52.2026 99.8137 52.3844 100.007C52.5662 100.2 52.6602 100.455 52.6457 100.714C52.6053 101.647 52.8345 102.571 53.3081 103.387C53.7817 104.203 54.4815 104.878 55.3305 105.339C56.1796 105.8 57.1451 106.028 58.121 105.999C59.097 105.97 60.0457 105.684 60.8629 105.174C61.9589 104.484 62.7416 103.424 63.0542 102.206C63.2021 101.651 63.2733 100.861 63.3774 100.113L63.6678 97.8986L64.2539 93.4759L64.8675 89.0532L65.5249 84.6358C65.537 84.5505 65.5666 84.4684 65.612 84.394C65.6574 84.3197 65.7177 84.2547 65.7895 84.2027C65.8612 84.1506 65.943 84.1126 66.0301 84.0909C66.1173 84.0691 66.2081 84.064 66.2973 84.0758C66.3885 84.0823 66.4775 84.1062 66.559 84.1459C66.6405 84.1857 66.713 84.2405 66.7721 84.3072C66.8312 84.3739 66.8759 84.4512 66.9035 84.5346C66.931 84.618 66.941 84.7057 66.9327 84.7928Z" fill="#3B2D55"/>
<path d="M53.2811 84.1802L52.788 101.164C52.7396 102.736 52.0521 104.228 50.8713 105.324C49.6905 106.419 48.1094 107.032 46.4635 107.032C44.8176 107.032 43.2366 106.419 42.0558 105.324C40.875 104.228 40.1874 102.736 40.139 101.164L39.624 84.1802" fill="#57D1E5"/>
<path d="M53.9658 84.1966C53.9658 88.5879 53.9658 92.974 53.8562 97.3548L53.8014 100.642C53.8132 101.249 53.7581 101.856 53.6371 102.453C53.5027 103.08 53.2778 103.685 52.9688 104.253C52.3505 105.397 51.416 106.358 50.2668 107.03C49.1175 107.703 47.7975 108.062 46.4498 108.069C45.0949 108.064 43.7678 107.702 42.615 107.022C41.4691 106.35 40.5356 105.393 39.9143 104.253C39.6083 103.686 39.3817 103.082 39.2405 102.458C39.1227 101.861 39.0676 101.254 39.0761 100.647L39.0214 97.3548C38.9337 92.974 38.9063 88.5879 38.9118 84.1966C38.9067 84.0231 38.974 83.8548 39.0988 83.7286C39.2236 83.6025 39.3958 83.5289 39.5774 83.5241C39.759 83.5192 39.9352 83.5835 40.0672 83.7027C40.1992 83.822 40.2763 83.9865 40.2813 84.16C40.5553 88.5426 40.7853 92.9234 40.9716 97.3024L41.114 100.589C41.116 101.078 41.1655 101.565 41.2619 102.044C41.5249 103.168 42.1812 104.173 43.1224 104.892C44.0636 105.612 45.2335 106.003 46.4388 106.001C47.4011 106.014 48.3486 105.774 49.1782 105.308C50.0079 104.842 50.688 104.168 51.1445 103.358C51.3707 102.953 51.5367 102.52 51.6376 102.071C51.7363 101.591 51.7876 101.104 51.791 100.616L51.9334 97.3286C52.1087 92.9478 52.3497 88.567 52.6182 84.1862C52.6375 84.0233 52.7201 83.8733 52.8497 83.7659C52.9793 83.6584 53.1463 83.6014 53.3178 83.606C53.4893 83.6106 53.6527 83.6765 53.7758 83.7907C53.8988 83.905 53.9725 84.0592 53.9822 84.2228L53.9658 84.1966Z" fill="#3B2D55"/>
<path d="M117.709 107.178C117.54 107.178 117.37 107.178 117.2 107.152H88.7737C87.08 107.032 85.4868 106.338 84.2816 105.195L84.2433 105.163L66.3352 83.9919C65.8432 83.3425 65.4926 82.6052 65.3044 81.824C65.1162 81.0427 65.0942 80.2332 65.2396 79.4436L71.5942 52.8133C71.7775 52.0294 72.1483 51.2968 72.6778 50.6729C73.2072 50.049 73.8807 49.5509 74.6456 49.2175L100.513 37.2998H100.607C101.377 37.1461 102.165 37.0828 102.951 37.1114C103.826 37.0932 104.693 37.2725 105.482 37.6348L131.262 49.4269C132.773 50.1538 133.921 51.4219 134.456 52.9546V53.0174L140.898 79.4907V79.5378C141.103 81.1266 140.681 82.7311 139.715 84.039L121.834 105.174C121.362 105.805 120.739 106.321 120.017 106.677C119.295 107.034 118.495 107.222 117.682 107.225L117.709 107.178Z" fill="#F2F2F2"/>
<path d="M102.957 37.9864C103.685 37.9633 104.408 38.1012 105.071 38.3894L130.863 50.1867C132.139 50.8068 133.11 51.8795 133.569 53.1753L140 79.5963C140.182 80.9654 139.819 82.35 138.981 83.4746L121.139 104.567C120.751 105.094 120.238 105.524 119.641 105.823C119.045 106.123 118.383 106.282 117.71 106.289C117.556 106.297 117.403 106.297 117.249 106.289H88.8287C87.3625 106.183 85.9837 105.582 84.9392 104.594L67.0968 83.4694C66.6768 82.9159 66.3778 82.2872 66.2178 81.6208C66.0578 80.9545 66.04 80.2641 66.1655 79.591L72.5092 53.013C72.663 52.3621 72.9718 51.7538 73.4117 51.2355C73.8517 50.7171 74.4108 50.3027 75.0456 50.0245L100.842 38.1434C101.538 38.013 102.248 37.9603 102.957 37.9864ZM102.957 36.2016C102.094 36.1725 101.232 36.2445 100.388 36.4162L100.201 36.4581L100.032 36.5418L74.2348 48.4019C73.3501 48.797 72.5711 49.3793 71.957 50.1048C71.3429 50.8303 70.9098 51.6799 70.6905 52.5891L64.3468 79.2037V79.2456V79.2875C64.1784 80.1957 64.2027 81.127 64.4182 82.0261C64.6337 82.9251 65.036 83.7737 65.6013 84.5214L65.6287 84.5685L65.667 84.6052L83.4656 105.688L83.5313 105.761L83.597 105.829C84.9616 107.131 86.7731 107.917 88.6972 108.043H117.156C117.337 108.043 117.523 108.043 117.704 108.043C118.667 108.042 119.616 107.823 120.473 107.403C121.33 106.984 122.071 106.376 122.634 105.63L140.438 84.5947L140.477 84.5581L140.51 84.511C141.61 83.0225 142.091 81.1956 141.857 79.3869V79.2927L141.83 79.1933L135.404 52.7723V52.7042V52.6414C134.805 50.8967 133.51 49.4483 131.799 48.6113H131.761H131.723L105.942 36.8244C105.027 36.4113 104.023 36.2104 103.012 36.2382L102.957 36.2016Z" fill="white"/>
<path d="M132.084 79.1451C131.991 79.1451 131.898 79.1451 131.898 79.0561C131.898 78.9671 131.712 78.9723 131.526 78.9723C131.166 78.8995 130.798 78.8696 130.43 78.8834C130.243 78.8957 130.055 78.8652 129.882 78.7944H129.789C128.728 78.7035 127.676 78.5285 126.645 78.271C126.497 78.2163 126.363 78.1325 126.252 78.0252C126.141 77.9179 126.054 77.7895 125.998 77.6482L125.259 77.4754C125.599 74.8818 125.475 72.2516 124.892 69.6978C124.236 67.1279 123.143 64.6788 121.654 62.4488L122.202 61.9254V61.8364C122.194 61.5481 122.293 61.2665 122.481 61.0408C123.282 60.3731 124.148 59.7807 125.067 59.2718L125.615 59.0101C125.982 58.8321 126.261 58.6541 126.628 58.4867C126.721 58.3977 126.814 58.3977 126.908 58.3139C127.001 58.2302 126.908 58.225 126.908 58.136C127.106 57.9999 127.274 57.8269 127.401 57.6272C127.528 57.4275 127.612 57.2053 127.647 56.9741C127.681 56.7428 127.667 56.5072 127.604 56.2814C127.541 56.0556 127.431 55.8444 127.28 55.6603C127.122 55.4753 126.924 55.3246 126.7 55.2181C126.477 55.1117 126.232 55.0519 125.982 55.0427C125.513 55.0554 125.061 55.2093 124.689 55.4824L124.596 55.5713C124.503 55.6603 124.41 55.7493 124.316 55.7493C124.046 55.9931 123.798 56.2594 123.577 56.5449C123.484 56.7228 123.297 56.8066 123.21 56.8955C122.526 57.635 121.747 58.2891 120.893 58.8426C120.727 58.9412 120.539 59.002 120.345 59.0205C120.215 59.0335 120.085 59.0019 119.978 58.9315H119.885L119.145 59.3712C118.405 58.6646 117.573 57.958 116.833 57.2776C113.342 54.7034 109.168 53.1118 104.781 52.6822L104.694 51.9756V52.0646C104.457 51.8885 104.292 51.6384 104.228 51.358C104.2 50.3533 104.262 49.3482 104.414 48.3537V48.2648C104.414 48.0868 104.507 47.9088 104.507 47.7414C104.6 47.3907 104.6 47.0348 104.694 46.6946V46.1712C104.694 45.702 104.499 45.252 104.151 44.9202C103.804 44.5885 103.333 44.4021 102.842 44.4021C102.351 44.4021 101.88 44.5885 101.533 44.9202C101.185 45.252 100.99 45.702 100.99 46.1712V46.6161C101.008 46.9709 101.07 47.3224 101.177 47.6628C101.251 47.8278 101.283 48.0072 101.27 48.1862V48.2752C101.427 49.2691 101.49 50.2748 101.456 51.2795C101.392 51.5599 101.227 51.81 100.99 51.9861V52.164L100.897 52.8706C99.8838 52.9596 98.8649 53.1323 97.7528 53.3103C93.3929 54.2265 89.4259 56.3835 86.3746 59.4968L85.8268 59.1409H85.7337C85.6406 59.1409 85.5474 59.2299 85.3667 59.2299C85.1734 59.2095 84.9868 59.1507 84.8189 59.0572C83.9852 58.4469 83.2114 57.7654 82.5071 57.0212C82.4139 56.8432 82.2332 56.7595 82.14 56.6705C81.8606 56.4035 81.6744 56.1471 81.4005 55.8749C81.3073 55.7859 81.2142 55.7859 81.1211 55.697L81.028 55.608C80.6574 55.333 80.2042 55.1788 79.7351 55.1683C79.4803 55.1479 79.2244 55.1946 78.9955 55.3035C78.7666 55.4124 78.5733 55.5793 78.4368 55.7859C78.1759 56.1721 78.0699 56.6354 78.1383 57.0903C78.2068 57.5453 78.4451 57.9613 78.8093 58.2616C78.834 58.2616 78.8577 58.271 78.8752 58.2877C78.8926 58.3043 78.9024 58.327 78.9024 58.3506C78.9024 58.3506 79.0832 58.5233 79.1763 58.5233C79.5058 58.7153 79.846 58.89 80.1953 59.0467L80.7431 59.3084C81.6779 59.7967 82.5479 60.3906 83.3343 61.0775C83.4461 61.1776 83.5302 61.3027 83.579 61.4416C83.6278 61.5804 83.6397 61.7287 83.6137 61.873V61.7841L84.1615 62.3074C84.0683 62.4854 83.9752 62.5744 83.8876 62.7523C81.0115 67.0295 79.8627 72.1605 80.6554 77.1876L79.9104 77.3655C79.9112 77.3769 79.9095 77.3884 79.9054 77.3992C79.9013 77.41 79.895 77.4198 79.8868 77.4281C79.8786 77.4365 79.8686 77.4431 79.8576 77.4477C79.8466 77.4522 79.8348 77.4545 79.8228 77.4545C79.6792 77.721 79.451 77.9372 79.1709 78.0721C78.1417 78.338 77.0891 78.5132 76.0264 78.5955C75.839 78.5828 75.6511 78.6133 75.4786 78.6845C75.1061 78.6845 74.739 78.7734 74.383 78.7734C74.2898 78.7734 74.2022 78.8624 74.0159 78.8624C73.9228 78.8624 73.9228 78.8624 73.8297 78.9514C73.5909 78.9878 73.3623 79.0699 73.1575 79.1927C72.9527 79.3155 72.776 79.4765 72.6379 79.6661C72.4998 79.8557 72.4031 80.07 72.3538 80.2962C72.3044 80.5223 72.3033 80.7556 72.3506 80.9822C72.4503 81.3674 72.6929 81.705 73.0335 81.9321C73.374 82.1593 73.7893 82.2607 74.2022 82.2174C74.3613 82.2305 74.5211 82.1996 74.6623 82.1284C74.7555 82.1284 74.7555 82.1284 74.7555 82.0447C74.7555 81.9609 75.0349 82.0447 75.1225 82.0447C75.495 81.9557 75.8675 81.7777 76.1414 81.6888C76.3081 81.5916 76.4952 81.5309 76.6893 81.5108H76.7824C77.7729 81.1545 78.7964 80.8882 79.8392 80.7152H79.9269C80.2021 80.7081 80.4694 80.8039 80.6719 80.9822C80.7595 80.9822 80.7595 81.0712 80.7595 81.0712L81.5922 80.9822C82.9664 85.0788 85.6056 88.6823 89.163 91.3192C89.9357 91.9249 90.773 92.4512 91.6611 92.8894L91.1954 93.5123C91.1954 93.596 91.2886 93.596 91.2886 93.596C91.3711 93.7279 91.4222 93.8755 91.4383 94.0284C91.4544 94.1812 91.4351 94.3356 91.3817 94.4805C90.981 95.3812 90.4855 96.2405 89.9026 97.0452V97.1341C89.8091 97.3022 89.6827 97.4515 89.5301 97.5738C89.3493 97.7518 89.163 98.0972 88.8836 98.4583C88.7905 98.5473 88.7905 98.6363 88.7029 98.7253C88.7029 98.7489 88.6931 98.7715 88.6756 98.7882C88.6581 98.8049 88.6344 98.8142 88.6097 98.8142C88.3917 99.2272 88.3469 99.7041 88.4843 100.148C88.6217 100.591 88.9311 100.968 89.3493 101.201C89.5512 101.298 89.7707 101.356 89.9957 101.374C90.3591 101.362 90.7128 101.259 91.0214 101.075C91.33 100.891 91.5827 100.633 91.7542 100.327C91.7542 100.303 91.764 100.281 91.7815 100.264C91.7989 100.247 91.8226 100.238 91.8473 100.238C91.8473 100.149 91.935 100.06 92.0281 99.9709C92.1212 99.6203 92.3075 99.3533 92.4006 98.9974L92.5869 98.474C92.89 97.5255 93.2919 96.6085 93.7866 95.7367C93.9675 95.4905 94.2269 95.3068 94.5262 95.2133C94.6193 95.2133 94.6193 95.2133 94.6193 95.1295L94.9699 94.4596C97.5341 95.4153 100.265 95.8966 103.017 95.878C104.703 95.8904 106.382 95.6808 108.008 95.2552C109.011 95.0455 110.001 94.7799 110.972 94.4596L111.339 95.0824C111.432 95.0824 111.432 95.0824 111.432 95.1714C111.734 95.2595 111.995 95.4444 112.171 95.6948C112.667 96.5669 113.071 97.4839 113.377 98.4322V98.5211L113.563 99.0445C113.625 99.387 113.749 99.7165 113.93 100.018C114.023 100.107 114.023 100.196 114.116 100.285C114.116 100.309 114.126 100.331 114.143 100.348C114.161 100.365 114.184 100.374 114.209 100.374C114.38 100.681 114.632 100.939 114.941 101.123C115.25 101.307 115.604 101.41 115.968 101.421C116.222 101.403 116.472 101.344 116.707 101.248C116.912 101.153 117.092 101.017 117.236 100.849C117.38 100.681 117.483 100.485 117.54 100.275C117.643 99.8338 117.611 99.3739 117.447 98.9503C117.447 98.9267 117.437 98.9041 117.419 98.8874C117.402 98.8707 117.378 98.8614 117.354 98.8614C117.354 98.7724 117.261 98.6834 117.167 98.5944C117.007 98.2662 116.788 97.9669 116.521 97.7099C116.426 97.543 116.299 97.394 116.148 97.2702V97.0766C115.533 96.2915 115.035 95.4283 114.669 94.5119C114.616 94.367 114.597 94.2126 114.613 94.0597C114.629 93.9069 114.68 93.7593 114.762 93.6274C114.762 93.5437 114.856 93.5437 114.856 93.5437L114.576 92.8371C119.322 90.1115 122.872 85.8345 124.568 80.799L125.308 80.888C125.333 80.888 125.356 80.8786 125.374 80.8619C125.391 80.8452 125.401 80.8226 125.401 80.799C125.602 80.6224 125.868 80.5285 126.141 80.5373H126.234C127.245 80.706 128.236 80.9708 129.192 81.3276H129.285C129.452 81.4248 129.639 81.4855 129.833 81.5056C130.154 81.6904 130.496 81.8396 130.852 81.9505C130.945 81.9505 131.038 82.0394 131.224 82.0394C131.312 82.0394 131.312 82.0394 131.405 82.1232C131.548 82.1951 131.71 82.226 131.871 82.2122C132.273 82.2075 132.664 82.0871 132.993 81.8667C133.323 81.6464 133.575 81.3363 133.717 80.9769C133.68 80.5423 133.501 80.1296 133.207 79.7965C132.912 79.4633 132.516 79.2265 132.073 79.1189L132.084 79.1451ZM105.378 76.4077L102.88 77.5539L100.382 76.4077L99.7359 73.8431L101.494 71.7233H104.266L106.025 73.8431L105.378 76.4077ZM120.454 70.6504C120.897 72.4747 121.022 74.356 120.827 76.2193L112.062 73.8326C111.868 73.7862 111.686 73.7037 111.526 73.5897C111.366 73.4758 111.231 73.3327 111.129 73.1687C111.028 73.0047 110.961 72.8231 110.933 72.6343C110.905 72.4455 110.916 72.2533 110.966 72.0688C111.033 71.8356 111.159 71.6218 111.333 71.4459L118.274 65.4373C119.275 67.0596 120.001 68.8224 120.427 70.6608L120.454 70.6504ZM115.458 62.1661L107.876 67.2954C107.549 67.4799 107.162 67.5455 106.788 67.4801C106.414 67.4148 106.077 67.2228 105.839 66.9395C105.748 66.862 105.677 66.7666 105.63 66.6598C105.582 66.5531 105.56 66.4377 105.565 66.3219L105.017 57.4242C108.969 57.8264 112.657 59.509 115.469 62.1923L115.458 62.1661ZM98.7169 57.6597L100.569 57.309L100.103 66.1439C100.087 66.5294 99.9136 66.8936 99.6195 67.1579C99.3254 67.4223 98.9344 67.5656 98.5307 67.5571C98.2755 67.5412 98.0252 67.4827 97.7911 67.3844L90.1217 62.1504C92.502 59.9454 95.4626 58.3972 98.6896 57.6702L98.7169 57.6597ZM87.4319 65.4373L94.2796 71.2732C94.4345 71.393 94.5624 71.5414 94.6557 71.7095C94.7491 71.8777 94.8059 72.0621 94.8227 72.2518C94.8396 72.4415 94.8162 72.6324 94.754 72.8132C94.6917 72.994 94.5919 73.1609 94.4604 73.304C94.3788 73.4249 94.2702 73.5271 94.1423 73.6031C94.0144 73.6791 93.8705 73.7271 93.7209 73.7436L84.7476 76.2193C84.4725 72.4547 85.3989 68.6989 87.4045 65.4478L87.4319 65.4373ZM85.8597 80.375L94.9699 78.8834C95.3323 78.8622 95.6907 78.9664 95.9793 79.1768C96.268 79.3873 96.4678 79.69 96.5421 80.0296C96.5955 80.1745 96.6148 80.3289 96.5987 80.4818C96.5826 80.6347 96.5315 80.7823 96.449 80.9141L92.932 89.0425C89.646 86.9682 87.1544 83.93 85.8323 80.3855L85.8597 80.375ZM106.83 91.3192C105.525 91.6039 104.192 91.7531 102.853 91.7641C100.876 91.7352 98.9133 91.4374 97.0242 90.8796L101.56 83.0287C101.771 82.7666 102.075 82.5866 102.414 82.5221C102.754 82.4576 103.106 82.513 103.406 82.678C103.676 82.8567 103.924 83.0639 104.146 83.2956L108.589 90.9843C107.996 91.0641 107.409 91.1759 106.83 91.3192ZM118.115 83.6306C116.705 85.7748 114.809 87.5887 112.566 88.9378L108.956 80.6263C108.864 80.2981 108.898 79.9497 109.051 79.643C109.203 79.3363 109.464 79.0912 109.788 78.9514C110.054 78.8509 110.335 78.7908 110.621 78.7734L119.874 80.2756C119.458 81.4748 118.866 82.6115 118.115 83.6515V83.6306Z" fill="#476CB3"/>
<path d="M102.957 36.2014C103.964 36.1739 104.964 36.371 105.877 36.7771L131.674 48.5745H131.712H131.75C133.461 49.4115 134.756 50.8598 135.355 52.6046V52.6674V52.7354L141.781 79.1564L141.808 79.2559V79.3501C142.042 81.1588 141.561 82.9856 140.461 84.4741L140.428 84.5212L140.389 84.5578L122.574 105.619C122.01 106.364 121.269 106.971 120.412 107.39C119.555 107.81 118.607 108.03 117.644 108.032C117.458 108.032 117.272 108.032 117.096 108.032H88.7193C86.7953 107.907 84.9837 107.12 83.6192 105.818L83.5534 105.75L83.4877 105.677L65.6453 84.584L65.6125 84.5474L65.5796 84.5003C65.0144 83.7525 64.6121 82.904 64.3966 82.0049C64.1811 81.1058 64.1568 80.1745 64.3251 79.2663V79.2244V79.1826L70.6907 52.5889C70.91 51.6797 71.3431 50.8301 71.9572 50.1046C72.5714 49.3791 73.3503 48.7967 74.2351 48.4017L100.032 36.5259L100.202 36.4422L100.388 36.4003C101.232 36.2286 102.095 36.1566 102.957 36.1857V36.2014ZM102.957 34.2387C101.928 34.2077 100.9 34.2991 99.8948 34.5108L99.7085 34.5579L99.5058 34.605L99.3196 34.694L99.1443 34.7725L73.3531 46.6484C72.1931 47.1676 71.172 47.9323 70.3671 48.8844C69.5623 49.8366 68.9948 50.9513 68.7076 52.144L62.3584 78.7586V78.8057V78.8476V78.8947V78.9366C62.1407 80.0975 62.1696 81.2884 62.4435 82.4385C62.7173 83.5885 63.2305 84.6742 63.9526 85.6308L63.9855 85.6727L64.0183 85.7198L64.0567 85.7669L64.0895 85.8035L81.9374 106.902L82.0031 106.975L82.0689 107.053L82.1456 107.121L82.2113 107.189C83.9299 108.83 86.2131 109.819 88.6372 109.974H117.124C117.337 109.974 117.551 110 117.765 110C119.034 109.997 120.285 109.708 121.416 109.158C122.548 108.608 123.528 107.812 124.278 106.834L142.071 85.8035L142.109 85.7617L142.148 85.7145L142.181 85.6674L142.214 85.6256C143.61 83.7452 144.222 81.4345 143.928 79.1459V79.0465V78.9418V78.8319L143.901 78.7377L137.371 52.3324V52.2644V52.1963V52.1283V52.0655C136.614 49.8295 134.961 47.9705 132.775 46.8944H132.742H132.704H132.665H132.632L106.847 35.097C105.649 34.5579 104.336 34.2927 103.012 34.3224L102.957 34.2387Z" fill="#3B2D55"/>
<g style="mix-blend-mode:overlay" opacity="0.7">
<path d="M134.621 53.5616L140.592 78.6846C140.703 78.9985 140.776 79.3233 140.811 79.6529L140.893 80.4327C140.93 81.6666 140.527 82.8757 139.748 83.861L125.1 101.264" stroke="white" stroke-width="2.99786" stroke-linecap="round" stroke-linejoin="round"/>
</g>
</svg>
