<svg width="169" height="138" viewBox="0 0 169 138" fill="none" xmlns="http://www.w3.org/2000/svg">
<path d="M72.7745 127.448C72.5198 127.144 72.3897 126.755 72.4102 126.359C72.4307 125.963 72.6003 125.59 72.885 125.313C73.1904 125.06 73.5806 124.93 73.9777 124.95C74.3748 124.971 74.7495 125.14 75.027 125.424C75.2832 125.728 75.4142 126.118 75.3937 126.515C75.3732 126.912 75.2027 127.287 74.9165 127.563C74.6194 127.774 74.2655 127.891 73.9008 127.899C73.6925 127.902 73.4857 127.863 73.2924 127.786C73.0991 127.708 72.9231 127.593 72.7745 127.448ZM151.07 124.411C150.751 124.166 150.538 123.808 150.475 123.411C150.413 123.014 150.505 122.608 150.733 122.277C150.979 121.959 151.339 121.747 151.737 121.685C152.135 121.622 152.542 121.714 152.875 121.941C153.194 122.187 153.406 122.545 153.469 122.942C153.532 123.339 153.44 123.744 153.212 124.076C152.888 124.416 152.445 124.617 151.975 124.637C151.817 124.676 151.652 124.676 151.494 124.637C151.336 124.598 151.19 124.52 151.07 124.411ZM67.8064 120.798C67.598 120.451 67.5288 120.038 67.6128 119.642C67.6967 119.246 67.9275 118.897 68.259 118.663C68.6053 118.448 69.0218 118.375 69.4212 118.459C69.8205 118.543 70.1717 118.778 70.401 119.114C70.6063 119.462 70.6742 119.873 70.5915 120.268C70.5087 120.663 70.2813 121.012 69.9536 121.249C69.7086 121.377 69.44 121.453 69.1642 121.474C68.8977 121.495 68.6306 121.442 68.3916 121.323C68.1525 121.204 67.9502 121.022 67.8064 120.798ZM155.696 117.651C155.337 117.471 155.065 117.157 154.938 116.778C154.811 116.399 154.839 115.985 155.017 115.627C155.197 115.27 155.512 114.999 155.893 114.873C156.274 114.747 156.689 114.777 157.048 114.956C157.406 115.136 157.679 115.449 157.806 115.828C157.933 116.208 157.905 116.621 157.727 116.98C157.61 117.233 157.417 117.444 157.175 117.585C156.933 117.726 156.654 117.789 156.375 117.767C156.26 117.803 156.139 117.812 156.021 117.792C155.903 117.771 155.791 117.723 155.696 117.651ZM63.8593 113.382C63.7764 113.198 63.7311 112.999 63.726 112.797C63.7209 112.595 63.7561 112.394 63.8295 112.206C63.9029 112.017 64.0132 111.845 64.1538 111.7C64.2944 111.554 64.4626 111.438 64.6487 111.358C64.8336 111.275 65.0334 111.229 65.2362 111.223C65.4391 111.218 65.641 111.253 65.8302 111.326C66.0194 111.399 66.192 111.509 66.3379 111.65C66.4839 111.791 66.6002 111.959 66.6802 112.145C66.763 112.329 66.8083 112.528 66.8134 112.73C66.8185 112.932 66.7834 113.133 66.7099 113.321C66.6365 113.509 66.5263 113.681 66.3856 113.827C66.245 113.972 66.0768 114.089 65.8907 114.169C65.7141 114.249 65.5213 114.286 65.3276 114.279C65.0221 114.298 64.7181 114.223 64.4559 114.066C64.1937 113.909 63.9856 113.676 63.8593 113.398V113.382ZM159.08 110.346C158.697 110.217 158.378 109.947 158.189 109.59C158 109.234 157.955 108.819 158.064 108.431C158.122 108.241 158.22 108.064 158.35 107.913C158.481 107.763 158.643 107.641 158.824 107.556C159.005 107.472 159.202 107.426 159.402 107.422C159.602 107.419 159.801 107.457 159.985 107.535C160.367 107.663 160.685 107.933 160.874 108.288C161.062 108.643 161.108 109.056 161.001 109.444C160.903 109.751 160.706 110.017 160.44 110.2C160.174 110.383 159.855 110.473 159.532 110.456C159.422 110.472 159.306 110.361 159.08 110.361V110.346ZM61.2647 105.51C61.1777 105.123 61.2471 104.717 61.4579 104.381C61.6686 104.044 62.0038 103.804 62.391 103.711C62.7795 103.625 63.1866 103.694 63.5244 103.904C63.8621 104.114 64.1034 104.448 64.1961 104.834C64.2831 105.221 64.2137 105.627 64.003 105.963C63.7922 106.3 63.457 106.54 63.0699 106.633H62.733C62.3979 106.645 62.0689 106.541 61.8014 106.339C61.5339 106.138 61.3444 105.851 61.2647 105.526V105.51ZM161.227 102.589C160.84 102.523 160.495 102.31 160.263 101.995C160.031 101.68 159.931 101.287 159.985 100.9C160.051 100.516 160.264 100.173 160.579 99.9418C160.894 99.7109 161.287 99.6109 161.674 99.6626C162.06 99.7296 162.405 99.9429 162.637 100.258C162.868 100.573 162.968 100.964 162.916 101.351C162.865 101.701 162.687 102.019 162.417 102.247C162.147 102.475 161.802 102.597 161.448 102.589H161.227ZM59.9122 97.3183C59.8911 97.1254 59.91 96.9301 59.9675 96.7447C60.0251 96.5592 60.1202 96.3875 60.2469 96.2401C60.3736 96.0927 60.5293 95.9727 60.7044 95.8875C60.8794 95.8024 61.0701 95.7539 61.2647 95.745C61.4584 95.724 61.6543 95.7428 61.8404 95.8002C62.0265 95.8575 62.1988 95.9523 62.3467 96.0786C62.4946 96.2049 62.615 96.36 62.7005 96.5344C62.7859 96.7089 62.8346 96.8989 62.8436 97.0928C62.8646 97.2858 62.8458 97.481 62.7882 97.6665C62.7306 97.8519 62.6355 98.0236 62.5088 98.1711C62.3821 98.3185 62.2264 98.4385 62.0513 98.5236C61.8763 98.6088 61.6856 98.6573 61.491 98.6662H61.3752C61.1899 98.6753 61.0046 98.6475 60.8302 98.5844C60.6558 98.5213 60.4958 98.4241 60.3595 98.2986C60.2232 98.1731 60.1135 98.0217 60.0367 97.8534C59.9599 97.6851 59.9175 97.5032 59.9122 97.3183ZM160.658 93.0441V92.8238C160.665 92.4378 160.822 92.0696 161.096 91.7966C161.37 91.5237 161.74 91.3673 162.127 91.3606C162.521 91.381 162.894 91.5387 163.183 91.8062C163.472 92.0738 163.657 92.434 163.706 92.8238V92.9339V93.0441C163.699 93.43 163.542 93.7983 163.268 94.0713C162.994 94.3442 162.625 94.5005 162.237 94.5073C162.037 94.515 161.837 94.4832 161.65 94.4138C161.462 94.3443 161.29 94.2386 161.143 94.1026C160.996 93.9667 160.878 93.8032 160.795 93.6215C160.712 93.4398 160.665 93.2436 160.658 93.0441ZM61.2647 90.5739C60.8779 90.5392 60.5201 90.3552 60.2674 90.0613C60.0147 89.7674 59.8873 89.3868 59.9122 89.0006C59.947 88.6147 60.1314 88.2576 60.4262 88.0049C60.721 87.7523 61.1029 87.6241 61.491 87.6475C61.8773 87.6835 62.2344 87.8678 62.4868 88.1614C62.7392 88.455 62.8671 88.8349 62.8436 89.2208C62.8144 89.5886 62.6469 89.9318 62.3746 90.1817C62.1023 90.4316 61.7454 90.5698 61.3752 90.5687H61.2647V90.5739ZM159.99 84.9518C159.937 84.5647 160.036 84.1721 160.268 83.857C160.5 83.5419 160.846 83.3289 161.232 83.2631C161.62 83.2113 162.012 83.3114 162.327 83.5422C162.643 83.7731 162.855 84.1167 162.922 84.5008C162.972 84.8876 162.87 85.2789 162.638 85.5927C162.405 85.9065 162.06 86.1185 161.674 86.1843H161.448C161.091 86.2105 160.739 86.096 160.466 85.8654C160.193 85.6349 160.022 85.3068 159.99 84.9518ZM62.2857 82.5918C61.8985 82.4994 61.5633 82.259 61.3526 81.9224C61.1419 81.5858 61.0725 81.1801 61.1595 80.7929C61.2522 80.4068 61.4933 80.0724 61.8308 79.8616C62.1684 79.6507 62.5755 79.5803 62.9646 79.6654C63.3518 79.7577 63.687 79.9982 63.8977 80.3348C64.1084 80.6714 64.1778 81.0771 64.0908 81.4642C64.0153 81.7927 63.8276 82.0848 63.5597 82.2905C63.2918 82.4962 62.9605 82.6027 62.6225 82.5918H62.2857ZM158.069 77.4207C157.938 77.0471 157.96 76.6372 158.129 76.2792C158.298 75.9213 158.602 75.6438 158.974 75.5065C159.349 75.3763 159.759 75.3979 160.118 75.5667C160.476 75.7354 160.753 76.0378 160.89 76.4085C161.022 76.7807 161.002 77.1899 160.834 77.5473C160.665 77.9047 160.362 78.1814 159.99 78.3175C159.858 78.4086 159.697 78.4495 159.538 78.4329C159.219 78.4284 158.909 78.3298 158.647 78.1496C158.384 77.9694 158.182 77.7158 158.064 77.4207H158.069ZM64.654 74.8352C64.4679 74.7549 64.2997 74.6387 64.1591 74.4931C64.0184 74.3476 63.9082 74.1757 63.8348 73.9874C63.7613 73.7991 63.7262 73.5981 63.7313 73.3961C63.7364 73.1942 63.7817 72.9952 63.8645 72.8108C63.9445 72.6249 64.0609 72.4568 64.2068 72.3163C64.3527 72.1758 64.5253 72.0657 64.7145 71.9924C64.9037 71.9192 65.1056 71.8842 65.3085 71.8897C65.5113 71.8951 65.7111 71.9408 65.896 72.0241C66.0821 72.1044 66.2503 72.2207 66.3909 72.3662C66.5315 72.5117 66.6418 72.6836 66.7152 72.872C66.7886 73.0603 66.8238 73.2612 66.8187 73.4632C66.8136 73.6652 66.7683 73.8641 66.6854 74.0485C66.5388 74.3113 66.3267 74.5319 66.0694 74.6891C65.8122 74.8462 65.5186 74.9344 65.2171 74.9453C65.0257 74.9195 64.8359 74.8827 64.6487 74.8352H64.654ZM154.911 70.2253C154.819 70.0486 154.764 69.8553 154.748 69.6567C154.732 69.4582 154.757 69.2585 154.82 69.0696C154.883 68.8807 154.984 68.7064 155.117 68.5572C155.249 68.408 155.41 68.2868 155.59 68.2009C155.767 68.108 155.961 68.0517 156.16 68.0353C156.359 68.0189 156.56 68.0428 156.75 68.1054C156.939 68.1681 157.114 68.2684 157.264 68.4001C157.414 68.5319 157.536 68.6925 157.622 68.8722C157.714 69.0489 157.77 69.2422 157.785 69.4408C157.801 69.6393 157.777 69.839 157.713 70.0279C157.65 70.2168 157.549 70.3911 157.417 70.5403C157.284 70.6895 157.123 70.8107 156.943 70.8966C156.737 71.0225 156.505 71.0997 156.264 71.1221C155.715 71.0034 155.23 70.6833 154.906 70.2253H154.911ZM68.1538 67.5244C67.8161 67.2959 67.5803 66.946 67.4959 66.548C67.4115 66.15 67.4851 65.735 67.7011 65.3899C67.9304 65.0534 68.2816 64.8184 68.681 64.7343C69.0803 64.6502 69.4968 64.7235 69.8431 64.9388C70.1808 65.1673 70.4166 65.5173 70.501 65.9152C70.5853 66.3132 70.5118 66.7283 70.2957 67.0733C70.1665 67.2848 69.9837 67.4587 69.7656 67.5774C69.5476 67.6962 69.3021 67.7557 69.0537 67.7499C68.7388 67.7431 68.4295 67.6661 68.1485 67.5244H68.1538ZM150.738 63.591C150.51 63.2596 150.418 62.8539 150.481 62.457C150.543 62.0601 150.756 61.7022 151.075 61.4565C151.407 61.2293 151.815 61.1376 152.213 61.2C152.611 61.2624 152.97 61.4742 153.217 61.7921C153.445 62.1235 153.537 62.5292 153.474 62.9261C153.412 63.323 153.199 63.681 152.88 63.9267C152.636 64.1513 152.313 64.2718 151.98 64.2623C151.511 64.1547 151.08 63.9227 150.733 63.591H150.738ZM72.7798 60.8901C72.625 60.7618 72.4985 60.603 72.4081 60.4237C72.3177 60.2443 72.2655 60.0484 72.2546 59.848C72.2437 59.6476 72.2745 59.4472 72.3449 59.2592C72.4154 59.0713 72.524 58.8998 72.664 58.7556C72.7932 58.6009 72.9531 58.4745 73.1337 58.3844C73.3143 58.2943 73.5117 58.2425 73.7134 58.2321C73.9151 58.2218 74.1168 58.2531 74.3057 58.3243C74.4947 58.3954 74.6668 58.5048 74.8112 58.6454C74.965 58.7746 75.0905 58.9339 75.1799 59.1133C75.2694 59.2928 75.3209 59.4887 75.3312 59.6888C75.3416 59.8889 75.3106 60.0891 75.2402 60.2767C75.1697 60.4644 75.0613 60.6357 74.9218 60.78C74.7827 60.9455 74.611 61.0807 74.4172 61.1773C74.2234 61.2738 74.0118 61.3296 73.7955 61.3411C73.4349 61.2412 73.0909 61.0893 72.7745 60.8901H72.7798ZM145.407 57.7434C145.26 57.6065 145.144 57.4412 145.064 57.2577C144.984 57.0741 144.943 56.8762 144.943 56.6761C144.943 56.4761 144.984 56.2782 145.064 56.0946C145.144 55.9111 145.26 55.7457 145.407 55.6089C145.544 55.4621 145.71 55.3451 145.895 55.2651C146.08 55.1851 146.279 55.1439 146.48 55.1439C146.682 55.1439 146.881 55.1851 147.066 55.2651C147.25 55.3451 147.417 55.4621 147.554 55.6089C147.7 55.7457 147.817 55.9111 147.897 56.0946C147.977 56.2782 148.018 56.4761 148.018 56.6761C148.018 56.8762 147.977 57.0741 147.897 57.2577C147.817 57.4412 147.7 57.6065 147.554 57.7434C147.409 57.8952 147.233 58.0141 147.038 58.0919C146.842 58.1697 146.633 58.2047 146.423 58.1944C146.073 58.0878 145.738 57.9362 145.428 57.7434H145.407ZM78.5057 55.0477C78.3733 54.8952 78.2737 54.7172 78.2131 54.5248C78.1525 54.3323 78.1321 54.1295 78.1533 53.929C78.1745 53.7284 78.2369 53.5343 78.3364 53.3586C78.4359 53.183 78.5706 53.0296 78.732 52.908C78.885 52.7768 79.0632 52.6783 79.2558 52.6184C79.4484 52.5585 79.6513 52.5384 79.8519 52.5596C80.0526 52.5807 80.2467 52.6425 80.4225 52.7412C80.5983 52.8399 80.7519 52.9734 80.874 53.1335C81.0063 53.2856 81.1059 53.4631 81.1664 53.6552C81.227 53.8472 81.2473 54.0496 81.226 54.2497C81.2048 54.4499 81.1425 54.6436 81.0431 54.8187C80.9436 54.9939 80.809 55.1468 80.6477 55.268C80.4037 55.4941 80.0809 55.6164 79.7478 55.6089C79.5116 55.6433 79.2704 55.6086 79.0536 55.509C78.8369 55.4094 78.6538 55.2491 78.5268 55.0477H78.5057ZM139.318 52.7978C139.148 52.6851 139.004 52.5387 138.894 52.3679C138.785 52.197 138.711 52.0054 138.679 51.805C138.647 51.6046 138.657 51.3998 138.708 51.2033C138.759 51.0069 138.85 50.823 138.976 50.6633C139.089 50.4945 139.237 50.3508 139.409 50.2412C139.58 50.1316 139.773 50.0586 139.975 50.0266C140.176 49.9946 140.382 50.0044 140.58 50.0553C140.777 50.1062 140.962 50.1971 141.123 50.3224C141.291 50.4366 141.434 50.584 141.543 50.7556C141.652 50.9271 141.725 51.119 141.757 51.3196C141.788 51.5202 141.778 51.725 141.727 51.9216C141.676 52.1181 141.585 52.3021 141.46 52.4622C141.319 52.6625 141.134 52.8275 140.918 52.944C140.703 53.0605 140.463 53.1254 140.218 53.1335C139.902 53.0234 139.676 52.908 139.339 52.7978H139.318ZM85.0685 50.3224C84.958 50.1562 84.8848 49.9681 84.8537 49.7712C84.8226 49.5742 84.8344 49.3728 84.8883 49.1808C84.9422 48.9887 85.037 48.8105 85.1662 48.6582C85.2953 48.5059 85.4559 48.3831 85.6369 48.2981C85.8033 48.188 85.9916 48.1151 86.1889 48.0841C86.3862 48.0532 86.5879 48.065 86.7802 48.1188C86.9725 48.1725 87.1509 48.267 87.3032 48.3956C87.4556 48.5243 87.5783 48.6842 87.6631 48.8645C87.7736 49.03 87.8471 49.2173 87.8786 49.4137C87.91 49.6101 87.8986 49.8109 87.8451 50.0024C87.7917 50.194 87.6975 50.3719 87.5689 50.524C87.4403 50.676 87.2804 50.7987 87.0999 50.8836C86.8609 51.0257 86.5888 51.1034 86.3105 51.1091C86.0602 51.0704 85.8207 50.9805 85.607 50.8452C85.3932 50.7098 85.2099 50.5318 85.0685 50.3224ZM132.566 48.8645C132.378 48.7881 132.21 48.6723 132.072 48.5251C131.934 48.3779 131.829 48.2027 131.765 48.0115C131.701 47.8203 131.679 47.6176 131.701 47.4173C131.723 47.2169 131.788 47.0236 131.892 46.8506C131.968 46.6621 132.084 46.4924 132.232 46.3531C132.38 46.2139 132.557 46.1084 132.751 46.044C132.944 45.9797 133.149 45.958 133.351 45.9804C133.554 46.0029 133.749 46.0689 133.923 46.174C134.112 46.2502 134.282 46.3663 134.421 46.5143C134.56 46.6623 134.665 46.8386 134.729 47.0311C134.794 47.2237 134.815 47.4278 134.792 47.6293C134.769 47.8308 134.703 48.025 134.597 48.1984C134.486 48.4644 134.298 48.6915 134.057 48.8511C133.816 49.0107 133.534 49.0957 133.244 49.0952C132.908 48.9746 132.681 48.9746 132.566 48.8645ZM92.2891 46.6146C92.212 46.4306 92.1746 46.2325 92.1791 46.0331C92.1836 45.8338 92.23 45.6376 92.3153 45.4572C92.4006 45.2769 92.5229 45.1163 92.6743 44.9859C92.8257 44.8556 93.0028 44.7583 93.1943 44.7003C93.3786 44.6236 93.577 44.5863 93.7767 44.5908C93.9764 44.5954 94.1729 44.6417 94.3535 44.7267C94.5341 44.8117 94.6947 44.9336 94.8251 45.0845C94.9554 45.2353 95.0524 45.4118 95.11 45.6024C95.1878 45.786 95.2259 45.9838 95.2218 46.1831C95.2176 46.3823 95.1713 46.5785 95.0859 46.7587C95.0004 46.9389 94.8778 47.0991 94.7259 47.2288C94.5741 47.3585 94.3965 47.4548 94.2048 47.5114C94.0324 47.604 93.8366 47.6441 93.6416 47.6268C93.3504 47.581 93.0748 47.4648 92.839 47.2883C92.6032 47.1119 92.4144 46.8806 92.2891 46.6146ZM125.124 46.0534C124.93 45.996 124.749 45.9006 124.593 45.7728C124.436 45.6449 124.307 45.4873 124.212 45.309C124.118 45.1307 124.06 44.9354 124.042 44.7346C124.024 44.5337 124.047 44.3313 124.108 44.1392C124.165 43.9461 124.26 43.7663 124.388 43.6103C124.516 43.4544 124.674 43.3255 124.852 43.2312C125.031 43.1369 125.226 43.0791 125.427 43.0612C125.629 43.0433 125.831 43.0657 126.024 43.127C126.4 43.2651 126.712 43.5369 126.9 43.8902C127.087 44.2436 127.137 44.6535 127.04 45.0412C126.944 45.3585 126.751 45.6377 126.488 45.8392C126.224 46.0407 125.903 46.1542 125.571 46.1636C125.414 46.1799 125.256 46.141 125.124 46.0534ZM99.9623 44.0291C99.9007 43.6443 99.9808 43.2503 100.188 42.9197C100.395 42.5891 100.715 42.3442 101.089 42.2302C101.477 42.1435 101.884 42.2127 102.222 42.4227C102.56 42.6327 102.801 42.9667 102.894 43.3525C102.981 43.7397 102.911 44.1454 102.701 44.482C102.49 44.8186 102.155 45.059 101.767 45.1514H101.431C101.259 45.1795 101.084 45.1723 100.916 45.1303C100.748 45.0883 100.59 45.0123 100.453 44.9071C100.315 44.802 100.2 44.6698 100.116 44.5187C100.032 44.3677 99.9794 44.201 99.9623 44.0291ZM117.451 44.5902C117.051 44.534 116.689 44.3278 116.438 44.0138C116.186 43.6998 116.065 43.3018 116.098 42.9015C116.154 42.5047 116.361 42.1442 116.675 41.8938C116.989 41.6433 117.387 41.5216 117.787 41.5536C118.187 41.6098 118.549 41.8161 118.801 42.1301C119.052 42.4441 119.174 42.842 119.14 43.2424C119.085 43.6195 118.895 43.9639 118.605 44.2118C118.314 44.4597 117.944 44.5941 117.561 44.5902H117.451ZM107.978 42.7914C107.969 42.5917 108.001 42.3923 108.07 42.2048C108.139 42.0173 108.245 41.8454 108.382 41.6991C108.519 41.5528 108.683 41.4349 108.866 41.3523C109.048 41.2697 109.245 41.2241 109.446 41.218C109.646 41.2067 109.846 41.235 110.035 41.3012C110.224 41.3675 110.398 41.4704 110.547 41.604C110.695 41.7377 110.816 41.8993 110.902 42.0797C110.987 42.2601 111.036 42.4556 111.046 42.655C111.054 42.8547 111.023 43.054 110.953 43.2415C110.884 43.429 110.778 43.6009 110.641 43.7472C110.505 43.8936 110.34 44.0115 110.158 44.094C109.975 44.1766 109.778 44.2223 109.577 44.2283H109.467C109.273 44.2377 109.078 44.2073 108.896 44.139C108.714 44.0708 108.548 43.9661 108.408 43.8316C108.268 43.697 108.157 43.5352 108.082 43.3564C108.007 43.1775 107.97 42.9852 107.972 42.7914H107.978Z" fill="#B03831"/>
<path d="M70.7326 121.065C70.4948 122.626 70.8721 124.217 71.7856 125.507C72.6991 126.796 74.0778 127.683 75.6329 127.982C77.188 128.281 78.7989 127.968 80.1281 127.11C81.4573 126.252 82.4016 124.915 82.7634 123.378C93.9101 71.2584 93.9837 73.1883 93.9837 60.1663C93.9837 37.7198 76.0901 21.8815 50.9233 21.8815C25.7564 21.8815 7.86279 37.7251 7.86279 60.1663C7.86279 70.9122 19.0831 123.378 19.0831 123.378C19.4283 124.932 20.3682 126.29 21.703 127.164C23.0379 128.038 24.6622 128.359 26.2304 128.057C27.7986 127.756 29.1869 126.857 30.0999 125.551C31.013 124.245 31.3787 122.636 31.1192 121.065" fill="#57D1E5"/>
<path d="M25.0669 129.153C23.4484 129.148 21.8796 128.595 20.6168 127.587C19.3541 126.578 18.472 125.172 18.1147 123.599C17.6568 121.438 6.87329 70.8971 6.87329 60.1669C6.87329 49.0328 11.2835 38.9843 19.2936 31.8466C27.3036 24.7088 38.4976 20.8646 50.9232 20.8646C63.3487 20.8646 74.6059 24.7665 82.558 31.8466C90.5102 38.9267 94.9783 49.0118 94.9783 60.1669C94.9783 71.3219 94.8467 71.967 88.0103 103.696C86.8051 109.282 85.3789 115.832 83.7369 123.583C83.3391 125.353 82.2782 126.905 80.7709 127.922C79.2636 128.938 77.4236 129.343 75.6269 129.053C73.7629 128.747 72.0969 127.716 70.9948 126.187C69.8926 124.658 69.4443 122.756 69.7483 120.898C69.7944 120.642 69.9398 120.414 70.153 120.264C70.3662 120.114 70.6302 120.053 70.8879 120.095C71.1456 120.137 71.3764 120.278 71.5305 120.488C71.6846 120.698 71.7495 120.961 71.7113 121.218C71.49 122.535 71.794 123.886 72.5585 124.983C73.323 126.08 74.4875 126.836 75.8034 127.089C77.1193 127.342 78.4824 127.073 79.6018 126.339C80.7212 125.604 81.5082 124.463 81.7949 123.158C83.4527 115.418 84.8632 108.867 86.0683 103.282C92.9942 71.1436 92.9942 71.1436 92.9942 60.1616C92.9942 49.5992 88.8155 40.0752 81.2318 33.3413C73.6481 26.6073 62.8645 22.8523 50.9232 22.8523C38.9818 22.8523 28.2246 26.5759 20.6145 33.3413C13.0045 40.1067 8.85738 49.5992 8.85738 60.1616C8.85738 70.724 19.9462 122.65 20.0567 123.174C20.3337 124.49 21.1189 125.644 22.2426 126.387C23.3664 127.131 24.7386 127.404 26.0627 127.148C27.3869 126.892 28.5568 126.127 29.3197 125.018C30.0826 123.91 30.3774 122.546 30.1403 121.223C30.0977 120.964 30.1603 120.698 30.3142 120.485C30.4682 120.271 30.7009 120.128 30.9613 120.085C31.2216 120.043 31.4881 120.105 31.7023 120.259C31.9165 120.412 32.0607 120.644 32.1033 120.903C32.2695 121.919 32.2122 122.959 31.9354 123.951C31.6587 124.942 31.169 125.862 30.5003 126.647C29.8317 127.431 28.9999 128.062 28.0627 128.495C27.1255 128.927 26.1051 129.152 25.0722 129.153H25.0669Z" fill="#3B2D55"/>
<path d="M21.8513 106.03L24.909 123.121C25.2351 124.641 26.1303 125.98 27.4122 126.866C28.6941 127.751 30.2664 128.116 31.809 127.887C33.3517 127.658 34.7486 126.851 35.7156 125.632C36.6825 124.412 37.1466 122.871 37.0135 121.323" fill="#57D1E5"/>
<path d="M22.4986 105.914C22.4986 105.914 22.9775 108.127 23.6459 111.457C23.9722 113.12 24.3775 115.06 24.7722 117.148L25.3879 120.357C25.4932 120.882 25.5984 121.453 25.709 122.009L25.8668 122.838V122.943C25.8668 122.943 25.8668 122.859 25.8668 122.906V122.948V122.995L25.9142 123.205L25.9616 123.41L25.9879 123.509V123.588C26.135 124.023 26.3347 124.439 26.5826 124.826C26.8453 125.213 27.1566 125.565 27.5088 125.874C27.8583 126.176 28.2479 126.429 28.6667 126.624C28.7667 126.677 28.8705 126.723 28.9772 126.761L29.2929 126.876C29.5073 126.941 29.7252 126.993 29.9455 127.033C30.3711 127.107 30.8037 127.132 31.2349 127.107C31.3454 127.107 31.4454 127.081 31.5507 127.07H31.7086H31.7665C31.7665 127.07 31.8244 127.07 31.7296 127.07H31.8191C32.0423 127.031 32.2622 126.975 32.477 126.902L32.7348 126.813L33.0032 126.693C33.1852 126.617 33.3611 126.527 33.5295 126.425C33.6979 126.325 33.84 126.21 33.9979 126.11C34.1558 126.011 34.2768 125.88 34.4031 125.754C34.8671 125.299 35.2466 124.767 35.5241 124.18C35.74 123.732 35.8839 123.252 35.9504 122.759C35.9504 122.66 35.9504 122.56 35.9925 122.471C36.0346 122.382 35.9925 122.292 35.9925 122.214C36.0059 122.078 36.0059 121.941 35.9925 121.805V121.464V121.322C35.9751 121.061 36.0626 120.803 36.2358 120.606C36.409 120.409 36.6537 120.288 36.9161 120.271C37.1786 120.253 37.4371 120.34 37.635 120.513C37.8329 120.686 37.9539 120.93 37.9713 121.191C37.9713 121.191 37.9713 121.354 38.0082 121.658C38.0223 121.846 38.0223 122.036 38.0082 122.224C38.0082 122.34 38.0082 122.46 38.0082 122.586C38.0082 122.712 37.9766 122.848 37.9608 122.995C37.8727 123.684 37.6811 124.356 37.3924 124.988C37.0202 125.811 36.4953 126.557 35.8452 127.186C35.6715 127.359 35.4662 127.516 35.2715 127.684C35.0768 127.852 34.8505 127.993 34.6189 128.13C34.3866 128.272 34.1458 128.399 33.8979 128.512L33.5137 128.685L33.0822 128.827C32.8296 128.914 32.571 128.982 32.3085 129.032H32.2138H32.1401H32.1033L31.8875 129.063L31.4454 129.116C30.8343 129.158 30.2202 129.119 29.6192 129C29.3109 128.944 29.0067 128.867 28.7088 128.769L28.2667 128.596C28.1152 128.546 27.9689 128.481 27.8299 128.402C27.2577 128.127 26.7264 127.774 26.251 127.353C25.7619 126.918 25.332 126.421 24.9722 125.874C24.7995 125.595 24.6431 125.306 24.5038 125.009C24.4406 124.852 24.3669 124.715 24.309 124.548L24.1406 124.023L24.1038 123.897V123.792L24.0564 123.588L24.0091 123.378L23.9775 123.226V123.121L23.7722 122.371C23.6828 121.815 23.5933 121.265 23.4986 120.714C23.3196 119.618 23.1354 118.532 22.9723 117.488C22.6197 115.391 22.325 113.44 22.0565 111.762C21.5303 108.41 21.2092 106.171 21.2092 106.171C21.1936 106.006 21.2406 105.842 21.3408 105.71C21.441 105.578 21.5873 105.488 21.7506 105.459C21.9139 105.429 22.0824 105.462 22.2228 105.55C22.3633 105.638 22.4655 105.775 22.5092 105.935L22.4986 105.914Z" fill="#3B2D55"/>
<path d="M65.5013 75.3494C76.1103 75.3494 84.7106 66.779 84.7106 56.207C84.7106 45.6349 76.1103 37.0646 65.5013 37.0646C54.8923 37.0646 46.292 45.6349 46.292 56.207C46.292 66.779 54.8923 75.3494 65.5013 75.3494Z" fill="white"/>
<path d="M65.5009 76.3408C61.5049 76.3408 57.5987 75.16 54.2761 72.9477C50.9536 70.7354 48.364 67.591 46.8348 63.912C45.3056 60.2331 44.9055 56.1849 45.6851 52.2793C46.4647 48.3738 48.3889 44.7863 51.2145 41.9706C54.0401 39.1549 57.6401 37.2373 61.5593 36.4605C65.4785 35.6836 69.5408 36.0823 73.2326 37.6062C76.9244 39.1301 80.0799 41.7106 82.2999 45.0216C84.5199 48.3325 85.7049 52.2252 85.7049 56.2072C85.6979 61.5449 83.5671 66.6619 79.7796 70.4362C75.9921 74.2104 70.8572 76.3339 65.5009 76.3408ZM65.5009 38.056C61.8971 38.055 58.374 39.119 55.377 41.1134C52.3801 43.1078 50.044 45.9431 48.6641 49.2607C47.2843 52.5782 46.9227 56.229 47.6252 59.7514C48.3276 63.2737 50.0624 66.5094 52.6103 69.0491C55.1582 71.5889 58.4047 73.3186 61.9392 74.0196C65.4736 74.7206 69.1373 74.3614 72.4669 72.9873C75.7964 71.6133 78.6423 69.2861 80.6446 66.3002C82.6468 63.3143 83.7155 59.8037 83.7155 56.2125C83.7114 51.3988 81.7913 46.7833 78.3766 43.3785C74.9619 39.9738 70.3314 38.0577 65.5009 38.0508V38.056Z" fill="#3B2D55"/>
<path d="M61.5224 43.6618C64.838 44.3226 65.5011 51.5863 63.5118 53.5634C62.2066 54.8641 59.5383 55.2993 59.5383 56.1857C59.5383 57.072 62.2066 57.523 63.5118 58.8079C65.5011 60.7903 64.838 68.0539 61.5224 68.7148C57.5753 69.5381 51.5757 64.7866 51.5757 56.2066C51.5757 47.6267 57.5753 42.8751 61.5224 43.6618Z" fill="#3B2D55"/>
<path d="M53.1178 79.2249L52.1915 78.9522C51.8968 78.8735 51.5073 78.7057 51.0758 78.5484C50.8547 78.4697 50.639 78.3701 50.4127 78.2652L49.6969 77.9348C49.2127 77.6883 48.6865 77.4103 48.1181 77.1009C47.5497 76.7915 47.0181 76.4558 46.4603 76.052C45.9024 75.6482 45.334 75.2758 44.7604 74.8562C44.4709 74.6517 44.1973 74.4262 43.9131 74.2112C43.6289 73.9961 43.3447 73.7706 43.0763 73.5346L42.25 72.8476L41.4553 72.1396C40.929 71.6728 40.4396 71.1799 39.9502 70.7183C39.4607 70.2568 39.0186 69.7796 38.6081 69.3233C38.1976 68.867 37.7924 68.437 37.4503 68.0174C37.1082 67.5979 36.7872 67.2255 36.5188 66.8741C36.2504 66.5228 35.9925 66.2238 35.8346 65.9616L35.261 65.1644C35.124 64.9492 35.0754 64.6897 35.1254 64.4398C35.1753 64.1899 35.32 63.9687 35.5292 63.8223C35.7385 63.6758 35.9964 63.6153 36.2492 63.6533C36.5021 63.6913 36.7306 63.8249 36.8872 64.0264L36.9188 64.0683C36.9188 64.0683 37.1082 64.3515 37.4451 64.8393C37.6029 65.0858 37.824 65.3637 38.0766 65.7046C38.3292 66.0455 38.6029 66.4021 38.9397 66.8007C39.2765 67.1993 39.6291 67.6136 39.9923 68.0594C40.3554 68.5052 40.8185 68.9457 41.2606 69.4125C41.7027 69.8792 42.1816 70.346 42.6868 70.797L43.492 71.4998L44.2709 72.1711C44.5288 72.4018 44.7972 72.6116 45.0656 72.8266C45.334 73.0417 45.5919 73.2619 45.8656 73.4612C46.3919 73.865 46.9181 74.2689 47.4444 74.6202C47.9707 74.9716 48.497 75.3073 49.0233 75.6219C49.5496 75.9366 50.0127 76.1831 50.46 76.4139L51.1179 76.7285C51.3078 76.8262 51.5028 76.9138 51.7021 76.9908L52.2283 77.1953C52.376 77.2595 52.5271 77.3156 52.6809 77.3631L53.6072 77.6463C53.7908 77.729 53.938 77.8752 54.0215 78.0579C54.105 78.2406 54.1191 78.4473 54.0612 78.6395C54.0033 78.8318 53.8774 78.9966 53.7068 79.1033C53.5361 79.21 53.3325 79.2513 53.1335 79.2197L53.1178 79.2249Z" fill="#3B2D55"/>
<path d="M33.2504 65.731L33.3873 65.495C33.4423 65.395 33.5038 65.2986 33.5715 65.2066C33.6557 65.0859 33.7504 64.9443 33.8609 64.808C33.9714 64.6716 34.0925 64.5353 34.2346 64.3937L34.4556 64.1891L34.5714 64.079L34.7188 63.9636L34.9451 63.7906L35.0608 63.7014L35.2135 63.607C35.4182 63.4768 35.6309 63.3595 35.8503 63.2556C36.2668 63.059 36.7048 62.9112 37.1554 62.8151C37.3653 62.7694 37.5781 62.7379 37.7923 62.7207C37.9828 62.7003 38.1743 62.6898 38.3659 62.6892H38.8553L39.229 62.7417L39.5553 62.7889C39.8032 62.8427 40.0212 62.9885 40.1652 63.1966C40.3093 63.4047 40.3686 63.6596 40.3311 63.9096C40.2937 64.1596 40.1622 64.3861 39.9635 64.5432C39.7647 64.7002 39.5134 64.7762 39.2606 64.7555H39.1659H39.0764L38.8606 64.6978L38.6133 64.6349L38.2817 64.593C38.1503 64.5846 38.0184 64.5846 37.887 64.593C37.7399 64.5804 37.592 64.5804 37.4449 64.593C37.2871 64.605 37.1304 64.6295 36.9765 64.6664C36.8135 64.6989 36.6533 64.7445 36.4976 64.8027C36.3502 64.8513 36.2061 64.9091 36.066 64.9758L35.9608 65.023L35.8345 65.1017L35.5924 65.2485L35.5292 65.2852H35.5029H35.5345L35.445 65.3587L35.2661 65.495C35.158 65.5824 35.0543 65.6752 34.9556 65.773C34.8661 65.8569 34.803 65.9408 34.7345 66.009C34.6671 66.0809 34.6055 66.1581 34.5503 66.2397L34.3925 66.46C34.3417 66.5307 34.2775 66.5907 34.2035 66.6366C34.1294 66.6825 34.047 66.7134 33.961 66.7275C33.875 66.7416 33.787 66.7387 33.7021 66.7189C33.6172 66.6991 33.537 66.6628 33.4662 66.6121C33.3252 66.5195 33.2246 66.3772 33.1846 66.2138C33.1446 66.0504 33.1681 65.8779 33.2504 65.731Z" fill="#3B2D55"/>
<path d="M64.8171 121.323C64.684 122.871 65.1481 124.412 66.115 125.632C67.0819 126.851 68.4789 127.658 70.0215 127.887C71.5642 128.116 73.1365 127.751 74.4184 126.866C75.7003 125.98 76.5954 124.641 76.9216 123.121L79.9951 106.03" fill="#57D1E5"/>
<path d="M65.8118 121.391C65.8118 121.391 65.8118 121.532 65.8118 121.794C65.8118 121.863 65.8118 121.936 65.8118 122.015V122.219C65.8118 122.287 65.8118 122.366 65.8118 122.45C65.8118 122.534 65.8118 122.634 65.8487 122.738C65.9178 123.229 66.0615 123.707 66.275 124.154C66.5487 124.743 66.9287 125.276 67.396 125.728C67.9483 126.251 68.6095 126.647 69.3327 126.887C69.7204 126.998 70.1193 127.067 70.5221 127.091H70.7168C70.7727 127.099 70.8294 127.099 70.8852 127.091H71.1799C71.2839 127.09 71.3877 127.081 71.4904 127.065C71.5998 127.057 71.7088 127.043 71.8167 127.023C72.2572 126.936 72.6862 126.798 73.0956 126.614C73.5094 126.408 73.8965 126.153 74.2482 125.854C74.6033 125.546 74.9165 125.193 75.1797 124.805C75.4381 124.409 75.6417 123.98 75.7849 123.53C75.8244 123.417 75.856 123.302 75.8796 123.184L75.9217 123.011V122.927V122.822L76.0796 121.994C76.1849 121.438 76.2901 120.887 76.3954 120.342C76.6059 119.246 76.8164 118.171 77.0164 117.132C77.4059 115.034 77.8111 113.104 78.1374 111.442C78.811 108.112 79.2847 105.898 79.2847 105.898C79.3161 105.726 79.415 105.573 79.5596 105.473C79.7042 105.373 79.8826 105.335 80.0557 105.366C80.2288 105.397 80.3823 105.496 80.4825 105.64C80.5827 105.784 80.6213 105.962 80.5899 106.134C80.5899 106.134 80.2688 108.374 79.7426 111.725C79.4689 113.403 79.1794 115.359 78.8216 117.452C78.6479 118.501 78.469 119.581 78.2953 120.677C78.2006 121.202 78.1111 121.779 78.0164 122.335L77.8795 123.169V123.273L77.89 123.42L77.8322 123.656C77.8005 123.817 77.7601 123.977 77.7111 124.134C77.3254 125.395 76.5968 126.526 75.606 127.401C75.123 127.811 74.593 128.163 74.0271 128.45C73.4557 128.721 72.853 128.922 72.2325 129.048C72.0811 129.078 71.9283 129.101 71.7746 129.116C71.6197 129.141 71.4632 129.155 71.3062 129.158H70.8115C70.7415 129.163 70.6711 129.163 70.601 129.158H70.4063C69.8229 129.119 69.2466 129.008 68.6906 128.827C67.6687 128.493 66.7353 127.933 65.9592 127.191C65.3057 126.565 64.7803 125.819 64.4119 124.994C64.1201 124.361 63.9283 123.687 63.8435 122.995C63.8435 122.854 63.8067 122.723 63.7962 122.586C63.7857 122.45 63.7962 122.319 63.7962 122.204C63.7962 122.088 63.7962 121.973 63.7962 121.868C63.7962 121.763 63.7962 121.716 63.7962 121.648C63.8225 121.385 63.833 121.244 63.833 121.244C63.857 120.986 63.9812 120.748 64.179 120.58C64.3769 120.412 64.6328 120.329 64.8919 120.346C65.151 120.364 65.3929 120.482 65.5658 120.675C65.7387 120.869 65.8289 121.122 65.8171 121.38L65.8118 121.391Z" fill="#3B2D55"/>
<path d="M55.9703 121.716C55.9036 122.515 55.9955 123.319 56.2407 124.082C56.4858 124.846 56.8795 125.554 57.3993 126.166C57.919 126.778 58.5546 127.282 59.2697 127.649C59.9849 128.016 60.7656 128.239 61.5673 128.306C62.369 128.372 63.176 128.28 63.9422 128.036C64.7084 127.792 65.4188 127.399 66.0329 126.882C66.6469 126.364 67.1526 125.73 67.521 125.018C67.8894 124.305 68.1134 123.527 68.1801 122.728L70.1115 105.589" fill="#57D1E5"/>
<path d="M56.9647 121.721V122.125C56.9647 122.188 56.9647 122.261 56.9647 122.345C56.9647 122.429 56.9647 122.471 56.9647 122.545C56.9647 122.618 56.9647 122.692 56.9647 122.775C56.9647 122.859 57.0016 122.959 57.0226 123.059C57.1235 123.543 57.3012 124.009 57.5489 124.438C57.8582 125.001 58.2685 125.502 58.7593 125.917C59.3403 126.409 60.0232 126.767 60.7592 126.966C61.1586 127.066 61.5684 127.118 61.9802 127.123C62.1065 127.123 62.2486 127.123 62.3539 127.123L62.6433 127.097C62.746 127.088 62.8479 127.072 62.9486 127.05C63.0591 127.05 63.1643 127.013 63.2696 126.987C63.7041 126.879 64.1231 126.717 64.5169 126.504C64.9196 126.283 65.2913 126.01 65.6221 125.691C66.3015 125.034 66.7859 124.203 67.022 123.289C67.0576 123.177 67.0823 123.061 67.0957 122.943L67.1588 122.592L67.2641 121.753C67.3325 121.197 67.4009 120.641 67.4746 120.09C67.6114 118.989 67.7483 117.909 67.8798 116.86C68.1377 114.762 68.4061 112.806 68.6324 111.133C69.0798 107.781 69.4113 105.547 69.4113 105.547C69.44 105.381 69.5313 105.232 69.6665 105.131C69.8017 105.03 69.9706 104.984 70.1386 105.003C70.3067 105.021 70.4612 105.103 70.5706 105.232C70.68 105.361 70.7359 105.526 70.727 105.694C70.727 105.694 70.5586 107.944 70.2481 111.311C70.0902 112.994 69.9218 114.982 69.7218 117.08L69.3955 120.321C69.3429 120.872 69.285 121.428 69.2324 121.989L69.1482 122.828C69.1482 122.98 69.1008 123.148 69.0745 123.305C69.0544 123.468 69.0209 123.63 68.9745 123.788C68.7409 124.735 68.3156 125.624 67.7246 126.402C67.1336 127.179 66.3895 127.828 65.5379 128.308C64.9872 128.614 64.4002 128.85 63.7906 129.011L63.338 129.106C63.1833 129.137 63.0269 129.16 62.8696 129.174L62.3802 129.216H61.9855C60.3158 129.208 58.7035 128.608 57.4384 127.522C56.7461 126.939 56.1757 126.226 55.7595 125.424C55.432 124.814 55.1995 124.158 55.0701 123.478C55.0701 123.331 55.0122 123.205 54.9964 123.069C54.9806 122.933 54.9964 122.807 54.9648 122.686V122.356C54.9648 122.277 54.9648 122.204 54.9648 122.136C54.9648 121.873 54.9648 121.732 54.9648 121.732C54.9648 121.469 55.0696 121.217 55.2562 121.031C55.4427 120.845 55.6957 120.741 55.9595 120.741C56.2233 120.741 56.4763 120.845 56.6629 121.031C56.8494 121.217 56.9542 121.469 56.9542 121.732L56.9647 121.721Z" fill="#3B2D55"/>
<path d="M45.8816 121.716L35.9348 110.393C35.4976 110.873 34.9368 111.224 34.3134 111.409C33.6899 111.594 33.0276 111.605 32.3982 111.442L33.6823 122.728C33.8608 124.308 34.65 125.756 35.8824 126.765C37.1148 127.774 38.6934 128.265 40.2831 128.133C41.8728 128.002 43.3483 127.258 44.3966 126.06C45.4448 124.861 45.9832 123.303 45.8973 121.716H45.8816Z" fill="#57D1E5"/>
<path d="M32.3928 105.531C32.3928 105.531 32.7244 107.766 33.177 111.117C33.398 112.79 33.6717 114.746 33.9296 116.844C34.0611 117.893 34.198 118.973 34.3348 120.074C34.4032 120.599 34.4769 121.181 34.5453 121.737L34.6506 122.576C34.6832 122.823 34.7306 123.069 34.7927 123.31L34.8769 123.62L35.0084 123.945C35.0449 124.058 35.0925 124.167 35.1505 124.27C35.2084 124.37 35.2558 124.48 35.3137 124.579C35.5534 124.98 35.8434 125.348 36.1768 125.676C36.8309 126.308 37.6434 126.753 38.5293 126.966C38.9496 127.068 39.3808 127.119 39.8134 127.118H40.1292H40.3239C40.3239 127.118 40.2397 127.118 40.2871 127.118H40.3239H40.4134L40.7818 127.055H40.8712H40.9397L41.0712 127.018C41.1554 126.992 41.2396 126.976 41.3291 126.945L41.608 126.84C41.7894 126.775 41.9654 126.696 42.1343 126.604C42.3027 126.515 42.4606 126.415 42.6132 126.321C42.7659 126.226 42.9132 126.111 43.0395 125.99C43.5305 125.574 43.9423 125.073 44.2552 124.511C44.5008 124.079 44.6783 123.612 44.7815 123.127C44.8026 123.029 44.8236 122.934 44.8447 122.844C44.8447 122.749 44.8447 122.665 44.8447 122.587C44.8564 122.45 44.8564 122.314 44.8447 122.178C44.8447 121.957 44.8447 121.842 44.8447 121.842V121.737C44.8447 121.475 44.9489 121.225 45.1345 121.04C45.32 120.855 45.5717 120.751 45.8341 120.751C46.0965 120.751 46.3482 120.855 46.5337 121.04C46.7193 121.225 46.8235 121.475 46.8235 121.737C46.8235 121.737 46.8235 121.9 46.8235 122.209C46.8351 122.396 46.8351 122.583 46.8235 122.77C46.8235 122.879 46.813 122.999 46.7919 123.132C46.7919 123.258 46.7446 123.389 46.7182 123.531C46.5874 124.21 46.355 124.866 46.0288 125.476C45.6077 126.275 45.038 126.987 44.35 127.574C44.1658 127.737 43.9553 127.878 43.75 128.03C43.5448 128.182 43.3132 128.314 43.0764 128.439C42.8349 128.564 42.5873 128.676 42.3343 128.775L41.9396 128.922L41.508 129.043L41.287 129.095L41.1712 129.121H41.0818L40.7134 129.184H40.6239H40.5239H40.3029H39.8608C38.9119 129.196 37.9701 129.02 37.0901 128.667C36.2101 128.313 35.4094 127.788 34.7348 127.123C34.2735 126.66 33.8738 126.14 33.5454 125.576C33.4664 125.434 33.398 125.287 33.3243 125.141C33.2487 124.995 33.1837 124.844 33.1296 124.69L32.9559 124.228L32.8191 123.704C32.8191 123.62 32.7717 123.525 32.7612 123.457L32.7296 123.247L32.6981 123.038V122.933V122.88V122.807V122.781L32.6139 121.942C32.556 121.38 32.5033 120.824 32.4455 120.274C32.3349 119.172 32.2297 118.082 32.1244 117.033C31.9034 114.935 31.7402 112.963 31.5981 111.264C31.2876 107.897 31.114 105.647 31.114 105.647C31.1051 105.479 31.161 105.313 31.2704 105.185C31.3798 105.056 31.5343 104.974 31.7023 104.955C31.8704 104.937 32.0393 104.983 32.1745 105.084C32.3097 105.185 32.401 105.334 32.4297 105.5L32.3928 105.531Z" fill="#3B2D55"/>
<path d="M44.3025 105.065L44.7972 122.23C44.8439 123.819 45.5101 125.327 46.6543 126.434C47.7986 127.541 49.3308 128.161 50.9258 128.161C52.5208 128.161 54.053 127.541 55.1972 126.434C56.3414 125.327 57.0076 123.819 57.0543 122.23L57.549 105.065" fill="#57D1E5"/>
<path d="M44.96 105.065C44.96 105.065 45.0073 105.893 45.0915 107.346C45.1757 108.799 45.2863 110.876 45.4073 113.362C45.5284 115.848 45.6389 118.758 45.7704 121.873V122.167V122.408C45.7772 122.585 45.7984 122.76 45.8336 122.933C45.8904 123.25 45.9785 123.561 46.0967 123.861C46.4685 124.825 47.1257 125.653 47.9812 126.236C48.8366 126.819 49.8498 127.128 50.8859 127.123H51.0491C50.9491 127.123 51.0491 127.123 51.0122 127.123H51.0543H51.1333H51.4438H51.6017H51.7122L51.9437 127.081C52.0911 127.081 52.27 126.997 52.4332 126.961C52.5963 126.924 52.7542 126.84 52.9174 126.782C53.5534 126.514 54.1268 126.118 54.6015 125.618C55.0732 125.127 55.4434 124.547 55.6909 123.914C55.7568 123.761 55.8097 123.603 55.8488 123.442C55.8962 123.282 55.9331 123.119 55.9593 122.954C55.9918 122.793 56.0112 122.63 56.0172 122.466C56.0172 122.382 56.0172 122.309 56.0172 122.214V121.921C56.154 118.805 56.2593 115.9 56.3856 113.409C56.5119 110.918 56.6119 108.846 56.7013 107.393C56.7908 105.941 56.8329 105.112 56.8329 105.112C56.8378 104.937 56.9124 104.771 57.0402 104.65C57.168 104.53 57.3386 104.465 57.5145 104.47C57.6903 104.474 57.8571 104.549 57.978 104.676C58.0989 104.803 58.164 104.973 58.1592 105.149V107.435C58.1592 108.893 58.1592 110.97 58.1276 113.461C58.096 115.952 58.0434 118.863 58.0013 121.978V122.272C58.0013 122.372 58.0013 122.492 58.0013 122.602C57.9909 122.831 57.9645 123.059 57.9223 123.284C57.892 123.513 57.8427 123.74 57.775 123.961C57.7208 124.187 57.6504 124.41 57.5645 124.627C57.2271 125.52 56.7151 126.337 56.0583 127.031C55.4015 127.725 54.613 128.282 53.7384 128.67C53.5068 128.759 53.2858 128.859 53.0542 128.927C52.8226 128.995 52.5963 129.069 52.3385 129.116L51.949 129.184L51.7543 129.216H51.6017H51.2912H51.2122H50.8964C49.4439 129.21 48.0277 128.763 46.8364 127.935C45.6452 127.106 44.7354 125.936 44.2284 124.58C44.0599 124.134 43.9399 123.672 43.8706 123.2C43.834 122.99 43.8094 122.778 43.7969 122.566V121.931C43.7495 118.816 43.6864 115.905 43.6706 113.414C43.6548 110.923 43.6285 108.846 43.6337 107.388V105.065C43.6432 104.9 43.7145 104.744 43.8337 104.628C43.9529 104.513 44.1112 104.446 44.2773 104.442C44.4434 104.437 44.6052 104.495 44.7306 104.603C44.8561 104.712 44.936 104.864 44.9547 105.028L44.96 105.065Z" fill="#3B2D55"/>
<path d="M137.244 81.1079L132.408 79.4979L132.029 77.1378L135.96 74.9509L134.607 70.8235H129.466L128.287 69.14L130.06 64.5091L126.766 61.2261L121.945 63.5861L120.34 62.8256L119.993 57.2717L115.851 56.3434L111.883 60.539L110.446 60.4551L108.162 56.2595L103.262 57.0986L102.336 62.8256L100.646 63.7539L96.5045 61.31L92.6995 64.3413L94.6468 69.4809L93.4626 70.9074L88.5629 70.5717L86.6999 74.7673L90.3365 78.5591L90.0839 80.3265L85.6052 82.3456L86.3631 88.0726L99.1254 84.113L102.552 83.9976C102.453 83.5371 102.401 83.0681 102.394 82.5974C102.394 78.2287 106.257 73.3723 111.235 73.3723C116.214 73.3723 120.419 78.2287 120.419 82.5974C120.406 82.9672 120.364 83.3355 120.293 83.6987L136.46 86.8454L137.244 81.1079Z" fill="#FAB533"/>
<path d="M85.6156 86.0692C85.3269 86.0715 85.0464 85.974 84.8218 85.7932C84.5972 85.6125 84.4425 85.3597 84.3841 85.078C84.2043 84.2149 84.1057 83.3371 84.0894 82.4557C84.0895 81.9383 84.2344 81.4311 84.5077 80.991C84.781 80.551 85.1719 80.1956 85.6366 79.9646C86.751 79.4057 87.9135 78.9476 89.1101 78.5958C89.1101 78.4857 89.1522 78.3755 89.1785 78.2602C89.2048 78.1448 89.1785 78.0189 89.1785 77.8878C88.1014 77.1744 87.0872 76.3709 86.1471 75.4858C85.8097 75.1382 85.5661 74.7111 85.4391 74.2443C85.3121 73.7775 85.3058 73.2862 85.4209 72.8164C85.7453 71.7897 86.1464 70.7887 86.6208 69.8218C86.8635 69.3789 87.2222 69.0099 87.6587 68.754C88.0952 68.4982 88.5932 68.3652 89.0996 68.369C90.41 68.4634 91.5626 68.5578 92.6993 68.7204L92.7414 68.6575C92.7993 68.5788 92.8625 68.4949 92.9257 68.4005C92.9711 68.3303 93.024 68.2653 93.0835 68.2065L93.1309 68.1383C92.5183 66.9752 91.9787 65.7754 91.5152 64.5458C91.4998 64.5066 91.4875 64.4663 91.4784 64.4252C91.3556 63.9573 91.3539 63.466 91.4736 62.9973C91.5932 62.5286 91.8303 62.0978 92.1625 61.7452C92.8776 60.9785 93.6596 60.2764 94.4992 59.6474C94.8905 59.3269 95.3685 59.1294 95.8726 59.08C96.3766 59.0305 96.8841 59.1312 97.3306 59.3695C98.5042 60.0565 99.4831 60.6911 100.394 61.3467C100.552 61.2681 100.716 61.1998 100.883 61.1421L101.036 61.0635C101.054 59.5636 101.266 58.0724 101.667 56.6266C101.774 56.1574 102.005 55.725 102.335 55.3738C102.665 55.0227 103.083 54.7654 103.546 54.6285L104.035 54.5026C104.845 54.2764 105.667 54.1012 106.498 53.9781C107.028 53.8676 107.579 53.9317 108.069 54.1606C108.559 54.3895 108.961 54.7709 109.214 55.2473C109.837 56.2283 110.41 57.24 110.93 58.2786H111.624C112.254 57.1303 112.942 56.0152 113.688 54.9379C113.727 54.8774 113.773 54.8212 113.824 54.7701C114.166 54.4202 114.59 54.16 115.057 54.0127C115.525 53.8654 116.021 53.8355 116.503 53.9257L116.908 54.0568C116.985 54.0916 117.064 54.1197 117.145 54.1407C117.281 54.1354 117.416 54.1624 117.54 54.2194C117.866 54.339 118.198 54.4423 118.535 54.5288C118.829 54.6075 119.14 54.6966 119.471 54.8015L119.635 54.8697C120.089 55.0778 120.476 55.4068 120.755 55.8204C121.034 56.2341 121.192 56.7163 121.213 57.214C121.326 58.4203 121.354 59.633 121.298 60.8432C121.326 60.8589 121.356 60.8713 121.387 60.8799L121.55 60.9481C121.696 61.0198 121.837 61.1022 121.971 61.1946C123.042 60.5043 124.151 59.874 125.292 59.3066C125.741 59.0836 126.245 58.9965 126.742 59.0562C127.24 59.1158 127.709 59.3196 128.092 59.6422C128.259 59.746 128.411 59.8712 128.544 60.0146C128.662 60.0797 128.769 60.1629 128.86 60.2611L130.365 61.74C130.747 62.1133 131.002 62.5954 131.096 63.1197C131.191 63.6439 131.119 64.1844 130.892 64.6664C130.334 65.9094 129.839 66.953 129.276 67.9233L129.313 67.9705C129.402 68.0678 129.48 68.1752 129.544 68.2904L129.65 68.5001C130.943 68.3645 132.244 68.3032 133.544 68.3166C134.044 68.3318 134.531 68.4836 134.95 68.7555C135.37 69.0274 135.706 69.409 135.923 69.8585C136.008 70.0315 136.053 70.2215 136.055 70.4144C136.16 70.6084 136.233 70.771 136.312 70.9388C136.597 71.494 136.804 72.085 136.928 72.6957C137.019 73.1604 136.991 73.6404 136.847 74.0914C136.702 74.5424 136.446 74.9498 136.102 75.276L135.986 75.3809C135.06 76.1099 134.113 76.8546 133.076 77.5417V77.7514C133.079 77.8021 133.079 77.8529 133.076 77.9035L133.113 78.2549C134.337 78.727 135.531 79.2753 136.686 79.8964C137.121 80.1408 137.481 80.497 137.73 80.9279C137.979 81.3588 138.108 81.8484 138.102 82.3456C138.107 82.4137 138.107 82.4821 138.102 82.5501C138.049 82.8701 138.023 83.169 137.997 83.4522C137.973 83.8304 137.927 84.2069 137.86 84.5798C137.829 84.7402 137.766 84.893 137.676 85.0294C137.585 85.1658 137.469 85.2831 137.333 85.3747C137.197 85.4663 137.045 85.5303 136.884 85.563C136.723 85.5958 136.558 85.5967 136.397 85.5657C136.236 85.5347 136.082 85.4724 135.945 85.3824C135.809 85.2924 135.691 85.1763 135.599 85.0409C135.507 84.9056 135.443 84.7535 135.41 84.5934C135.377 84.4332 135.376 84.2682 135.407 84.1078C135.459 83.8198 135.494 83.5291 135.512 83.2372C135.539 82.9382 135.565 82.6288 135.618 82.2984C135.607 82.2203 135.576 82.1463 135.528 82.0834C134.25 81.4031 132.924 80.8159 131.56 80.3265C131.338 80.2471 131.142 80.1064 130.997 79.9207C130.852 79.735 130.762 79.512 130.739 79.2776L130.608 78.1605C130.605 78.1151 130.605 78.0696 130.608 78.0242V77.977L130.486 77.0592C130.456 76.8198 130.495 76.5766 130.6 76.3589C130.704 76.1412 130.87 75.9582 131.076 75.8319C132.216 75.1112 133.311 74.3213 134.355 73.4667C134.502 73.2989 134.481 73.2097 134.465 73.1415C134.377 72.7343 134.233 72.3409 134.039 71.972C133.944 71.7675 133.849 71.5734 133.77 71.3741C133.693 71.2064 133.635 71.0304 133.597 70.8497C133.571 70.823 133.541 70.8016 133.507 70.7867C132.09 70.7592 130.673 70.8486 129.271 71.0542C129.075 71.0888 128.874 71.0759 128.684 71.0166C128.495 70.9572 128.322 70.8532 128.181 70.7133C128.044 70.5781 127.929 70.4224 127.839 70.2518C127.66 70.0369 127.508 69.8009 127.387 69.549C127.259 69.3916 127.143 69.2251 127.039 69.0508C127.002 68.9805 126.958 68.9138 126.908 68.8515C126.726 68.6485 126.611 68.3954 126.577 68.1257C126.544 67.856 126.593 67.5824 126.718 67.3411C127.422 66.1415 128.058 64.9036 128.623 63.6333L127.208 62.1438C127.062 62.0452 126.926 61.9328 126.802 61.8082C126.686 61.7394 126.58 61.6547 126.487 61.5564C125.178 62.1695 123.923 62.8905 122.734 63.7119C122.515 63.8684 122.25 63.9494 121.981 63.9428C121.711 63.9362 121.451 63.8422 121.24 63.6752C121.135 63.6264 121.037 63.5666 120.945 63.4969C120.829 63.434 120.734 63.371 120.64 63.3081L120.513 63.2294C120.292 63.1421 120.079 63.0351 119.877 62.9095C119.796 62.8589 119.712 62.815 119.624 62.7784C119.357 62.6919 119.126 62.5179 118.971 62.2847C118.815 62.0515 118.743 61.7727 118.766 61.4935C118.871 60.1157 118.86 58.7316 118.735 57.3556C118.727 57.3139 118.711 57.2742 118.688 57.2389C118.664 57.2037 118.634 57.1738 118.598 57.1511C118.345 57.0724 118.108 57.0095 117.882 56.9465C117.514 56.8469 117.166 56.7472 116.829 56.6214C116.573 56.5852 116.322 56.5182 116.082 56.4221L115.84 56.3382C115.887 56.3382 115.777 56.4116 115.677 56.485C114.882 57.6585 114.152 58.8734 113.488 60.1247C113.38 60.321 113.222 60.4853 113.029 60.6005C112.837 60.7157 112.617 60.7778 112.393 60.7803H110.151C109.901 60.7806 109.656 60.707 109.449 60.5689C109.241 60.4307 109.078 60.2341 108.983 60.0041C108.434 58.7794 107.79 57.5993 107.056 56.4745C107.004 56.4745 106.962 56.4378 106.909 56.4378C106.161 56.5517 105.421 56.7129 104.693 56.9203L104.193 57.0514C104.193 57.0514 104.13 57.1563 104.104 57.2664C103.693 58.748 103.505 60.2821 103.546 61.8187C103.549 62.0794 103.469 62.3344 103.318 62.5473C103.167 62.7601 102.952 62.92 102.704 63.0039C102.616 63.0451 102.532 63.0924 102.451 63.1455C102.218 63.295 101.97 63.4181 101.709 63.5126C101.526 63.5824 101.349 63.6703 101.183 63.7749L100.862 63.9479C100.653 64.0531 100.418 64.0975 100.184 64.0762C99.9506 64.0549 99.7278 63.9686 99.541 63.8273C98.4605 63.0072 97.3304 62.254 96.157 61.5722H96.1097L95.9939 61.6613C95.2602 62.212 94.5785 62.8281 93.9572 63.5021C93.9047 63.5848 93.8842 63.6835 93.8993 63.7801C94.3996 65.1021 94.9977 66.3853 95.6886 67.6191C95.8183 67.8536 95.8689 68.1235 95.8329 68.3888C95.7969 68.6542 95.6762 68.901 95.4886 69.0928C95.4412 69.1557 95.3989 69.2223 95.3623 69.2921C95.2475 69.4965 95.1136 69.6896 94.9624 69.869C94.8992 69.9634 94.8308 70.0525 94.7676 70.1417C94.6808 70.2452 94.6082 70.3599 94.5519 70.4826C94.4578 70.7673 94.264 71.0087 94.006 71.1628C93.748 71.3168 93.443 71.3733 93.1467 71.3217C91.831 71.0909 90.5153 70.9808 89.0206 70.8707C88.9587 70.8942 88.9003 70.926 88.847 70.9651C88.4539 71.7921 88.1146 72.6434 87.8312 73.5139C87.8434 73.5916 87.8702 73.6663 87.9102 73.7342C88.9488 74.6839 90.0668 75.5436 91.2521 76.304C91.4747 76.4554 91.6419 76.675 91.7283 76.9295C91.8147 77.184 91.8156 77.4596 91.731 77.7147C91.6781 77.9521 91.6586 78.1957 91.6731 78.4385C91.6779 78.572 91.6583 78.7053 91.6152 78.8318C91.5625 79.071 91.543 79.3163 91.5573 79.5608C91.5599 79.8381 91.469 80.1083 91.2992 80.328C91.1293 80.5477 90.8903 80.7041 90.6205 80.7723C89.2885 81.1078 87.9968 81.5861 86.7681 82.1988C86.7174 82.221 86.6738 82.2567 86.6422 82.3021C86.6107 82.3474 86.5923 82.4006 86.5892 82.4557C86.6041 83.1607 86.6834 83.8629 86.826 84.5535C86.8599 84.7134 86.8616 84.8783 86.8312 85.0388C86.8007 85.1993 86.7387 85.3522 86.6487 85.4887C86.5587 85.6252 86.4424 85.7426 86.3067 85.8342C86.1709 85.9257 86.0183 85.9895 85.8577 86.022C85.7787 86.0456 85.6976 86.0614 85.6156 86.0692Z" fill="#B03831"/>
<path d="M102.32 83.2163C102.155 83.2191 101.992 83.1895 101.839 83.1293C101.686 83.0692 101.546 82.9795 101.428 82.8656C101.31 82.7516 101.215 82.6156 101.15 82.4652C101.084 82.3148 101.049 82.153 101.046 81.9891C101.017 79.5049 101.909 77.0972 103.551 75.2282C105.194 73.3591 107.471 72.1604 109.946 71.862C111.259 71.6842 112.594 71.7704 113.873 72.1153C115.152 72.4603 116.349 73.0572 117.393 73.8706C119.508 75.513 120.89 77.9186 121.24 80.5678V80.7252V81.7216C121.24 82.0513 121.108 82.3674 120.875 82.6005C120.641 82.8336 120.323 82.9646 119.993 82.9646C119.662 82.9646 119.344 82.8336 119.111 82.6005C118.877 82.3674 118.745 82.0513 118.745 81.7216V80.8038C118.468 78.8282 117.428 77.0386 115.845 75.8163C115.062 75.2034 114.163 74.7538 113.202 74.4943C112.241 74.2348 111.238 74.1707 110.251 74.3059C108.38 74.5374 106.662 75.4501 105.426 76.8686C104.19 78.287 103.524 80.1109 103.557 81.9891C103.551 82.3138 103.419 82.6235 103.188 82.8527C102.957 83.0818 102.646 83.2122 102.32 83.2163Z" fill="#B03831"/>
<path d="M109.993 83.4203C95.1678 83.5252 79.4425 87.3904 79.4688 94.3446L79.6582 121.06C79.6562 121.651 79.7818 122.236 80.0266 122.775C82.3054 127.972 94.7626 131.528 110.314 131.418C125.14 131.313 140.865 127.448 140.839 120.494L140.649 93.9093C140.576 86.9551 124.792 83.3154 109.993 83.4203Z" fill="#E5E5E4"/>
<path d="M110.272 116.959C94.4838 117.075 81.8162 113.692 79.5005 108.741C79.2519 108.231 79.1241 107.672 79.1269 107.105L79.0216 92.4202C78.9742 85.8016 94.9574 82.1095 110.02 82.0046C125.082 81.8997 141.118 85.3611 141.165 91.9692L141.27 106.517C141.318 113.167 125.335 116.854 110.272 116.959ZM110.041 84.501C98.1046 84.5849 81.4846 87.6477 81.5162 92.415L81.6214 107.1C81.6178 107.295 81.6592 107.489 81.7425 107.666C83.3213 111.049 94.6627 114.594 110.251 114.484C122.187 114.4 138.807 111.337 138.776 106.57L138.671 92.0216C138.649 88.8067 127.745 84.3751 110.041 84.501Z" fill="#3B2D55"/>
<path d="M110.167 102.411C95.1048 102.516 79.069 99.0543 79.0216 92.4462C78.9742 85.8381 94.9574 82.1355 110.02 82.0306C125.082 81.9257 141.118 85.3871 141.165 91.9952C141.212 98.6032 125.256 102.306 110.167 102.411ZM110.041 84.5008C92.3313 84.6267 81.4951 89.2208 81.5162 92.4147C81.5372 95.6086 92.4418 100.051 110.146 99.9248C127.85 99.799 138.692 95.231 138.67 92.0109C138.649 88.7908 127.745 84.3749 110.041 84.5008Z" fill="#3B2D55"/>
<path d="M110.098 132.861C94.3099 132.861 81.6791 129.394 79.3898 124.427C79.1438 123.917 79.0195 123.357 79.0267 122.791V105.243L81.5212 108.133V122.817C81.5175 123.011 81.5589 123.203 81.6423 123.379C83.2211 126.777 94.5099 130.401 110.098 130.401C122.035 130.401 138.681 127.469 138.681 122.691V108.253L141.175 105.427V122.681C141.175 129.305 125.166 132.861 110.098 132.861Z" fill="#3B2D55"/>
</svg>
